{"glyphs":{"0":{"ha":856,"x_min":0,"x_max":0,"o":"m 428 -18 b 42 461 182 -18 40 151 b 428 940 42 765 182 940 b 814 461 672 940 814 764 b 428 -18 814 157 674 -18 m 431 135 b 629 439 563 135 629 236 l 629 483 b 425 789 629 685 560 789 b 226 483 293 789 226 686 l 226 439 b 431 135 226 238 296 135 "},"1":{"ha":614,"x_min":0,"x_max":0,"o":"m 321 0 l 321 650 b 47 464 253 565 165 499 l 47 625 b 326 924 190 678 292 768 l 493 924 l 493 0 "},"2":{"ha":753,"x_min":0,"x_max":0,"o":"m 44 44 b 539 649 44 467 539 460 b 394 781 539 724 496 781 b 193 629 303 781 244 739 l 42 699 b 400 940 115 861 232 940 b 721 654 592 940 721 829 b 240 156 721 363 297 364 l 717 156 l 717 0 l 44 0 "},"3":{"ha":815,"x_min":0,"x_max":0,"o":"m 408 -18 b 47 283 201 -18 57 60 l 221 283 b 408 132 229 183 281 132 b 586 264 525 132 586 181 l 586 269 b 418 399 586 358 540 399 l 339 399 l 339 547 l 417 547 b 571 665 522 547 571 589 l 571 668 b 406 790 571 743 511 790 b 231 636 283 790 240 732 l 57 636 b 408 940 76 835 204 940 b 747 676 631 940 747 844 b 601 488 747 585 701 518 b 767 263 707 453 767 375 b 408 -18 767 86 639 -18 "},"4":{"ha":835,"x_min":0,"x_max":0,"o":"m 654 922 l 181 347 l 489 347 l 489 513 l 658 617 l 658 347 l 800 347 l 800 206 l 658 206 l 658 0 l 488 0 l 488 206 l 39 206 l 39 375 l 433 922 "},"5":{"ha":794,"x_min":0,"x_max":0,"o":"m 396 -19 b 42 278 185 -19 42 99 l 213 278 b 392 132 222 183 276 132 b 575 313 508 132 575 196 l 575 315 b 399 489 575 422 507 489 b 207 382 300 489 246 443 l 57 468 l 128 922 l 701 922 l 701 771 l 251 771 l 219 558 b 419 633 268 606 336 633 b 754 314 619 633 754 508 b 396 -19 754 107 615 -19 "},"6":{"ha":828,"x_min":0,"x_max":0,"o":"m 440 -15 b 57 456 197 -15 57 150 b 440 940 57 768 199 940 b 771 668 663 940 760 808 l 600 668 b 433 792 589 740 549 792 b 229 517 304 792 229 686 l 226 492 b 456 599 278 557 367 599 b 782 301 651 599 782 481 b 440 -15 782 117 639 -15 m 433 132 b 606 297 539 132 606 200 l 606 301 b 428 463 606 397 536 463 b 246 304 324 463 246 394 l 246 300 b 433 132 246 207 328 132 "},"7":{"ha":735,"x_min":0,"x_max":0,"o":"m 47 922 l 703 922 l 703 774 l 290 0 l 104 0 l 536 769 l 47 769 "},"8":{"ha":814,"x_min":0,"x_max":0,"o":"m 407 -18 b 32 268 167 -18 32 85 b 192 482 32 365 93 442 b 64 675 110 519 64 585 b 407 940 64 838 194 940 b 750 675 619 940 750 838 b 622 482 750 585 704 519 b 782 268 721 442 782 365 b 407 -18 782 85 647 -18 m 407 131 b 601 268 525 131 601 183 b 407 414 601 361 531 414 b 213 268 283 414 213 361 b 407 131 213 185 289 131 m 407 542 b 574 668 517 542 574 585 b 407 792 574 746 513 792 b 242 668 303 792 242 746 b 407 542 242 585 299 542 "},"9":{"ha":838,"x_min":0,"x_max":0,"o":"m 396 -14 b 65 239 174 -14 76 106 l 236 239 b 403 135 247 172 288 135 b 607 394 532 135 604 224 l 607 429 b 383 314 557 354 479 314 b 54 613 186 314 54 433 b 397 942 54 796 197 942 b 779 464 640 942 779 769 b 396 -14 779 151 638 -14 m 408 451 b 590 622 513 451 590 532 l 590 626 b 403 794 590 719 508 794 b 229 619 299 794 229 714 l 229 615 b 408 451 229 519 300 451 "},"A":{"ha":922,"x_min":0,"x_max":0,"o":"m 365 922 l 567 922 l 903 0 l 715 0 l 628 246 l 282 246 l 193 0 l 18 0 m 333 392 l 579 392 l 458 733 "},"Æ":{"ha":1281,"x_min":0,"x_max":0,"o":"m 1078 399 l 804 399 l 804 151 l 1239 151 l 1239 0 l 632 0 l 632 310 l 367 310 l 199 0 l 18 0 l 525 922 l 1211 922 l 1211 771 l 804 771 l 804 550 l 1078 550 m 632 457 l 632 808 l 443 457 "},"Ǽ":{"ha":1281,"x_min":0,"x_max":0,"o":"m 1078 399 l 804 399 l 804 151 l 1239 151 l 1239 0 l 632 0 l 632 310 l 367 310 l 199 0 l 18 0 l 525 922 l 1211 922 l 1211 771 l 804 771 l 804 550 l 1078 550 m 632 457 l 632 808 l 443 457 m 1015 1181 l 789 992 l 699 992 l 822 1196 l 1015 1196 "},"Á":{"ha":922,"x_min":0,"x_max":0,"o":"m 365 922 l 567 922 l 903 0 l 715 0 l 628 246 l 282 246 l 193 0 l 18 0 m 333 392 l 579 392 l 458 733 m 724 1181 l 497 992 l 407 992 l 531 1196 l 724 1196 "},"Ă":{"ha":922,"x_min":0,"x_max":0,"o":"m 365 922 l 567 922 l 903 0 l 715 0 l 628 246 l 282 246 l 193 0 l 18 0 m 333 392 l 579 392 l 458 733 m 463 992 b 250 1197 325 992 243 1071 l 374 1204 b 463 1096 374 1133 400 1096 b 547 1204 522 1096 549 1133 l 672 1197 b 463 992 679 1071 597 992 "},"Â":{"ha":922,"x_min":0,"x_max":0,"o":"m 365 922 l 567 922 l 903 0 l 715 0 l 628 246 l 282 246 l 193 0 l 18 0 m 333 392 l 579 392 l 458 733 m 686 992 l 567 992 l 464 1099 l 358 992 l 242 992 l 390 1193 l 536 1193 "},"Ä":{"ha":922,"x_min":0,"x_max":0,"o":"m 365 922 l 567 922 l 903 0 l 715 0 l 628 246 l 282 246 l 193 0 l 18 0 m 333 392 l 579 392 l 458 733 m 408 1003 l 256 1003 l 256 1171 l 408 1171 m 668 1003 l 515 1003 l 515 1171 l 668 1171 "},"À":{"ha":922,"x_min":0,"x_max":0,"o":"m 365 922 l 567 922 l 903 0 l 715 0 l 628 246 l 282 246 l 193 0 l 18 0 m 333 392 l 579 392 l 458 733 m 390 1196 l 515 992 l 424 992 l 197 1181 l 197 1196 "},"Ā":{"ha":922,"x_min":0,"x_max":0,"o":"m 365 922 l 567 922 l 903 0 l 715 0 l 628 246 l 282 246 l 193 0 l 18 0 m 333 392 l 579 392 l 458 733 m 667 1024 l 256 1024 l 256 1144 l 667 1144 "},"Ą":{"ha":922,"x_min":0,"x_max":0,"o":"m 822 -286 b 649 -154 717 -286 649 -229 b 763 0 649 -89 694 -36 l 715 0 l 628 246 l 282 246 l 193 0 l 18 0 l 365 922 l 567 922 l 903 0 l 900 0 b 785 -112 822 -33 785 -69 b 850 -164 785 -146 806 -164 b 906 -157 879 -164 896 -161 l 906 -274 b 822 -286 885 -281 858 -286 m 333 392 l 579 392 l 458 733 "},"Å":{"ha":922,"x_min":0,"x_max":0,"o":"m 365 922 l 567 922 l 903 0 l 715 0 l 628 246 l 282 246 l 193 0 l 18 0 m 333 392 l 579 392 l 458 733 m 461 979 b 529 1039 501 979 529 1004 b 461 1101 529 1075 501 1101 b 396 1039 422 1101 396 1075 b 461 979 396 1004 422 979 m 461 903 b 304 1039 368 903 304 958 b 461 1176 304 1121 368 1176 b 621 1039 556 1176 621 1121 b 461 903 621 958 556 903 "},"Ǻ":{"ha":922,"x_min":0,"x_max":0,"o":"m 356 901 b 306 1006 324 925 306 961 b 451 1140 306 1083 364 1136 l 517 1275 l 663 1275 l 663 1260 l 533 1128 b 621 1006 588 1107 621 1063 b 572 904 621 963 603 928 l 903 0 l 717 0 l 628 246 l 282 246 l 193 0 l 18 0 m 333 392 l 579 392 l 457 733 m 461 946 b 529 1006 501 946 529 969 b 461 1067 529 1040 501 1067 b 396 1006 422 1067 396 1040 b 461 946 396 969 422 946 "},"Ã":{"ha":922,"x_min":0,"x_max":0,"o":"m 365 922 l 567 922 l 903 0 l 715 0 l 628 246 l 282 246 l 193 0 l 18 0 m 333 392 l 579 392 l 458 733 m 247 1014 b 247 1053 246 1022 247 1044 b 368 1186 253 1154 315 1186 b 539 1111 474 1186 479 1111 b 582 1150 563 1111 572 1128 b 589 1178 583 1153 589 1169 l 674 1167 b 672 1128 675 1160 674 1135 b 553 994 667 1026 606 994 b 383 1069 451 994 444 1069 b 339 1029 360 1069 349 1056 b 333 1006 336 1024 333 1010 "},"B":{"ha":846,"x_min":0,"x_max":0,"o":"m 438 922 b 758 675 647 922 758 838 b 622 488 758 585 708 522 b 796 267 731 451 796 381 b 440 0 796 88 678 0 l 69 0 l 69 922 m 428 146 b 606 276 546 146 606 185 b 431 408 610 367 546 408 l 244 408 l 244 146 m 244 549 l 413 549 b 574 663 517 549 574 589 b 439 776 578 742 538 776 l 244 776 "},"C":{"ha":911,"x_min":0,"x_max":0,"o":"m 468 -18 b 40 461 214 -18 40 175 b 476 940 40 749 217 940 b 886 599 693 940 846 828 l 704 599 b 475 781 675 729 594 781 b 224 468 318 781 224 663 l 224 454 b 472 142 224 258 317 142 b 707 338 599 142 682 196 l 889 338 b 468 -18 854 96 693 -18 "},"\r":{"ha":218,"x_min":0,"x_max":0,"o":""},"Ć":{"ha":911,"x_min":0,"x_max":0,"o":"m 468 -18 b 40 461 214 -18 40 175 b 476 940 40 749 217 940 b 886 599 693 940 846 828 l 704 599 b 475 781 675 729 594 781 b 224 468 318 781 224 663 l 224 454 b 472 142 224 258 317 142 b 707 338 599 142 682 196 l 889 338 b 468 -18 854 96 693 -18 m 738 1181 l 511 992 l 421 992 l 544 1196 l 738 1196 "},"Č":{"ha":911,"x_min":0,"x_max":0,"o":"m 468 -18 b 40 461 214 -18 40 175 b 476 940 40 749 217 940 b 886 599 693 940 846 828 l 704 599 b 475 781 675 729 594 781 b 224 468 318 781 224 663 l 224 454 b 472 142 224 258 317 142 b 707 338 599 142 682 196 l 889 338 b 468 -18 854 96 693 -18 m 256 1193 l 372 1194 l 478 1085 l 582 1193 l 704 1196 l 551 993 l 408 988 "},"Ç":{"ha":911,"x_min":0,"x_max":0,"o":"m 463 -286 b 365 -271 422 -286 386 -278 l 365 -153 b 426 -162 379 -157 399 -162 b 493 -111 472 -162 493 -146 b 413 -14 493 -71 467 -40 b 40 461 189 11 40 196 b 476 940 40 749 217 940 b 886 599 693 940 846 828 l 704 599 b 475 781 675 729 594 781 b 224 468 318 781 224 663 l 224 454 b 472 142 224 258 317 142 b 707 338 599 142 682 196 l 889 338 b 542 -12 858 124 728 10 b 628 -153 599 -49 628 -94 b 463 -286 628 -228 578 -286 "},"Ĉ":{"ha":911,"x_min":0,"x_max":0,"o":"m 468 -18 b 40 461 214 -18 40 175 b 476 940 40 749 217 940 b 886 599 693 940 846 828 l 704 599 b 475 781 675 729 594 781 b 224 468 318 781 224 663 l 224 454 b 472 142 224 258 317 142 b 707 338 599 142 682 196 l 889 338 b 468 -18 854 96 693 -18 m 700 992 l 581 992 l 478 1099 l 372 992 l 256 992 l 404 1193 l 550 1193 "},"Ċ":{"ha":911,"x_min":0,"x_max":0,"o":"m 468 -18 b 40 461 214 -18 40 175 b 476 940 40 749 217 940 b 886 599 693 940 846 828 l 704 599 b 475 781 675 729 594 781 b 224 468 318 781 224 663 l 224 454 b 472 142 224 258 317 142 b 707 338 599 142 682 196 l 889 338 b 468 -18 854 96 693 -18 m 565 1003 l 385 1003 l 385 1171 l 565 1171 "},"D":{"ha":908,"x_min":0,"x_max":0,"o":"m 69 922 l 408 922 b 871 458 701 922 871 763 b 396 0 871 160 696 0 l 69 0 m 247 147 l 399 147 b 688 456 592 147 688 249 l 688 464 b 407 775 688 676 599 775 l 247 775 "},"Ď":{"ha":908,"x_min":0,"x_max":0,"o":"m 69 922 l 408 922 b 871 458 701 922 871 763 b 396 0 871 160 696 0 l 69 0 m 247 147 l 399 147 b 688 456 592 147 688 249 l 688 464 b 407 775 688 676 599 775 l 247 775 m 208 1193 l 325 1194 l 431 1085 l 535 1193 l 657 1196 l 504 993 l 361 988 "},"Đ":{"ha":922,"x_min":0,"x_max":0,"o":"m 426 922 b 885 458 717 922 885 763 b 414 0 885 160 711 0 l 86 0 l 86 394 l -7 394 l -7 529 l 86 529 l 86 922 m 415 147 b 700 456 607 147 700 249 l 700 464 b 424 775 700 676 613 775 l 265 775 l 265 529 l 465 529 l 465 394 l 265 394 l 265 147 "},"E":{"ha":793,"x_min":0,"x_max":0,"o":"m 572 399 l 243 399 l 243 151 l 753 151 l 753 0 l 69 0 l 69 922 l 738 922 l 738 771 l 243 771 l 243 550 l 572 550 "},"É":{"ha":793,"x_min":0,"x_max":0,"o":"m 572 399 l 243 399 l 243 151 l 753 151 l 753 0 l 69 0 l 69 922 l 738 922 l 738 771 l 243 771 l 243 550 l 572 550 m 650 1181 l 424 992 l 333 992 l 457 1196 l 650 1196 "},"Ĕ":{"ha":793,"x_min":0,"x_max":0,"o":"m 572 399 l 243 399 l 243 151 l 753 151 l 753 0 l 69 0 l 69 922 l 738 922 l 738 771 l 243 771 l 243 550 l 572 550 m 426 992 b 214 1197 289 992 207 1071 l 338 1204 b 426 1096 338 1133 364 1096 b 511 1204 486 1096 513 1133 l 636 1197 b 426 992 643 1071 561 992 "},"Ě":{"ha":793,"x_min":0,"x_max":0,"o":"m 572 399 l 243 399 l 243 151 l 753 151 l 753 0 l 69 0 l 69 922 l 738 922 l 738 771 l 243 771 l 243 550 l 572 550 m 206 1193 l 322 1194 l 428 1085 l 532 1193 l 654 1196 l 501 993 l 358 988 "},"Ê":{"ha":793,"x_min":0,"x_max":0,"o":"m 572 399 l 243 399 l 243 151 l 753 151 l 753 0 l 69 0 l 69 922 l 738 922 l 738 771 l 243 771 l 243 550 l 572 550 m 650 992 l 531 992 l 428 1099 l 322 992 l 206 992 l 354 1193 l 500 1193 "},"Ë":{"ha":793,"x_min":0,"x_max":0,"o":"m 572 399 l 243 399 l 243 151 l 753 151 l 753 0 l 69 0 l 69 922 l 738 922 l 738 771 l 243 771 l 243 550 l 572 550 m 372 1003 l 219 1003 l 219 1171 l 372 1171 m 632 1003 l 479 1003 l 479 1171 l 632 1171 "},"Ė":{"ha":793,"x_min":0,"x_max":0,"o":"m 572 399 l 243 399 l 243 151 l 753 151 l 753 0 l 69 0 l 69 922 l 738 922 l 738 771 l 243 771 l 243 550 l 572 550 m 515 1003 l 335 1003 l 335 1171 l 515 1171 "},"È":{"ha":793,"x_min":0,"x_max":0,"o":"m 572 399 l 243 399 l 243 151 l 753 151 l 753 0 l 69 0 l 69 922 l 738 922 l 738 771 l 243 771 l 243 550 l 572 550 m 354 1196 l 479 992 l 388 992 l 161 1181 l 161 1196 "},"Ē":{"ha":793,"x_min":0,"x_max":0,"o":"m 572 399 l 243 399 l 243 151 l 753 151 l 753 0 l 69 0 l 69 922 l 738 922 l 738 771 l 243 771 l 243 550 l 572 550 m 631 1024 l 219 1024 l 219 1144 l 631 1144 "},"Ŋ":{"ha":917,"x_min":0,"x_max":0,"o":"m 497 -122 l 610 -122 b 682 -56 660 -122 682 -100 l 682 -3 l 236 676 l 236 0 l 71 0 l 71 922 l 272 922 l 679 297 l 679 922 l 846 922 l 846 15 b 640 -264 846 -150 810 -264 l 497 -264 "},"Ę":{"ha":794,"x_min":0,"x_max":0,"o":"m 672 -286 b 499 -154 565 -286 499 -229 b 613 0 499 -89 544 -36 l 69 0 l 69 922 l 738 922 l 738 771 l 243 771 l 243 550 l 572 550 l 572 399 l 243 399 l 243 151 l 753 151 l 753 0 l 749 0 b 635 -112 671 -33 635 -69 b 699 -164 635 -146 656 -164 b 756 -157 728 -164 744 -161 l 756 -274 b 672 -286 733 -281 707 -286 "},"Ð":{"ha":922,"x_min":0,"x_max":0,"o":"m 426 922 b 885 458 717 922 885 763 b 414 0 885 160 711 0 l 86 0 l 86 394 l -7 394 l -7 529 l 86 529 l 86 922 m 415 147 b 700 456 607 147 700 249 l 700 464 b 424 775 700 676 613 775 l 265 775 l 265 529 l 465 529 l 465 394 l 265 394 l 265 147 "},"€":{"ha":904,"x_min":0,"x_max":0,"o":"m 533 310 l 290 310 b 494 133 310 186 375 133 b 708 331 615 133 689 189 l 885 326 b 489 -18 856 90 697 -18 b 113 310 272 -18 149 93 l 25 310 l 25 392 l 103 392 b 101 457 101 413 101 435 l 101 483 l 25 483 l 25 565 l 107 565 b 500 940 136 806 268 940 b 881 614 708 940 846 835 l 704 608 b 500 790 681 738 618 790 b 286 565 364 790 297 719 l 631 565 l 631 483 l 285 483 l 285 403 l 285 392 l 533 392 "},"F":{"ha":754,"x_min":0,"x_max":0,"o":"m 593 371 l 246 371 l 246 0 l 69 0 l 69 922 l 707 922 l 707 771 l 246 771 l 246 522 l 593 522 "},"G":{"ha":953,"x_min":0,"x_max":0,"o":"m 728 126 b 460 -18 675 35 582 -18 b 40 447 207 -18 40 164 b 483 940 40 750 221 940 b 882 614 701 940 849 828 l 699 614 b 482 782 676 731 601 782 b 221 453 326 782 221 661 l 221 439 b 483 135 221 247 321 135 b 704 314 597 135 692 201 l 500 314 l 500 460 l 885 460 l 885 0 l 728 0 "},"Ğ":{"ha":953,"x_min":0,"x_max":0,"o":"m 728 126 b 460 -18 675 35 582 -18 b 40 447 207 -18 40 164 b 483 940 40 750 221 940 b 882 614 701 940 849 828 l 699 614 b 482 782 676 731 601 782 b 221 453 326 782 221 661 l 221 439 b 483 135 221 247 321 135 b 704 314 597 135 692 201 l 500 314 l 500 460 l 885 460 l 885 0 l 728 0 m 488 992 b 275 1197 350 992 268 1071 l 399 1204 b 488 1096 399 1133 425 1096 b 572 1204 547 1096 574 1133 l 697 1197 b 488 992 704 1071 622 992 "},"Ĝ":{"ha":953,"x_min":0,"x_max":0,"o":"m 728 126 b 460 -18 675 35 582 -18 b 40 447 207 -18 40 164 b 483 940 40 750 221 940 b 882 614 701 940 849 828 l 699 614 b 482 782 676 731 601 782 b 221 453 326 782 221 661 l 221 439 b 483 135 221 247 321 135 b 704 314 597 135 692 201 l 500 314 l 500 460 l 885 460 l 885 0 l 728 0 m 711 992 l 592 992 l 489 1099 l 383 992 l 267 992 l 415 1193 l 561 1193 "},"Ģ":{"ha":953,"x_min":0,"x_max":0,"o":"m 728 126 b 460 -18 675 35 582 -18 b 40 447 207 -18 40 164 b 483 940 40 750 221 940 b 882 614 701 940 849 828 l 699 614 b 482 782 676 731 601 782 b 221 453 326 782 221 661 l 221 439 b 483 135 221 247 321 135 b 704 314 597 135 692 201 l 500 314 l 500 460 l 885 460 l 885 0 l 728 0 m 371 -361 b 451 -243 422 -337 450 -296 l 382 -243 l 382 -93 l 563 -93 l 563 -232 b 376 -376 563 -307 500 -376 "},"Ġ":{"ha":953,"x_min":0,"x_max":0,"o":"m 728 126 b 460 -18 675 35 582 -18 b 40 447 207 -18 40 164 b 483 940 40 750 221 940 b 882 614 701 940 849 828 l 699 614 b 482 782 676 731 601 782 b 221 453 326 782 221 661 l 221 439 b 483 135 221 247 321 135 b 704 314 597 135 692 201 l 500 314 l 500 460 l 885 460 l 885 0 l 728 0 m 576 1003 l 396 1003 l 396 1171 l 576 1171 "},"H":{"ha":907,"x_min":0,"x_max":0,"o":"m 836 0 l 660 0 l 660 393 l 246 393 l 246 0 l 69 0 l 69 922 l 246 922 l 246 543 l 660 543 l 660 922 l 836 922 "},"Ħ":{"ha":943,"x_min":0,"x_max":0,"o":"m 858 792 l 940 792 l 940 664 l 858 664 l 858 0 l 682 0 l 682 338 l 261 338 l 261 0 l 85 0 l 85 664 l 3 664 l 3 792 l 85 792 l 85 922 l 261 922 l 261 792 l 682 792 l 682 922 l 858 922 m 261 488 l 682 488 l 682 664 l 261 664 "},"Ĥ":{"ha":907,"x_min":0,"x_max":0,"o":"m 836 0 l 660 0 l 660 393 l 246 393 l 246 0 l 69 0 l 69 922 l 246 922 l 246 543 l 660 543 l 660 922 l 836 922 m 678 992 l 558 992 l 456 1099 l 350 992 l 233 992 l 382 1193 l 528 1193 "},"I":{"ha":329,"x_min":0,"x_max":0,"o":"m 253 0 l 76 0 l 76 922 l 253 922 "},"Ĳ":{"ha":1049,"x_min":0,"x_max":0,"o":"m 253 0 l 76 0 l 76 922 l 253 922 m 668 -18 b 354 275 464 -18 367 100 l 528 300 b 665 133 535 186 574 133 b 806 301 767 133 806 181 l 806 922 l 982 922 l 982 304 b 668 -18 982 86 881 -18 "},"Í":{"ha":329,"x_min":0,"x_max":0,"o":"m 253 0 l 76 0 l 76 922 l 253 922 m 371 1181 l 189 992 l 107 992 l 190 1196 l 371 1196 "},"Ĭ":{"ha":329,"x_min":0,"x_max":0,"o":"m 253 0 l 76 0 l 76 922 l 253 922 m 167 992 b -46 1197 29 992 -53 1071 l 78 1204 b 167 1096 78 1133 104 1096 b 251 1204 226 1096 253 1133 l 376 1197 b 167 992 383 1071 301 992 "},"Î":{"ha":329,"x_min":0,"x_max":0,"o":"m 253 0 l 76 0 l 76 922 l 253 922 m 390 992 l 271 992 l 168 1099 l 63 992 l -54 992 l 94 1193 l 240 1193 "},"Ï":{"ha":329,"x_min":0,"x_max":0,"o":"m 253 0 l 76 0 l 76 922 l 253 922 m 131 1003 l -22 1003 l -22 1171 l 131 1171 m 353 1003 l 200 1003 l 200 1171 l 353 1171 "},"İ":{"ha":329,"x_min":0,"x_max":0,"o":"m 253 0 l 76 0 l 76 922 l 253 922 m 256 1003 l 75 1003 l 75 1171 l 256 1171 "},"Ì":{"ha":329,"x_min":0,"x_max":0,"o":"m 253 0 l 76 0 l 76 922 l 253 922 m -47 1181 l -47 1196 l 133 1196 l 218 992 l 136 992 "},"Ī":{"ha":329,"x_min":0,"x_max":0,"o":"m 253 0 l 76 0 l 76 922 l 253 922 m 371 1024 l -40 1024 l -40 1144 l 371 1144 "},"Į":{"ha":329,"x_min":0,"x_max":0,"o":"m 253 0 l 250 0 b 135 -112 172 -33 135 -69 b 200 -164 135 -146 156 -164 b 256 -157 229 -164 246 -161 l 256 -274 b 172 -286 235 -281 208 -286 b -1 -154 67 -286 -1 -229 b 113 0 -1 -89 44 -36 l 76 0 l 76 922 l 253 922 "},"Ĩ":{"ha":329,"x_min":0,"x_max":0,"o":"m 253 0 l 76 0 l 76 922 l 253 922 m -49 1014 b -49 1053 -50 1022 -49 1044 b 72 1186 -43 1154 19 1186 b 243 1111 178 1186 183 1111 b 286 1150 267 1111 276 1128 b 293 1178 288 1153 293 1169 l 378 1167 b 376 1128 379 1160 378 1135 b 257 994 371 1026 310 994 b 88 1069 156 994 149 1069 b 43 1029 64 1069 53 1056 b 38 1006 40 1024 38 1010 "},"J":{"ha":719,"x_min":0,"x_max":0,"o":"m 339 -18 b 25 275 135 -18 38 100 l 199 300 b 336 133 206 186 244 133 b 476 301 438 133 476 181 l 476 922 l 653 922 l 653 304 b 339 -18 653 86 551 -18 "},"Ĵ":{"ha":719,"x_min":0,"x_max":0,"o":"m 339 -18 b 25 275 135 -18 38 100 l 199 300 b 336 133 206 186 244 133 b 476 301 438 133 476 181 l 476 922 l 653 922 l 653 304 b 339 -18 653 86 551 -18 m 785 992 l 665 992 l 563 1099 l 457 992 l 340 992 l 489 1193 l 635 1193 "},"K":{"ha":869,"x_min":0,"x_max":0,"o":"m 246 440 l 643 922 l 836 922 l 528 549 l 850 0 l 653 0 l 407 422 l 246 231 l 246 0 l 69 0 l 69 922 l 246 922 "},"Ķ":{"ha":869,"x_min":0,"x_max":0,"o":"m 246 440 l 643 922 l 836 922 l 528 549 l 850 0 l 653 0 l 407 422 l 246 231 l 246 0 l 69 0 l 69 922 l 246 922 m 332 -361 b 413 -243 383 -337 411 -296 l 343 -243 l 343 -93 l 524 -93 l 524 -232 b 338 -376 524 -307 461 -376 "},"L":{"ha":708,"x_min":0,"x_max":0,"o":"m 246 151 l 663 151 l 663 0 l 69 0 l 69 922 l 246 922 "},"Ĺ":{"ha":708,"x_min":0,"x_max":0,"o":"m 246 151 l 663 151 l 663 0 l 69 0 l 69 922 l 246 922 m 425 1181 l 199 992 l 108 992 l 232 1196 l 425 1196 "},"Ľ":{"ha":708,"x_min":0,"x_max":0,"o":"m 246 151 l 663 151 l 663 0 l 69 0 l 69 922 l 246 922 m 414 933 l 553 933 l 553 910 l 514 704 l 400 704 "},"Ļ":{"ha":708,"x_min":0,"x_max":0,"o":"m 246 151 l 663 151 l 663 0 l 69 0 l 69 922 l 246 922 m 265 -361 b 346 -243 317 -337 344 -296 l 276 -243 l 276 -93 l 457 -93 l 457 -232 b 271 -376 457 -307 394 -376 "},"Ŀ":{"ha":713,"x_min":0,"x_max":0,"o":"m 246 151 l 663 151 l 663 0 l 69 0 l 69 922 l 246 922 m 614 422 l 425 422 l 425 614 l 614 614 "},"Ł":{"ha":751,"x_min":0,"x_max":0,"o":"m 290 578 l 497 663 l 497 522 l 290 438 l 290 151 l 707 151 l 707 0 l 114 0 l 114 367 l 19 329 l 19 471 l 114 508 l 114 922 l 290 922 "},"M":{"ha":1131,"x_min":0,"x_max":0,"o":"m 563 249 l 778 922 l 1061 922 l 1061 0 l 888 0 l 888 769 l 632 0 l 482 0 l 236 764 l 236 0 l 69 0 l 69 922 l 363 922 "},"N":{"ha":914,"x_min":0,"x_max":0,"o":"m 678 299 l 678 922 l 844 922 l 844 0 l 676 0 l 236 674 l 236 0 l 69 0 l 69 922 l 269 922 "},"\u0000":{"ha":0,"x_min":0,"x_max":0,"o":""},"Ń":{"ha":914,"x_min":0,"x_max":0,"o":"m 678 299 l 678 922 l 844 922 l 844 0 l 676 0 l 236 674 l 236 0 l 69 0 l 69 922 l 269 922 m 721 1181 l 494 992 l 404 992 l 528 1196 l 721 1196 "},"Ň":{"ha":914,"x_min":0,"x_max":0,"o":"m 678 299 l 678 922 l 844 922 l 844 0 l 676 0 l 236 674 l 236 0 l 69 0 l 69 922 l 269 922 m 239 1193 l 356 1194 l 461 1085 l 565 1193 l 688 1196 l 535 993 l 392 988 "},"Ņ":{"ha":914,"x_min":0,"x_max":0,"o":"m 678 299 l 678 922 l 844 922 l 844 0 l 676 0 l 236 674 l 236 0 l 69 0 l 69 922 l 269 922 m 357 -361 b 438 -243 408 -337 436 -296 l 368 -243 l 368 -93 l 549 -93 l 549 -232 b 363 -376 549 -307 486 -376 "},"Ñ":{"ha":914,"x_min":0,"x_max":0,"o":"m 678 299 l 678 922 l 844 922 l 844 0 l 676 0 l 236 674 l 236 0 l 69 0 l 69 922 l 269 922 m 244 1014 b 244 1053 243 1022 244 1044 b 365 1186 250 1154 313 1186 b 536 1111 471 1186 476 1111 b 579 1150 560 1111 569 1128 b 586 1178 581 1153 586 1169 l 671 1167 b 669 1128 672 1160 671 1135 b 550 994 664 1026 603 994 b 381 1069 449 994 442 1069 b 336 1029 357 1069 346 1056 b 331 1006 333 1024 331 1010 "},"O":{"ha":992,"x_min":0,"x_max":0,"o":"m 494 136 b 767 458 663 136 767 254 l 767 465 b 497 786 767 667 665 786 b 225 465 329 786 225 669 l 225 458 b 494 136 225 257 326 136 m 492 -18 b 40 461 222 -18 40 176 b 500 940 40 744 224 940 b 951 461 769 940 951 746 b 492 -18 951 178 768 -18 "},"Œ":{"ha":1483,"x_min":0,"x_max":0,"o":"m 478 -18 b 40 463 217 -18 40 172 b 486 940 40 751 218 940 b 761 810 606 940 699 896 l 761 922 l 1414 922 l 1414 771 l 938 771 l 938 550 l 1268 550 l 1268 399 l 938 399 l 938 151 l 1442 151 l 1442 0 l 761 0 l 761 114 b 478 -18 697 28 600 -18 m 493 133 b 761 421 660 133 756 238 l 761 499 b 496 789 756 682 658 789 b 228 471 331 789 228 667 l 228 454 b 493 133 228 260 332 133 "},"Ó":{"ha":992,"x_min":0,"x_max":0,"o":"m 494 136 b 767 458 663 136 767 254 l 767 465 b 497 786 767 667 665 786 b 225 465 329 786 225 669 l 225 458 b 494 136 225 257 326 136 m 492 -18 b 40 461 222 -18 40 176 b 500 940 40 744 224 940 b 951 461 769 940 951 746 b 492 -18 951 178 768 -18 m 758 1181 l 532 992 l 442 992 l 565 1196 l 758 1196 "},"Ŏ":{"ha":992,"x_min":0,"x_max":0,"o":"m 494 136 b 767 458 663 136 767 254 l 767 465 b 497 786 767 667 665 786 b 225 465 329 786 225 669 l 225 458 b 494 136 225 257 326 136 m 492 -18 b 40 461 222 -18 40 176 b 500 940 40 744 224 940 b 951 461 769 940 951 746 b 492 -18 951 178 768 -18 m 497 992 b 285 1197 360 992 278 1071 l 408 1204 b 497 1096 408 1133 435 1096 b 582 1204 557 1096 583 1133 l 707 1197 b 497 992 714 1071 632 992 "},"Ô":{"ha":992,"x_min":0,"x_max":0,"o":"m 494 136 b 767 458 663 136 767 254 l 767 465 b 497 786 767 667 665 786 b 225 465 329 786 225 669 l 225 458 b 494 136 225 257 326 136 m 492 -18 b 40 461 222 -18 40 176 b 500 940 40 744 224 940 b 951 461 769 940 951 746 b 492 -18 951 178 768 -18 m 721 992 l 601 992 l 499 1099 l 393 992 l 276 992 l 425 1193 l 571 1193 "},"Ö":{"ha":992,"x_min":0,"x_max":0,"o":"m 494 136 b 767 458 663 136 767 254 l 767 465 b 497 786 767 667 665 786 b 225 465 329 786 225 669 l 225 458 b 494 136 225 257 326 136 m 492 -18 b 40 461 222 -18 40 176 b 500 940 40 744 224 940 b 951 461 769 940 951 746 b 492 -18 951 178 768 -18 m 443 1003 l 290 1003 l 290 1171 l 443 1171 m 703 1003 l 550 1003 l 550 1171 l 703 1171 "},"Ò":{"ha":992,"x_min":0,"x_max":0,"o":"m 494 136 b 767 458 663 136 767 254 l 767 465 b 497 786 767 667 665 786 b 225 465 329 786 225 669 l 225 458 b 494 136 225 257 326 136 m 492 -18 b 40 461 222 -18 40 176 b 500 940 40 744 224 940 b 951 461 769 940 951 746 b 492 -18 951 178 768 -18 m 425 1196 l 550 992 l 458 992 l 232 1181 l 232 1196 "},"Ơ":{"ha":1086,"x_min":0,"x_max":0,"o":"m 492 -18 b 40 461 222 -18 40 176 b 500 940 40 744 224 940 b 858 768 654 940 779 876 b 957 889 913 782 957 817 b 890 996 957 946 929 974 l 972 1093 b 1089 906 1063 1049 1089 974 b 908 681 1089 782 1000 708 b 951 461 936 617 951 543 b 492 -18 951 178 768 -18 m 494 136 b 767 458 663 136 767 254 l 767 465 b 497 786 767 667 665 786 b 225 465 329 786 225 669 l 225 458 b 494 136 225 257 326 136 "},"Ő":{"ha":992,"x_min":0,"x_max":0,"o":"m 494 136 b 767 458 663 136 767 254 l 767 465 b 497 786 767 667 665 786 b 225 465 329 786 225 669 l 225 458 b 494 136 225 257 326 136 m 492 -18 b 40 461 222 -18 40 176 b 500 940 40 744 224 940 b 951 461 769 940 951 746 b 492 -18 951 178 768 -18 m 600 1182 l 406 993 l 332 993 l 436 1199 l 600 1199 m 872 1182 l 663 993 l 586 993 l 706 1199 l 872 1199 "},"Ō":{"ha":992,"x_min":0,"x_max":0,"o":"m 494 136 b 767 458 663 136 767 254 l 767 465 b 497 786 767 667 665 786 b 225 465 329 786 225 669 l 225 458 b 494 136 225 257 326 136 m 492 -18 b 40 461 222 -18 40 176 b 500 940 40 744 224 940 b 951 461 769 940 951 746 b 492 -18 951 178 768 -18 m 701 1024 l 290 1024 l 290 1144 l 701 1144 "},"Ø":{"ha":989,"x_min":0,"x_max":0,"o":"m 490 -18 b 210 69 379 -18 283 13 l 147 0 l 28 0 l 146 131 b 35 461 75 214 35 328 b 500 940 35 744 218 940 b 788 846 614 940 711 906 l 857 922 l 975 922 l 850 783 b 956 461 918 700 956 590 b 490 -18 956 178 772 -18 m 217 456 b 261 257 217 375 232 308 l 681 725 b 497 790 635 767 572 790 b 217 465 321 790 217 674 l 217 456 m 494 132 b 774 457 669 132 774 250 l 774 468 b 733 657 774 543 760 607 l 315 190 b 494 132 361 153 421 132 "},"Ǿ":{"ha":989,"x_min":0,"x_max":0,"o":"m 490 -18 b 210 69 379 -18 283 13 l 147 0 l 28 0 l 146 131 b 35 461 75 214 35 328 b 500 940 35 744 218 940 b 788 846 614 940 711 906 l 857 922 l 975 922 l 850 783 b 956 461 918 700 956 590 b 490 -18 956 178 772 -18 m 217 456 b 261 257 217 375 232 308 l 681 725 b 497 790 635 767 572 790 b 217 465 321 790 217 674 l 217 456 m 494 132 b 774 457 669 132 774 250 l 774 468 b 733 657 774 543 760 607 l 315 190 b 494 132 361 153 421 132 m 763 1181 l 536 992 l 446 992 l 569 1196 l 763 1196 "},"Õ":{"ha":992,"x_min":0,"x_max":0,"o":"m 494 136 b 767 458 663 136 767 254 l 767 465 b 497 786 767 667 665 786 b 225 465 329 786 225 669 l 225 458 b 494 136 225 257 326 136 m 492 -18 b 40 461 222 -18 40 176 b 500 940 40 744 224 940 b 951 461 769 940 951 746 b 492 -18 951 178 768 -18 m 282 1014 b 282 1053 281 1022 282 1044 b 403 1186 288 1154 350 1186 b 574 1111 508 1186 514 1111 b 617 1150 597 1111 607 1128 b 624 1178 618 1153 624 1169 l 708 1167 b 707 1128 710 1160 708 1135 b 588 994 701 1026 640 994 b 418 1069 486 994 479 1069 b 374 1029 394 1069 383 1056 b 368 1006 371 1024 368 1010 "},"P":{"ha":804,"x_min":0,"x_max":0,"o":"m 378 922 b 758 625 635 922 758 824 b 371 324 758 428 628 324 l 246 324 l 246 0 l 69 0 l 69 922 m 246 464 l 371 464 b 582 625 521 465 582 513 b 374 781 582 735 522 781 l 246 781 "},"Q":{"ha":996,"x_min":0,"x_max":0,"o":"m 708 -175 b 540 -47 667 -96 621 -47 b 425 -135 478 -47 438 -94 l 317 -135 b 404 -11 336 -85 365 -43 b 40 458 182 25 40 201 b 500 940 40 747 222 940 b 951 458 771 940 951 747 b 701 24 951 250 858 94 b 914 -175 786 -7 854 -75 l 708 -175 m 494 131 b 767 451 667 131 767 249 l 767 465 b 497 786 767 665 665 786 b 225 465 325 786 225 668 l 225 451 b 494 131 225 251 326 131 "},"R":{"ha":853,"x_min":0,"x_max":0,"o":"m 421 922 b 786 665 681 922 786 817 b 564 411 786 535 704 436 b 799 44 706 371 772 261 b 804 0 799 40 803 3 l 617 0 b 615 33 617 0 615 31 b 343 338 593 224 524 336 l 243 338 l 243 0 l 69 0 l 69 922 m 243 471 l 400 472 b 608 644 556 472 608 565 b 410 781 608 733 553 781 l 243 781 "},"Ŕ":{"ha":864,"x_min":0,"x_max":0,"o":"m 421 922 b 786 665 681 922 786 817 b 564 411 786 535 704 436 b 799 44 706 371 772 261 b 804 0 799 40 803 3 l 617 0 b 615 33 617 0 615 31 b 343 338 593 224 524 336 l 243 338 l 243 0 l 69 0 l 69 922 m 243 471 l 400 472 b 608 644 556 472 608 565 b 410 781 608 733 553 781 l 243 781 m 651 1181 l 425 992 l 335 992 l 458 1196 l 651 1196 "},"Ř":{"ha":864,"x_min":0,"x_max":0,"o":"m 421 922 b 786 665 681 922 786 817 b 564 411 786 535 704 436 b 799 44 706 371 772 261 b 804 0 799 40 803 3 l 617 0 b 615 33 617 0 615 31 b 343 338 593 224 524 336 l 243 338 l 243 0 l 69 0 l 69 922 m 243 471 l 400 472 b 608 644 556 472 608 565 b 410 781 608 733 553 781 l 243 781 m 219 1193 l 336 1194 l 442 1085 l 546 1193 l 668 1196 l 515 993 l 372 988 "},"Ŗ":{"ha":864,"x_min":0,"x_max":0,"o":"m 421 922 b 786 665 681 922 786 817 b 564 411 786 535 704 436 b 799 44 706 371 772 261 b 804 0 799 40 803 3 l 617 0 b 615 33 617 0 615 31 b 343 338 593 224 524 336 l 243 338 l 243 0 l 69 0 l 69 922 m 243 471 l 400 472 b 608 644 556 472 608 565 b 410 781 608 733 553 781 l 243 781 m 339 -361 b 419 -243 390 -337 418 -296 l 350 -243 l 350 -93 l 531 -93 l 531 -232 b 344 -376 531 -307 468 -376 "},"S":{"ha":807,"x_min":0,"x_max":0,"o":"m 428 -15 b 22 299 183 -15 53 103 l 204 299 b 421 132 226 179 289 132 b 596 264 532 132 596 181 b 367 389 596 344 493 364 b 47 653 214 419 47 469 b 389 940 47 821 192 940 b 768 629 607 940 746 829 l 589 629 b 388 793 574 742 508 793 b 222 665 285 793 222 743 b 464 540 222 578 338 565 b 772 278 615 511 772 464 b 428 -15 772 101 642 -15 "},"Ś":{"ha":807,"x_min":0,"x_max":0,"o":"m 428 -15 b 22 299 183 -15 53 103 l 204 299 b 421 132 226 179 289 132 b 596 264 532 132 596 181 b 367 389 596 344 493 364 b 47 653 214 419 47 469 b 389 940 47 821 192 940 b 768 629 607 940 746 829 l 589 629 b 388 793 574 742 508 793 b 222 665 285 793 222 743 b 464 540 222 578 338 565 b 772 278 615 511 772 464 b 428 -15 772 101 642 -15 m 668 1181 l 442 992 l 351 992 l 475 1196 l 668 1196 "},"Š":{"ha":807,"x_min":0,"x_max":0,"o":"m 428 -15 b 22 299 183 -15 53 103 l 204 299 b 421 132 226 179 289 132 b 596 264 532 132 596 181 b 367 389 596 344 493 364 b 47 653 214 419 47 469 b 389 940 47 821 192 940 b 768 629 607 940 746 829 l 589 629 b 388 793 574 742 508 793 b 222 665 285 793 222 743 b 464 540 222 578 338 565 b 772 278 615 511 772 464 b 428 -15 772 101 642 -15 m 186 1193 l 303 1194 l 408 1085 l 513 1193 l 635 1196 l 482 993 l 339 988 "},"Ş":{"ha":807,"x_min":0,"x_max":0,"o":"m 382 -286 b 285 -271 342 -286 306 -278 l 285 -153 b 346 -162 299 -157 317 -162 b 413 -111 392 -162 413 -146 b 307 -4 413 -67 376 -31 b 22 299 139 29 47 138 l 204 299 b 421 132 226 179 289 132 b 596 264 532 132 596 181 b 367 389 596 344 493 364 b 47 653 214 419 47 469 b 389 940 47 821 192 940 b 768 629 607 940 746 829 l 589 629 b 388 793 574 742 508 793 b 222 665 285 793 222 743 b 464 540 222 578 338 565 b 772 278 615 511 772 464 b 463 -14 772 111 656 -1 b 547 -153 519 -49 547 -96 b 382 -286 547 -228 497 -286 "},"Ŝ":{"ha":807,"x_min":0,"x_max":0,"o":"m 428 -15 b 22 299 183 -15 53 103 l 204 299 b 421 132 226 179 289 132 b 596 264 532 132 596 181 b 367 389 596 344 493 364 b 47 653 214 419 47 469 b 389 940 47 821 192 940 b 768 629 607 940 746 829 l 589 629 b 388 793 574 742 508 793 b 222 665 285 793 222 743 b 464 540 222 578 338 565 b 772 278 615 511 772 464 b 428 -15 772 101 642 -15 m 631 992 l 511 992 l 408 1099 l 303 992 l 186 992 l 335 1193 l 481 1193 "},"Ș":{"ha":807,"x_min":0,"x_max":0,"o":"m 428 -15 b 22 299 183 -15 53 103 l 204 299 b 421 132 226 179 289 132 b 596 264 532 132 596 181 b 367 389 596 344 493 364 b 47 653 214 419 47 469 b 389 940 47 821 192 940 b 768 629 607 940 746 829 l 589 629 b 388 793 574 742 508 793 b 222 665 285 793 222 743 b 464 540 222 578 338 565 b 772 278 615 511 772 464 b 428 -15 772 101 642 -15 m 296 -361 b 376 -243 347 -337 375 -296 l 307 -243 l 307 -93 l 488 -93 l 488 -232 b 301 -376 488 -307 425 -376 "},"T":{"ha":797,"x_min":0,"x_max":0,"o":"m 768 771 l 488 771 l 488 0 l 311 0 l 311 771 l 31 771 l 31 922 l 768 922 "},"Ŧ":{"ha":797,"x_min":0,"x_max":0,"o":"m 768 771 l 486 771 l 486 529 l 697 529 l 697 379 l 486 379 l 486 0 l 299 0 l 299 379 l 90 379 l 90 529 l 299 529 l 299 771 l 31 771 l 31 922 l 768 922 "},"Ť":{"ha":797,"x_min":0,"x_max":0,"o":"m 768 771 l 488 771 l 488 0 l 311 0 l 311 771 l 31 771 l 31 922 l 768 922 m 179 1193 l 296 1194 l 401 1085 l 506 1193 l 628 1196 l 475 993 l 332 988 "},"Þ":{"ha":813,"x_min":0,"x_max":0,"o":"m 256 763 l 390 763 b 772 465 649 763 772 663 b 386 164 772 268 640 164 l 256 164 l 256 0 l 76 0 l 76 922 l 256 922 m 256 304 l 385 304 b 592 465 532 304 592 351 b 386 619 592 574 535 619 l 256 619 "},"U":{"ha":892,"x_min":0,"x_max":0,"o":"m 450 -18 b 68 372 200 -18 68 119 l 68 922 l 244 922 l 244 374 b 451 133 244 213 311 133 b 656 371 594 133 656 208 l 656 922 l 824 922 l 824 371 b 450 -18 824 110 679 -18 "},"Ú":{"ha":892,"x_min":0,"x_max":0,"o":"m 450 -18 b 68 372 200 -18 68 119 l 68 922 l 244 922 l 244 374 b 451 133 244 213 311 133 b 656 371 594 133 656 208 l 656 922 l 824 922 l 824 371 b 450 -18 824 110 679 -18 m 710 1181 l 483 992 l 393 992 l 517 1196 l 710 1196 "},"Ŭ":{"ha":892,"x_min":0,"x_max":0,"o":"m 450 -18 b 68 372 200 -18 68 119 l 68 922 l 244 922 l 244 374 b 451 133 244 213 311 133 b 656 371 594 133 656 208 l 656 922 l 824 922 l 824 371 b 450 -18 824 110 679 -18 m 449 992 b 236 1197 311 992 229 1071 l 360 1204 b 449 1096 360 1133 386 1096 b 533 1204 508 1096 535 1133 l 658 1197 b 449 992 665 1071 583 992 "},"Û":{"ha":892,"x_min":0,"x_max":0,"o":"m 450 -18 b 68 372 200 -18 68 119 l 68 922 l 244 922 l 244 374 b 451 133 244 213 311 133 b 656 371 594 133 656 208 l 656 922 l 824 922 l 824 371 b 450 -18 824 110 679 -18 m 672 992 l 553 992 l 450 1099 l 344 992 l 228 992 l 376 1193 l 522 1193 "},"Ü":{"ha":892,"x_min":0,"x_max":0,"o":"m 450 -18 b 68 372 200 -18 68 119 l 68 922 l 244 922 l 244 374 b 451 133 244 213 311 133 b 656 371 594 133 656 208 l 656 922 l 824 922 l 824 371 b 450 -18 824 110 679 -18 m 394 1003 l 242 1003 l 242 1171 l 394 1171 m 654 1003 l 501 1003 l 501 1171 l 654 1171 "},"Ù":{"ha":892,"x_min":0,"x_max":0,"o":"m 450 -18 b 68 372 200 -18 68 119 l 68 922 l 244 922 l 244 374 b 451 133 244 213 311 133 b 656 371 594 133 656 208 l 656 922 l 824 922 l 824 371 b 450 -18 824 110 679 -18 m 376 1196 l 501 992 l 410 992 l 183 1181 l 183 1196 "},"Ư":{"ha":1072,"x_min":0,"x_max":0,"o":"m 450 -18 b 67 372 200 -18 67 119 l 67 922 l 243 922 l 243 374 b 451 133 243 213 311 133 b 654 371 594 133 654 208 l 654 922 l 824 922 l 824 779 b 944 904 888 789 944 822 b 876 1011 944 961 917 989 l 960 1108 b 1076 921 1050 1064 1076 989 b 824 685 1076 765 935 688 l 824 371 b 450 -18 824 110 679 -18 "},"Ű":{"ha":892,"x_min":0,"x_max":0,"o":"m 450 -18 b 68 372 200 -18 68 119 l 68 922 l 244 922 l 244 374 b 451 133 244 213 311 133 b 656 371 594 133 656 208 l 656 922 l 824 922 l 824 371 b 450 -18 824 110 679 -18 m 551 1182 l 357 993 l 283 993 l 388 1199 l 551 1199 m 824 1182 l 614 993 l 538 993 l 657 1199 l 824 1199 "},"Ū":{"ha":892,"x_min":0,"x_max":0,"o":"m 450 -18 b 68 372 200 -18 68 119 l 68 922 l 244 922 l 244 374 b 451 133 244 213 311 133 b 656 371 594 133 656 208 l 656 922 l 824 922 l 824 371 b 450 -18 824 110 679 -18 m 653 1024 l 242 1024 l 242 1144 l 653 1144 "},"Ų":{"ha":892,"x_min":0,"x_max":0,"o":"m 506 -286 b 332 -154 399 -286 332 -229 b 417 -17 332 -99 364 -53 b 68 372 188 -6 68 131 l 68 922 l 244 922 l 244 374 b 451 133 244 213 311 133 b 656 371 594 133 656 208 l 656 922 l 824 922 l 824 371 b 574 -3 824 160 729 36 b 467 -112 501 -36 467 -71 b 532 -164 467 -146 488 -164 b 588 -157 561 -164 578 -161 l 588 -274 b 506 -286 567 -281 540 -286 "},"Ů":{"ha":892,"x_min":0,"x_max":0,"o":"m 450 -18 b 68 372 200 -18 68 119 l 68 922 l 244 922 l 244 374 b 451 133 244 213 311 133 b 656 371 594 133 656 208 l 656 922 l 824 922 l 824 371 b 450 -18 824 110 679 -18 m 447 1060 b 515 1119 488 1060 515 1085 b 447 1182 515 1156 488 1182 b 382 1119 408 1182 382 1156 b 447 1060 382 1085 408 1060 m 447 983 b 290 1119 354 983 290 1039 b 447 1257 290 1201 354 1257 b 607 1119 542 1257 607 1201 b 447 983 607 1039 542 983 "},"Ũ":{"ha":892,"x_min":0,"x_max":0,"o":"m 450 -18 b 68 372 200 -18 68 119 l 68 922 l 244 922 l 244 374 b 451 133 244 213 311 133 b 656 371 594 133 656 208 l 656 922 l 824 922 l 824 371 b 450 -18 824 110 679 -18 m 233 1014 b 233 1053 232 1022 233 1044 b 354 1186 239 1154 301 1186 b 525 1111 460 1186 465 1111 b 568 1150 549 1111 558 1128 b 575 1178 569 1153 575 1169 l 660 1167 b 658 1128 661 1160 660 1135 b 539 994 653 1026 592 994 b 369 1069 438 994 431 1069 b 325 1029 346 1069 335 1056 b 319 1006 322 1024 319 1010 "},"V":{"ha":853,"x_min":0,"x_max":0,"o":"m 193 922 l 438 201 l 669 922 l 846 922 l 524 0 l 331 0 l 7 922 "},"W":{"ha":1253,"x_min":0,"x_max":0,"o":"m 15 922 l 207 922 l 361 257 l 542 922 l 717 922 l 896 256 l 1051 922 l 1238 922 l 978 0 l 808 0 l 625 674 l 440 0 l 269 0 "},"Ẃ":{"ha":1253,"x_min":0,"x_max":0,"o":"m 15 922 l 207 922 l 361 257 l 542 922 l 717 922 l 896 256 l 1051 922 l 1238 922 l 978 0 l 808 0 l 625 674 l 440 0 l 269 0 m 890 1181 l 664 992 l 574 992 l 697 1196 l 890 1196 "},"Ŵ":{"ha":1253,"x_min":0,"x_max":0,"o":"m 15 922 l 207 922 l 361 257 l 542 922 l 717 922 l 896 256 l 1051 922 l 1238 922 l 978 0 l 808 0 l 625 674 l 440 0 l 269 0 m 853 992 l 733 992 l 631 1099 l 525 992 l 408 992 l 557 1193 l 703 1193 "},"Ẅ":{"ha":1253,"x_min":0,"x_max":0,"o":"m 15 922 l 207 922 l 361 257 l 542 922 l 717 922 l 896 256 l 1051 922 l 1238 922 l 978 0 l 808 0 l 625 674 l 440 0 l 269 0 m 575 1003 l 422 1003 l 422 1171 l 575 1171 m 835 1003 l 682 1003 l 682 1171 l 835 1171 "},"Ẁ":{"ha":1253,"x_min":0,"x_max":0,"o":"m 15 922 l 207 922 l 361 257 l 542 922 l 717 922 l 896 256 l 1051 922 l 1238 922 l 978 0 l 808 0 l 625 674 l 440 0 l 269 0 m 557 1196 l 682 992 l 590 992 l 364 1181 l 364 1196 "},"X":{"ha":874,"x_min":0,"x_max":0,"o":"m 849 922 l 544 479 l 851 0 l 656 0 l 440 344 l 210 0 l 19 0 l 342 468 l 51 922 l 244 922 l 447 600 l 661 922 "},"Y":{"ha":860,"x_min":0,"x_max":0,"o":"m 853 922 l 518 415 l 518 0 l 342 0 l 342 417 l 10 922 l 210 922 l 436 567 l 661 922 "},"Ý":{"ha":860,"x_min":0,"x_max":0,"o":"m 853 922 l 518 415 l 518 0 l 342 0 l 342 417 l 10 922 l 210 922 l 436 567 l 661 922 m 694 1181 l 468 992 l 378 992 l 501 1196 l 694 1196 "},"Ŷ":{"ha":860,"x_min":0,"x_max":0,"o":"m 853 922 l 518 415 l 518 0 l 342 0 l 342 417 l 10 922 l 210 922 l 436 567 l 661 922 m 657 992 l 538 992 l 435 1099 l 329 992 l 213 992 l 361 1193 l 507 1193 "},"Ÿ":{"ha":860,"x_min":0,"x_max":0,"o":"m 853 922 l 518 415 l 518 0 l 342 0 l 342 417 l 10 922 l 210 922 l 436 567 l 661 922 m 379 1003 l 226 1003 l 226 1171 l 379 1171 m 639 1003 l 486 1003 l 486 1171 l 639 1171 "},"Ỳ":{"ha":860,"x_min":0,"x_max":0,"o":"m 853 922 l 518 415 l 518 0 l 342 0 l 342 417 l 10 922 l 210 922 l 436 567 l 661 922 m 361 1196 l 486 992 l 394 992 l 168 1181 l 168 1196 "},"Z":{"ha":818,"x_min":0,"x_max":0,"o":"m 63 774 l 63 922 l 767 922 l 767 786 l 257 149 l 768 149 l 768 0 l 50 0 l 50 136 l 553 774 "},"Ź":{"ha":818,"x_min":0,"x_max":0,"o":"m 63 774 l 63 922 l 767 922 l 767 786 l 257 149 l 768 149 l 768 0 l 50 0 l 50 136 l 553 774 m 671 1181 l 444 992 l 354 992 l 478 1196 l 671 1196 "},"Ž":{"ha":818,"x_min":0,"x_max":0,"o":"m 63 774 l 63 922 l 767 922 l 767 786 l 257 149 l 768 149 l 768 0 l 50 0 l 50 136 l 553 774 m 189 1193 l 306 1194 l 411 1085 l 515 1193 l 638 1196 l 485 993 l 342 988 "},"Ż":{"ha":818,"x_min":0,"x_max":0,"o":"m 63 774 l 63 922 l 767 922 l 767 786 l 257 149 l 768 149 l 768 0 l 50 0 l 50 136 l 553 774 m 499 1003 l 318 1003 l 318 1171 l 499 1171 "},"a":{"ha":697,"x_min":0,"x_max":0,"o":"m 263 -17 b 35 174 122 -17 35 60 b 292 386 35 321 144 354 b 478 451 413 410 474 415 l 478 458 b 354 533 478 497 443 533 b 219 431 265 533 224 489 l 219 421 l 49 421 b 356 668 54 569 171 668 b 642 413 533 668 642 590 l 642 0 l 476 0 l 476 89 b 263 -17 435 21 360 -17 m 303 107 b 478 271 385 107 474 149 l 478 326 b 325 279 440 304 379 293 b 208 182 258 263 208 240 b 303 107 208 138 243 107 "},"á":{"ha":697,"x_min":0,"x_max":0,"o":"m 263 -17 b 35 174 122 -17 35 60 b 292 386 35 321 144 354 b 478 451 413 410 474 415 l 478 458 b 354 533 478 497 443 533 b 219 431 265 533 224 489 l 219 421 l 49 421 b 356 668 54 569 171 668 b 642 413 533 668 642 590 l 642 0 l 476 0 l 476 89 b 263 -17 435 21 360 -17 m 303 107 b 478 271 385 107 474 149 l 478 326 b 325 279 440 304 379 293 b 208 182 258 263 208 240 b 303 107 208 138 243 107 m 615 932 l 388 742 l 300 742 l 422 949 l 615 949 "},"ă":{"ha":697,"x_min":0,"x_max":0,"o":"m 263 -17 b 35 174 122 -17 35 60 b 292 386 35 321 144 354 b 478 451 413 410 474 415 l 478 458 b 354 533 478 497 443 533 b 219 431 265 533 224 489 l 219 421 l 49 421 b 356 668 54 569 171 668 b 642 413 533 668 642 590 l 642 0 l 476 0 l 476 89 b 263 -17 435 21 360 -17 m 303 107 b 478 271 385 107 474 149 l 478 326 b 325 279 440 304 379 293 b 208 182 258 263 208 240 b 303 107 208 138 243 107 m 363 746 b 154 942 222 746 149 821 l 274 949 b 363 847 276 881 300 847 b 447 949 425 847 447 883 l 568 942 b 363 746 575 822 500 746 "},"â":{"ha":697,"x_min":0,"x_max":0,"o":"m 263 -17 b 35 174 122 -17 35 60 b 292 386 35 321 144 354 b 478 451 413 410 474 415 l 478 458 b 354 533 478 497 443 533 b 219 431 265 533 224 489 l 219 421 l 49 421 b 356 668 54 569 171 668 b 642 413 533 668 642 590 l 642 0 l 476 0 l 476 89 b 263 -17 435 21 360 -17 m 303 107 b 478 271 385 107 474 149 l 478 326 b 325 279 440 304 379 293 b 208 182 258 263 208 240 b 303 107 208 138 243 107 m 581 742 l 465 742 l 361 854 l 257 742 l 142 742 l 290 946 l 432 946 "},"´":{"ha":454,"x_min":0,"x_max":0,"o":"m 385 932 l 158 742 l 69 742 l 192 949 l 385 949 "},"ä":{"ha":697,"x_min":0,"x_max":0,"o":"m 263 -17 b 35 174 122 -17 35 60 b 292 386 35 321 144 354 b 478 451 413 410 474 415 l 478 458 b 354 533 478 497 443 533 b 219 431 265 533 224 489 l 219 421 l 49 421 b 356 668 54 569 171 668 b 642 413 533 668 642 590 l 642 0 l 476 0 l 476 89 b 263 -17 435 21 360 -17 m 303 107 b 478 271 385 107 474 149 l 478 326 b 325 279 440 304 379 293 b 208 182 258 263 208 240 b 303 107 208 138 243 107 m 308 751 l 157 751 l 157 919 l 308 919 m 567 751 l 415 751 l 415 919 l 567 919 "},"æ":{"ha":1135,"x_min":0,"x_max":0,"o":"m 793 -11 b 524 119 672 -11 579 36 b 267 -17 460 15 335 -17 b 35 179 136 -17 35 60 b 292 386 35 322 144 354 b 478 456 399 408 476 411 l 478 458 b 354 533 478 503 439 533 b 219 431 265 533 219 489 l 219 421 l 49 421 b 356 668 54 569 171 668 b 574 576 463 668 533 636 b 788 668 624 633 696 667 b 1104 329 985 668 1104 536 l 1104 271 l 629 271 b 794 124 640 176 701 124 b 954 225 892 124 933 169 l 1104 172 b 793 -11 1058 68 964 -11 m 310 107 b 475 236 376 107 456 139 b 465 321 469 263 465 290 b 208 186 381 282 208 283 b 310 107 208 144 243 107 m 785 535 b 626 390 701 535 639 481 l 932 390 b 785 535 925 486 874 535 "},"ǽ":{"ha":1132,"x_min":0,"x_max":0,"o":"m 793 -11 b 524 119 672 -11 579 36 b 267 -17 460 15 335 -17 b 35 179 136 -17 35 60 b 292 386 35 322 144 354 b 478 456 399 408 476 411 l 478 458 b 354 533 478 503 439 533 b 219 431 265 533 219 489 l 219 421 l 49 421 b 356 668 54 569 171 668 b 574 576 463 668 533 636 b 788 668 624 633 696 667 b 1104 329 985 668 1104 536 l 1104 271 l 629 271 b 794 124 640 176 701 124 b 954 225 892 124 933 169 l 1104 172 b 793 -11 1058 68 964 -11 m 310 107 b 475 236 376 107 456 139 b 465 321 469 263 465 290 b 208 186 381 282 208 283 b 310 107 208 144 243 107 m 785 535 b 626 390 701 535 639 481 l 932 390 b 785 535 925 486 874 535 m 813 932 l 585 742 l 497 742 l 619 949 l 813 949 "},"à":{"ha":697,"x_min":0,"x_max":0,"o":"m 263 -17 b 35 174 122 -17 35 60 b 292 386 35 321 144 354 b 478 451 413 410 474 415 l 478 458 b 354 533 478 497 443 533 b 219 431 265 533 224 489 l 219 421 l 49 421 b 356 668 54 569 171 668 b 642 413 533 668 642 590 l 642 0 l 476 0 l 476 89 b 263 -17 435 21 360 -17 m 303 107 b 478 271 385 107 474 149 l 478 326 b 325 279 440 304 379 293 b 208 182 258 263 208 240 b 303 107 208 138 243 107 m 283 949 l 406 742 l 318 742 l 90 932 l 90 949 "},"ā":{"ha":697,"x_min":0,"x_max":0,"o":"m 263 -17 b 35 174 122 -17 35 60 b 292 386 35 321 144 354 b 478 451 413 410 474 415 l 478 458 b 354 533 478 497 443 533 b 219 431 265 533 224 489 l 219 421 l 49 421 b 356 668 54 569 171 668 b 642 413 533 668 642 590 l 642 0 l 476 0 l 476 89 b 263 -17 435 21 360 -17 m 303 107 b 478 271 385 107 474 149 l 478 326 b 325 279 440 304 379 293 b 208 182 258 263 208 240 b 303 107 208 138 243 107 m 556 771 l 167 771 l 167 893 l 556 893 "},"&":{"ha":969,"x_min":0,"x_max":0,"o":"m 360 -19 b 35 267 157 -19 35 106 b 279 542 35 418 138 503 b 225 706 246 596 225 650 b 494 946 225 846 338 946 b 743 721 629 946 743 856 b 519 476 743 599 658 517 l 611 372 b 672 304 625 356 647 332 b 778 536 715 367 750 444 l 946 536 b 768 199 904 411 846 293 l 951 0 l 743 0 l 663 92 b 360 -19 575 22 474 -19 m 351 444 b 204 281 263 421 204 368 b 381 126 204 193 271 126 b 569 194 449 126 513 150 l 501 272 l 378 415 m 390 710 b 446 571 390 667 404 629 b 589 719 540 592 589 649 b 494 819 589 781 551 819 b 390 710 431 819 390 776 "},"ą":{"ha":697,"x_min":0,"x_max":0,"o":"m 561 -287 b 388 -154 454 -287 388 -229 b 500 0 388 -89 432 -36 l 476 0 l 476 90 b 263 -17 436 22 360 -17 b 35 174 122 -17 35 58 b 292 386 35 321 144 354 b 478 451 413 410 474 415 l 478 458 b 354 532 478 497 443 532 b 219 431 265 532 224 489 l 219 421 l 49 421 b 356 667 54 569 171 667 b 640 413 533 667 640 590 l 640 0 l 638 0 b 522 -112 560 -33 522 -69 b 588 -164 522 -146 544 -164 b 643 -157 617 -164 633 -161 l 643 -274 b 561 -287 622 -281 596 -287 m 303 107 b 478 271 385 107 472 149 l 478 326 b 325 279 440 304 379 293 b 208 182 258 263 208 240 b 303 107 208 138 243 107 "},"å":{"ha":697,"x_min":0,"x_max":0,"o":"m 263 -17 b 35 174 122 -17 35 60 b 292 386 35 321 144 354 b 478 451 413 410 474 415 l 478 458 b 354 533 478 497 443 533 b 219 431 265 533 224 489 l 219 421 l 49 421 b 356 668 54 569 171 668 b 642 413 533 668 642 590 l 642 0 l 476 0 l 476 89 b 263 -17 435 21 360 -17 m 303 107 b 478 271 385 107 474 149 l 478 326 b 325 279 440 304 379 293 b 208 182 258 263 208 240 b 303 107 208 138 243 107 m 361 819 b 424 883 397 819 424 846 b 361 947 424 919 397 947 b 300 883 325 947 300 919 b 361 819 300 846 325 819 m 361 743 b 210 883 268 743 210 800 b 361 1022 210 965 268 1022 b 514 883 454 1022 514 965 b 361 743 514 800 454 743 "},"ǻ":{"ha":697,"x_min":0,"x_max":0,"o":"m 263 -17 b 35 174 122 -17 35 60 b 292 386 35 321 144 354 b 478 451 413 410 474 415 l 478 458 b 354 533 478 497 443 533 b 219 431 265 533 224 489 l 219 421 l 49 421 b 356 668 54 569 171 668 b 642 413 533 668 642 590 l 642 0 l 476 0 l 476 89 b 263 -17 435 21 360 -17 m 361 743 b 211 882 269 743 211 800 b 346 1019 211 960 263 1014 l 413 1165 l 553 1165 l 553 1150 l 419 1013 b 514 882 478 993 514 946 b 361 743 514 800 454 743 m 303 107 b 478 271 385 107 474 149 l 478 326 b 325 279 440 304 379 293 b 208 182 258 263 208 240 b 303 107 208 138 243 107 m 361 819 b 424 882 397 819 424 846 b 361 946 424 918 397 946 b 300 882 326 946 300 918 b 361 819 300 846 326 819 "},"←":{"ha":1685,"x_min":0,"x_max":0,"o":"m 539 803 l 549 792 l 383 503 l 1028 503 l 1231 774 l 1649 774 l 1440 503 l 1569 519 l 1569 411 l 1442 431 l 1649 158 l 1231 158 l 1029 429 l 385 429 l 549 138 l 539 128 l 32 458 l 32 474 "},"→":{"ha":1685,"x_min":0,"x_max":0,"o":"m 657 429 l 456 158 l 33 158 l 243 431 l 114 411 l 114 519 l 243 503 l 35 774 l 456 774 l 658 503 l 1300 503 l 1135 792 b 1147 803 1133 799 1143 806 l 1653 474 l 1653 458 l 1147 128 b 1135 138 1143 125 1133 133 l 1299 429 "},"^":{"ha":635,"x_min":0,"x_max":0,"o":"m 261 922 l 371 922 l 574 290 l 433 290 l 315 681 l 203 290 l 61 290 "},"~":{"ha":658,"x_min":0,"x_max":0,"o":"m 53 386 b 57 442 53 394 57 435 b 214 618 58 563 140 618 b 435 493 354 618 367 493 b 489 557 461 493 489 517 b 494 593 489 561 494 589 l 606 582 b 601 526 606 575 601 532 b 447 353 600 408 521 353 b 228 476 307 353 296 476 b 172 417 200 476 183 453 b 167 375 171 413 167 383 l 53 386 "},"*":{"ha":558,"x_min":0,"x_max":0,"o":"m 26 589 l 192 667 l 31 740 l 90 846 l 239 742 l 219 922 l 342 922 l 324 742 l 468 846 l 528 740 l 365 665 l 532 589 l 471 482 l 324 586 l 342 406 l 219 406 l 239 588 l 88 482 "},"@":{"ha":1044,"x_min":0,"x_max":0,"o":"m 417 89 b 264 249 326 89 264 156 b 503 536 264 392 364 536 b 626 439 571 536 614 497 l 649 522 l 788 522 l 701 236 b 699 186 694 214 693 197 b 746 164 707 171 724 164 b 915 413 853 164 915 317 b 572 711 915 607 772 711 b 143 267 321 711 143 524 b 511 -81 143 53 283 -81 b 822 36 639 -81 744 -40 l 869 -24 b 507 -168 797 -118 643 -168 b 42 265 235 -168 42 -15 b 571 797 42 571 268 797 b 1013 422 818 797 1013 668 b 718 79 1013 224 861 79 b 572 186 625 79 582 119 b 417 89 538 131 482 89 m 474 183 b 600 367 539 183 600 279 b 531 442 600 410 572 442 b 404 258 464 442 404 353 b 474 183 404 214 433 183 "},"ã":{"ha":697,"x_min":0,"x_max":0,"o":"m 263 -17 b 35 174 122 -17 35 60 b 292 386 35 321 144 354 b 478 451 413 410 474 415 l 478 458 b 354 533 478 497 443 533 b 219 431 265 533 224 489 l 219 421 l 49 421 b 356 668 54 569 171 668 b 642 413 533 668 642 590 l 642 0 l 476 0 l 476 89 b 263 -17 435 21 360 -17 m 303 107 b 478 271 385 107 474 149 l 478 326 b 325 279 440 304 379 293 b 208 182 258 263 208 240 b 303 107 208 138 243 107 m 153 763 b 153 803 151 771 153 794 b 274 939 153 913 222 939 b 436 858 363 939 394 858 b 478 899 460 858 469 875 b 485 929 481 903 485 919 l 569 919 b 569 881 571 911 569 886 b 449 742 569 772 496 742 b 288 822 361 742 331 822 b 244 781 264 822 250 808 b 238 753 242 774 238 760 l 153 763 "},"b":{"ha":757,"x_min":0,"x_max":0,"o":"m 432 -14 b 232 85 349 -14 278 22 l 232 0 l 64 0 l 64 936 l 233 936 l 233 574 b 433 669 278 633 349 669 b 724 333 597 669 724 543 l 724 332 b 432 -14 724 119 599 -14 m 385 126 b 544 326 478 126 544 197 l 544 336 b 385 529 544 465 481 529 b 225 331 286 529 225 449 l 225 319 b 385 126 225 201 283 126 "},"\\":{"ha":568,"x_min":0,"x_max":0,"o":"m 554 0 l 388 0 l 14 922 l 181 922 "},"|":{"ha":306,"x_min":0,"x_max":0,"o":"m 236 -239 l 69 -239 l 69 922 l 236 922 "},"{":{"ha":513,"x_min":0,"x_max":0,"o":"m 390 -251 b 157 4 215 -251 157 -171 l 157 140 b 33 258 157 229 115 258 l 22 258 l 22 432 l 33 432 b 157 549 115 432 157 461 l 157 665 b 390 922 157 842 215 922 l 488 922 l 488 781 l 413 781 b 314 633 336 781 314 764 l 314 542 b 142 344 314 436 265 367 b 314 147 268 322 314 253 l 314 36 b 413 -110 314 -93 336 -110 l 488 -110 l 488 -251 "},"}":{"ha":513,"x_min":0,"x_max":0,"o":"m 101 -110 b 199 36 176 -110 199 -93 l 199 147 b 369 344 199 253 244 322 b 199 542 246 367 199 436 l 199 633 b 101 781 199 764 176 781 l 26 781 l 26 922 l 122 922 b 356 665 297 922 356 842 l 356 549 b 481 432 356 461 397 432 l 492 432 l 492 258 l 481 258 b 356 140 397 258 356 229 l 356 4 b 122 -251 356 -171 297 -251 l 26 -251 l 26 -110 "},"[":{"ha":467,"x_min":0,"x_max":0,"o":"m 442 782 l 222 782 l 222 -111 l 442 -111 l 442 -251 l 69 -251 l 69 922 l 442 922 "},"]":{"ha":467,"x_min":0,"x_max":0,"o":"m 243 782 l 25 782 l 25 922 l 397 922 l 397 -251 l 25 -251 l 25 -111 l 243 -111 "},"˘":{"ha":551,"x_min":0,"x_max":0,"o":"m 278 746 b 69 942 138 746 64 821 l 189 949 b 278 847 190 881 214 847 b 361 949 340 847 363 883 l 482 942 b 278 746 489 822 414 746 "},"¦":{"ha":307,"x_min":0,"x_max":0,"o":"m 238 -239 l 71 -239 l 71 297 l 238 297 m 236 386 l 69 386 l 69 922 l 236 922 "},"•":{"ha":454,"x_min":0,"x_max":0,"o":"m 382 211 l 72 211 l 72 526 l 382 526 "},"c":{"ha":682,"x_min":0,"x_max":0,"o":"m 358 -12 b 32 329 156 -12 32 126 b 363 668 32 526 167 668 b 660 458 521 668 615 585 l 497 408 b 361 528 478 481 442 528 b 204 331 265 528 204 446 l 204 325 b 356 128 204 210 260 128 b 504 254 449 128 485 175 l 667 207 b 358 -12 621 72 524 -12 "},"ć":{"ha":682,"x_min":0,"x_max":0,"o":"m 358 -12 b 32 329 156 -12 32 126 b 363 668 32 526 167 668 b 660 458 521 668 615 585 l 497 408 b 361 528 478 481 442 528 b 204 331 265 528 204 446 l 204 325 b 356 128 204 210 260 128 b 504 254 449 128 485 175 l 667 207 b 358 -12 621 72 524 -12 m 618 932 l 390 742 l 303 742 l 425 949 l 618 949 "},"ˇ":{"ha":578,"x_min":0,"x_max":0,"o":"m 289 835 l 393 946 l 508 946 l 360 743 l 218 743 l 69 946 l 183 946 "},"č":{"ha":682,"x_min":0,"x_max":0,"o":"m 358 -12 b 32 329 156 -12 32 126 b 363 668 32 526 167 668 b 660 458 521 668 615 585 l 497 408 b 361 528 478 481 442 528 b 204 331 265 528 204 446 l 204 325 b 356 128 204 210 260 128 b 504 254 449 128 485 175 l 667 207 b 358 -12 621 72 524 -12 m 364 835 l 468 946 l 583 946 l 435 743 l 293 743 l 144 946 l 260 946 "},"ç":{"ha":682,"x_min":0,"x_max":0,"o":"m 353 -286 b 256 -271 313 -286 278 -278 l 256 -153 b 317 -162 269 -157 289 -162 b 385 -111 364 -162 385 -146 b 279 -4 385 -67 349 -32 b 32 329 124 26 32 154 b 363 668 32 526 167 668 b 660 458 521 668 615 585 l 497 408 b 361 528 478 481 442 528 b 204 331 265 528 204 446 l 204 325 b 356 128 204 210 260 128 b 504 254 449 128 485 175 l 667 207 b 424 -7 626 90 550 13 b 519 -153 488 -44 519 -92 b 353 -286 519 -228 468 -286 "},"ĉ":{"ha":682,"x_min":0,"x_max":0,"o":"m 358 -12 b 32 329 156 -12 32 126 b 363 668 32 526 167 668 b 660 458 521 668 615 585 l 497 408 b 361 528 478 481 442 528 b 204 331 265 528 204 446 l 204 325 b 356 128 204 210 260 128 b 504 254 449 128 485 175 l 667 207 b 358 -12 621 72 524 -12 m 583 742 l 468 742 l 364 854 l 260 742 l 144 742 l 293 946 l 435 946 "},"ċ":{"ha":682,"x_min":0,"x_max":0,"o":"m 358 -12 b 32 329 156 -12 32 126 b 363 668 32 526 167 668 b 660 458 521 668 615 585 l 497 408 b 361 528 478 481 442 528 b 204 331 265 528 204 446 l 204 325 b 356 128 204 210 260 128 b 504 254 449 128 485 175 l 667 207 b 358 -12 621 72 524 -12 m 454 751 l 275 751 l 275 919 l 454 919 "},"¸":{"ha":36,"x_min":0,"x_max":0,"o":"m 1 -286 b -96 -271 -39 -286 -75 -278 l -96 -153 b -35 -162 -82 -157 -62 -162 b 32 -111 11 -162 32 -146 b -85 0 32 -64 -7 -28 l -39 36 b 167 -153 100 -1 167 -64 b 1 -286 167 -228 117 -286 "},"¢":{"ha":707,"x_min":0,"x_max":0,"o":"m 539 633 b 676 461 606 596 650 536 l 524 411 b 368 531 504 485 457 531 b 204 331 268 531 204 449 l 204 325 b 368 125 204 206 267 125 b 529 253 461 125 510 172 l 682 204 b 365 -18 636 68 532 -18 b 294 -11 340 -18 317 -15 l 251 -125 l 146 -125 l 201 21 b 31 329 97 78 31 189 b 368 674 31 529 174 674 b 446 667 396 674 421 671 l 489 790 l 593 790 "},"ˆ":{"ha":578,"x_min":0,"x_max":0,"o":"m 508 742 l 393 742 l 289 854 l 183 742 l 69 742 l 218 946 l 360 946 "},":":{"ha":313,"x_min":0,"x_max":0,"o":"m 256 0 l 58 0 l 58 201 l 256 201 m 256 449 l 58 449 l 58 650 l 256 650 "},",":{"ha":319,"x_min":0,"x_max":0,"o":"m 31 -171 b 149 14 117 -147 149 -82 l 57 14 l 57 201 l 261 201 l 261 31 b 53 -231 261 -96 207 -200 "},"©":{"ha":857,"x_min":0,"x_max":0,"o":"m 428 346 b 226 557 306 346 226 426 b 431 769 226 693 310 769 b 618 603 539 769 604 711 l 521 603 b 439 679 513 658 481 679 b 353 565 385 679 353 646 l 353 551 b 436 435 353 471 388 435 b 521 524 482 435 514 456 l 622 524 b 428 346 617 394 535 346 m 426 256 b 732 554 607 256 732 376 b 426 860 732 736 606 860 b 125 554 249 860 125 738 b 426 256 125 376 250 256 m 426 172 b 33 554 192 172 33 325 b 426 943 33 789 190 943 b 824 554 664 943 824 788 b 426 172 824 325 665 172 "},"¤":{"ha":918,"x_min":0,"x_max":0,"o":"m 458 161 b 281 214 389 161 329 181 l 146 75 l 57 153 l 206 292 b 161 450 176 336 161 392 b 204 603 161 506 176 558 l 56 740 l 144 818 l 276 681 b 461 736 326 715 389 736 b 640 682 531 736 592 715 l 772 818 l 861 740 l 714 603 b 757 450 742 558 757 506 b 710 290 757 392 740 336 l 860 153 l 771 75 l 636 214 b 458 161 588 181 526 161 m 458 292 b 606 449 560 292 606 353 l 606 451 b 460 604 606 544 561 604 b 314 451 357 604 314 544 l 314 449 b 458 292 314 353 356 292 "},"d":{"ha":757,"x_min":0,"x_max":0,"o":"m 324 -14 b 32 325 160 -14 32 111 b 325 669 32 533 158 669 b 524 571 408 669 478 632 l 524 935 l 692 935 l 692 0 l 525 0 l 525 85 b 324 -14 479 24 408 -14 m 372 126 b 532 325 471 126 532 207 l 532 336 b 372 529 532 454 474 529 b 213 329 278 529 213 458 l 213 319 b 372 126 213 190 275 126 "},"†":{"ha":661,"x_min":0,"x_max":0,"o":"m 256 367 l 256 654 l 61 621 l 38 621 l 38 771 l 61 771 l 257 735 l 256 983 l 403 983 l 401 736 l 597 771 l 621 771 l 621 621 l 597 621 l 403 654 l 403 367 l 344 44 l 313 44 "},"‡":{"ha":658,"x_min":0,"x_max":0,"o":"m 53 311 l 53 461 l 82 461 b 260 421 82 461 260 422 l 260 650 l 67 611 l 38 611 l 38 761 l 67 761 l 258 721 l 258 983 l 401 983 l 401 721 l 594 761 l 625 761 l 625 611 l 594 611 l 400 650 l 400 422 l 581 461 l 610 461 l 610 311 l 581 311 l 401 350 l 401 60 l 258 60 l 258 350 b 82 311 258 351 82 311 "},"ď":{"ha":896,"x_min":0,"x_max":0,"o":"m 324 -14 b 32 325 160 -14 32 111 b 325 669 32 533 158 669 b 524 571 408 669 478 632 l 524 935 l 692 935 l 692 0 l 525 0 l 525 85 b 324 -14 479 24 408 -14 m 372 126 b 532 325 471 126 532 207 l 532 336 b 372 529 532 454 474 529 b 213 329 278 529 213 458 l 213 319 b 372 126 213 190 275 126 m 767 935 l 906 935 l 906 911 l 867 706 l 753 706 "},"đ":{"ha":761,"x_min":0,"x_max":0,"o":"m 774 726 l 692 726 l 692 0 l 525 0 l 525 85 b 324 -14 479 24 408 -14 b 32 325 160 -14 32 111 b 325 669 32 533 158 669 b 524 571 408 669 478 632 l 524 726 l 381 726 l 381 842 l 524 842 l 524 935 l 692 935 l 692 842 l 774 842 m 372 126 b 532 325 471 126 532 207 l 532 336 b 372 529 532 454 474 529 b 213 329 278 529 213 458 l 213 319 b 372 126 213 190 275 126 "},"°":{"ha":485,"x_min":0,"x_max":0,"o":"m 240 603 b 350 722 310 603 350 647 l 350 725 b 243 840 350 797 310 840 b 135 725 178 840 135 796 l 135 722 b 240 603 135 647 174 603 m 240 504 b 22 724 110 504 22 590 b 246 942 22 854 111 942 b 463 724 375 942 463 854 b 240 504 463 593 372 504 "},"¨":{"ha":550,"x_min":0,"x_max":0,"o":"m 222 751 l 69 751 l 69 919 l 222 919 m 481 751 l 328 751 l 328 919 l 481 919 "},"÷":{"ha":665,"x_min":0,"x_max":0,"o":"m 403 74 l 261 74 l 261 226 l 403 226 m 403 522 l 261 522 l 261 674 l 403 674 m 614 306 l 51 306 l 51 442 l 614 442 "},"$":{"ha":742,"x_min":0,"x_max":0,"o":"m 419 901 b 706 761 522 889 624 844 l 600 651 b 351 764 518 726 446 764 b 183 667 250 764 183 728 b 401 544 183 599 258 575 b 717 296 535 514 717 476 b 417 35 717 139 583 47 l 417 -76 l 321 -76 l 321 35 b 1 192 189 47 85 104 l 108 301 b 385 179 190 218 281 176 b 544 279 481 181 544 218 b 325 403 544 358 467 367 b 22 649 193 436 22 479 b 324 904 22 792 158 893 l 324 1013 l 419 1013 "},"₫":{"ha":765,"x_min":0,"x_max":0,"o":"m 761 783 l 674 783 l 674 189 l 515 189 l 515 279 b 303 172 472 211 400 172 b 35 447 142 172 35 285 l 35 449 b 315 725 35 613 143 725 b 513 638 401 725 471 694 l 513 783 l 358 783 l 358 888 l 513 888 l 513 956 l 674 956 l 674 888 l 761 888 m 351 293 b 515 443 460 293 515 357 l 515 454 b 356 606 515 540 461 606 b 204 458 260 606 204 547 l 204 442 b 351 293 204 357 254 293 m 726 0 l 56 0 l 56 104 l 726 104 "},"˙":{"ha":319,"x_min":0,"x_max":0,"o":"m 250 751 l 69 751 l 69 919 l 250 919 "},"ı":{"ha":304,"x_min":0,"x_max":0,"o":"m 239 0 l 65 0 l 65 656 l 239 656 "},"e":{"ha":707,"x_min":0,"x_max":0,"o":"m 364 -11 b 32 324 160 -11 32 119 b 360 668 32 526 168 668 b 676 329 558 668 676 536 l 676 271 l 201 271 b 367 124 213 176 274 124 b 526 225 464 124 506 169 l 676 172 b 364 -11 631 67 535 -11 m 356 535 b 199 390 272 535 211 482 l 503 390 b 356 535 496 486 444 535 "},"é":{"ha":707,"x_min":0,"x_max":0,"o":"m 364 -11 b 32 324 160 -11 32 119 b 360 668 32 526 168 668 b 676 329 558 668 676 536 l 676 271 l 201 271 b 367 124 213 176 274 124 b 526 225 464 124 506 169 l 676 172 b 364 -11 631 67 535 -11 m 356 535 b 199 390 272 535 211 482 l 503 390 b 356 535 496 486 444 535 m 617 932 l 389 742 l 301 742 l 424 949 l 617 949 "},"ĕ":{"ha":707,"x_min":0,"x_max":0,"o":"m 364 -11 b 32 324 160 -11 32 119 b 360 668 32 526 168 668 b 676 329 558 668 676 536 l 676 271 l 201 271 b 367 124 213 176 274 124 b 526 225 464 124 506 169 l 676 172 b 364 -11 631 67 535 -11 m 356 535 b 199 390 272 535 211 482 l 503 390 b 356 535 496 486 444 535 m 364 746 b 156 942 224 746 150 821 l 275 949 b 364 847 278 881 301 847 b 449 949 426 847 449 883 l 569 942 b 364 746 576 822 501 746 "},"ě":{"ha":707,"x_min":0,"x_max":0,"o":"m 364 -11 b 32 324 160 -11 32 119 b 360 668 32 526 168 668 b 676 329 558 668 676 536 l 676 271 l 201 271 b 367 124 213 176 274 124 b 526 225 464 124 506 169 l 676 172 b 364 -11 631 67 535 -11 m 356 535 b 199 390 272 535 211 482 l 503 390 b 356 535 496 486 444 535 m 363 835 l 467 946 l 582 946 l 433 743 l 292 743 l 143 946 l 258 946 "},"ê":{"ha":707,"x_min":0,"x_max":0,"o":"m 364 -11 b 32 324 160 -11 32 119 b 360 668 32 526 168 668 b 676 329 558 668 676 536 l 676 271 l 201 271 b 367 124 213 176 274 124 b 526 225 464 124 506 169 l 676 172 b 364 -11 631 67 535 -11 m 356 535 b 199 390 272 535 211 482 l 503 390 b 356 535 496 486 444 535 m 582 742 l 467 742 l 363 854 l 258 742 l 143 742 l 292 946 l 433 946 "},"ë":{"ha":707,"x_min":0,"x_max":0,"o":"m 364 -11 b 32 324 160 -11 32 119 b 360 668 32 526 168 668 b 676 329 558 668 676 536 l 676 271 l 201 271 b 367 124 213 176 274 124 b 526 225 464 124 506 169 l 676 172 b 364 -11 631 67 535 -11 m 356 535 b 199 390 272 535 211 482 l 503 390 b 356 535 496 486 444 535 m 310 751 l 158 751 l 158 919 l 310 919 m 568 751 l 417 751 l 417 919 l 568 919 "},"ė":{"ha":707,"x_min":0,"x_max":0,"o":"m 364 -11 b 32 324 160 -11 32 119 b 360 668 32 526 168 668 b 676 329 558 668 676 536 l 676 271 l 201 271 b 367 124 213 176 274 124 b 526 225 464 124 506 169 l 676 172 b 364 -11 631 67 535 -11 m 356 535 b 199 390 272 535 211 482 l 503 390 b 356 535 496 486 444 535 m 453 751 l 274 751 l 274 919 l 453 919 "},"è":{"ha":707,"x_min":0,"x_max":0,"o":"m 364 -11 b 32 324 160 -11 32 119 b 360 668 32 526 168 668 b 676 329 558 668 676 536 l 676 271 l 201 271 b 367 124 213 176 274 124 b 526 225 464 124 506 169 l 676 172 b 364 -11 631 67 535 -11 m 356 535 b 199 390 272 535 211 482 l 503 390 b 356 535 496 486 444 535 m 285 949 l 407 742 l 319 742 l 92 932 l 92 949 "},"⁸":{"ha":581,"x_min":0,"x_max":0,"o":"m 290 446 b 31 621 118 446 31 508 b 136 753 31 683 72 729 b 46 875 79 774 46 814 b 281 1032 46 972 132 1032 b 519 869 432 1032 519 972 b 433 753 519 811 489 774 b 544 617 501 728 544 681 b 290 446 544 506 458 446 m 285 790 b 379 860 349 790 379 811 b 282 931 379 906 344 931 b 186 863 221 931 186 906 b 285 790 186 813 219 790 m 289 549 b 400 625 358 549 400 578 b 288 707 400 679 361 707 b 175 628 214 707 175 681 b 289 549 175 579 218 549 "},"…":{"ha":922,"x_min":0,"x_max":0,"o":"m 247 0 l 58 0 l 58 192 l 247 192 m 554 0 l 365 0 l 365 192 l 554 192 m 864 0 l 674 0 l 674 192 l 864 192 "},"ē":{"ha":707,"x_min":0,"x_max":0,"o":"m 364 -11 b 32 324 160 -11 32 119 b 360 668 32 526 168 668 b 676 329 558 668 676 536 l 676 271 l 201 271 b 367 124 213 176 274 124 b 526 225 464 124 506 169 l 676 172 b 364 -11 631 67 535 -11 m 356 535 b 199 390 272 535 211 482 l 503 390 b 356 535 496 486 444 535 m 557 771 l 168 771 l 168 893 l 557 893 "},"—":{"ha":1122,"x_min":0,"x_max":0,"o":"m 1069 304 l 53 304 l 53 443 l 1069 443 "},"–":{"ha":750,"x_min":0,"x_max":0,"o":"m 697 304 l 53 304 l 53 443 l 697 443 "},"ŋ":{"ha":707,"x_min":0,"x_max":0,"o":"m 410 -126 b 482 -32 467 -126 482 -110 l 482 371 b 365 522 482 469 450 522 b 235 292 263 522 235 429 l 235 0 l 64 0 l 64 656 l 231 656 l 231 538 b 424 669 260 621 321 669 b 651 414 563 669 651 582 l 651 -54 b 421 -264 651 -232 569 -264 l 376 -264 l 376 -126 "},"ę":{"ha":707,"x_min":0,"x_max":0,"o":"m 444 -286 b 276 -149 349 -286 276 -229 b 356 -11 276 -96 307 -49 b 32 324 156 -7 32 122 b 360 668 32 526 168 668 b 676 329 558 668 676 536 l 676 271 l 201 271 b 367 124 213 176 274 124 b 526 225 464 124 506 169 l 676 172 b 513 14 646 103 594 44 b 410 -111 449 -24 410 -60 b 478 -164 410 -146 432 -164 b 526 -157 500 -164 517 -161 l 526 -274 b 444 -286 507 -281 479 -286 m 356 535 b 199 390 272 535 211 482 l 503 390 b 356 535 496 486 444 535 "},"=":{"ha":665,"x_min":0,"x_max":0,"o":"m 611 160 l 53 160 l 53 292 l 611 292 m 611 456 l 53 456 l 53 588 l 611 588 "},"⁼":{"ha":494,"x_min":0,"x_max":0,"o":"m 51 879 l 442 879 l 442 771 l 51 771 m 51 690 l 442 690 l 442 582 l 51 582 "},"ð":{"ha":729,"x_min":0,"x_max":0,"o":"m 354 -17 b 32 304 181 -17 32 97 l 32 308 b 317 611 33 489 144 611 b 521 525 417 611 483 579 b 363 772 503 635 449 714 l 296 682 l 214 740 l 276 828 b 146 879 235 846 186 872 l 200 985 b 347 928 257 974 306 947 l 418 1024 l 499 965 l 438 878 b 696 371 626 758 696 593 b 354 -17 696 126 583 -17 m 363 122 b 521 278 463 122 521 188 l 521 354 b 363 485 518 417 463 485 b 208 324 265 485 208 426 l 208 285 b 363 122 208 181 278 122 "},"!":{"ha":326,"x_min":0,"x_max":0,"o":"m 281 963 l 281 958 l 190 299 l 139 299 l 44 958 l 44 963 m 261 0 l 65 0 l 65 197 l 261 197 "},"¡":{"ha":326,"x_min":0,"x_max":0,"o":"m 44 -307 l 44 -303 l 136 357 l 188 357 l 281 -303 l 281 -307 m 68 656 l 264 656 l 264 456 l 68 456 "},"f":{"ha":447,"x_min":0,"x_max":0,"o":"m 131 515 l 29 515 l 29 656 l 131 656 l 131 706 b 313 936 131 865 176 926 l 440 936 l 440 786 l 392 786 b 296 690 308 786 296 782 l 296 656 l 426 656 l 426 515 l 297 515 l 297 0 l 131 0 "},"ﬀ":{"ha":910,"x_min":0,"x_max":0,"o":"m 131 515 l 29 515 l 29 656 l 131 656 l 131 706 b 313 936 131 865 176 926 l 440 936 l 440 786 l 392 786 b 296 690 308 786 296 782 l 296 656 l 426 656 l 426 515 l 297 515 l 297 0 l 131 0 m 594 515 l 493 515 l 493 656 l 594 656 l 594 706 b 776 936 594 865 640 926 l 904 936 l 904 786 l 856 786 b 760 690 772 786 760 782 l 760 656 l 890 656 l 890 515 l 761 515 l 761 0 l 594 0 "},"ﬃ":{"ha":1214,"x_min":0,"x_max":0,"o":"m 131 515 l 29 515 l 29 656 l 131 656 l 131 706 b 313 936 131 865 176 926 l 440 936 l 440 786 l 392 786 b 296 690 308 786 296 782 l 296 656 l 426 656 l 426 515 l 297 515 l 297 0 l 131 0 m 594 515 l 493 515 l 493 656 l 594 656 l 594 706 b 776 936 594 865 640 926 l 904 936 l 904 786 l 856 786 b 760 690 772 786 760 782 l 760 656 l 890 656 l 890 515 l 761 515 l 761 0 l 594 0 m 1149 0 l 975 0 l 975 656 l 1149 656 m 1151 751 l 972 751 l 972 919 l 1151 919 "},"ﬄ":{"ha":1214,"x_min":0,"x_max":0,"o":"m 131 515 l 29 515 l 29 656 l 131 656 l 131 706 b 313 936 131 865 176 926 l 440 936 l 440 786 l 392 786 b 296 690 308 786 296 782 l 296 656 l 426 656 l 426 515 l 297 515 l 297 0 l 131 0 m 594 515 l 493 515 l 493 656 l 594 656 l 594 706 b 776 936 594 865 640 926 l 904 936 l 904 786 l 856 786 b 760 690 772 786 760 782 l 760 656 l 890 656 l 890 515 l 761 515 l 761 0 l 594 0 m 1149 0 l 975 0 l 975 935 l 1149 935 "},"‒":{"ha":806,"x_min":0,"x_max":0,"o":"m 753 304 l 53 304 l 53 443 l 753 443 "},"⁵":{"ha":576,"x_min":0,"x_max":0,"o":"m 286 444 b 36 633 133 444 39 515 l 172 633 b 279 557 179 583 213 557 b 382 647 346 557 383 589 b 278 736 382 704 342 736 b 168 682 218 736 189 710 l 43 729 l 93 1022 l 490 1022 l 493 906 l 196 906 l 175 797 b 311 839 207 824 251 839 b 532 646 444 839 532 765 b 286 444 532 518 442 444 "},"ƒ":{"ha":686,"x_min":0,"x_max":0,"o":"m 57 135 b 185 239 135 135 161 153 l 239 447 l 107 447 l 107 576 l 274 576 l 311 718 b 525 922 346 861 390 922 l 675 922 l 675 788 l 596 788 b 454 657 507 788 485 772 l 433 576 l 601 576 l 601 447 l 399 447 l 336 204 b 122 0 301 61 257 0 l 11 0 l 11 135 "},"⁴":{"ha":608,"x_min":0,"x_max":0,"o":"m 482 576 l 485 457 l 339 457 l 336 576 l 35 576 l 32 682 l 272 1022 l 475 1022 l 150 682 l 335 682 l 333 769 l 476 857 l 481 682 l 567 682 l 569 576 "},"⁄":{"ha":253,"x_min":0,"x_max":0,"o":"m -89 0 l -221 0 l 340 922 l 472 922 "},"g":{"ha":721,"x_min":0,"x_max":0,"o":"m 328 168 b 233 182 294 168 263 172 l 228 182 b 168 146 194 182 168 167 b 249 104 168 121 203 104 l 401 104 b 718 -108 607 104 718 29 b 356 -336 718 -250 583 -336 b 14 -144 135 -336 14 -267 b 129 0 14 -82 57 -31 b 25 110 67 15 25 58 b 142 229 25 167 68 208 b 47 415 83 274 47 340 b 335 668 47 560 169 668 b 571 557 438 668 522 625 b 708 656 596 618 640 656 l 708 488 b 607 474 678 500 638 499 b 614 418 611 456 614 438 b 328 168 614 267 501 168 m 263 -42 b 158 -129 203 -50 158 -79 b 361 -214 158 -182 231 -214 b 569 -124 488 -214 569 -179 b 393 -42 569 -67 514 -42 m 332 294 b 463 414 411 294 463 343 l 463 422 b 332 543 463 492 407 543 b 204 421 258 543 204 490 l 204 414 b 332 294 204 344 256 294 "},"ğ":{"ha":721,"x_min":0,"x_max":0,"o":"m 328 168 b 233 182 294 168 263 172 l 228 182 b 168 146 194 182 168 167 b 249 104 168 121 203 104 l 401 104 b 718 -108 607 104 718 29 b 356 -336 718 -250 583 -336 b 14 -144 135 -336 14 -267 b 129 0 14 -82 57 -31 b 25 110 67 15 25 58 b 142 229 25 167 68 208 b 47 415 83 274 47 340 b 335 668 47 560 169 668 b 571 557 438 668 522 625 b 708 656 596 618 640 656 l 708 488 b 607 474 678 500 638 499 b 614 418 611 456 614 438 b 328 168 614 267 501 168 m 263 -42 b 158 -129 203 -50 158 -79 b 361 -214 158 -182 231 -214 b 569 -124 488 -214 569 -179 b 393 -42 569 -67 514 -42 m 332 294 b 463 414 411 294 463 343 l 463 422 b 332 543 463 492 407 543 b 204 421 258 543 204 490 l 204 414 b 332 294 204 344 256 294 m 344 746 b 136 942 204 746 131 821 l 256 949 b 344 847 258 881 282 847 b 429 949 407 847 429 883 l 550 942 b 344 746 557 822 482 746 "},"ĝ":{"ha":721,"x_min":0,"x_max":0,"o":"m 328 168 b 233 182 294 168 263 172 l 228 182 b 168 146 194 182 168 167 b 249 104 168 121 203 104 l 401 104 b 718 -108 607 104 718 29 b 356 -336 718 -250 583 -336 b 14 -144 135 -336 14 -267 b 129 0 14 -82 57 -31 b 25 110 67 15 25 58 b 142 229 25 167 68 208 b 47 415 83 274 47 340 b 335 668 47 560 169 668 b 571 557 438 668 522 625 b 708 656 596 618 640 656 l 708 488 b 607 474 678 500 638 499 b 614 418 611 456 614 438 b 328 168 614 267 501 168 m 263 -42 b 158 -129 203 -50 158 -79 b 361 -214 158 -182 231 -214 b 569 -124 488 -214 569 -179 b 393 -42 569 -67 514 -42 m 332 294 b 463 414 411 294 463 343 l 463 422 b 332 543 463 492 407 543 b 204 421 258 543 204 490 l 204 414 b 332 294 204 344 256 294 m 563 742 l 447 742 l 343 854 l 239 742 l 124 742 l 272 946 l 414 946 "},"ģ":{"ha":721,"x_min":0,"x_max":0,"o":"m 328 168 b 233 182 294 168 263 172 l 228 182 b 168 146 194 182 168 167 b 249 104 168 121 203 104 l 401 104 b 718 -108 607 104 718 29 b 356 -336 718 -250 583 -336 b 14 -144 135 -336 14 -267 b 129 0 14 -82 57 -31 b 25 110 67 15 25 58 b 142 229 25 167 68 208 b 47 415 83 274 47 340 b 335 668 47 560 169 668 b 571 557 438 668 522 625 b 708 656 596 618 640 656 l 708 488 b 607 474 678 500 638 499 b 614 418 611 456 614 438 b 328 168 614 267 501 168 m 263 -42 b 158 -129 203 -50 158 -79 b 361 -214 158 -182 231 -214 b 569 -124 488 -214 569 -179 b 393 -42 569 -67 514 -42 m 332 294 b 463 414 411 294 463 343 l 463 422 b 332 543 463 492 407 543 b 204 421 258 543 204 490 l 204 414 b 332 294 204 344 256 294 m 254 892 b 439 1036 254 965 315 1036 l 444 1021 b 364 917 396 999 367 968 l 433 917 l 433 751 l 254 751 "},"ġ":{"ha":721,"x_min":0,"x_max":0,"o":"m 328 168 b 233 182 294 168 263 172 l 228 182 b 168 146 194 182 168 167 b 249 104 168 121 203 104 l 401 104 b 718 -108 607 104 718 29 b 356 -336 718 -250 583 -336 b 14 -144 135 -336 14 -267 b 129 0 14 -82 57 -31 b 25 110 67 15 25 58 b 142 229 25 167 68 208 b 47 415 83 274 47 340 b 335 668 47 560 169 668 b 571 557 438 668 522 625 b 708 656 596 618 640 656 l 708 488 b 607 474 678 500 638 499 b 614 418 611 456 614 438 b 328 168 614 267 501 168 m 263 -42 b 158 -129 203 -50 158 -79 b 361 -214 158 -182 231 -214 b 569 -124 488 -214 569 -179 b 393 -42 569 -67 514 -42 m 332 294 b 463 414 411 294 463 343 l 463 422 b 332 543 463 492 407 543 b 204 421 258 543 204 490 l 204 414 b 332 294 204 344 256 294 m 433 751 l 254 751 l 254 919 l 433 919 "},"ß":{"ha":758,"x_min":0,"x_max":0,"o":"m 310 136 b 381 131 324 135 351 131 b 551 293 494 131 551 186 b 368 454 551 397 481 454 l 328 454 l 328 586 l 364 586 b 488 699 443 586 488 632 b 365 817 488 771 442 817 b 236 669 283 817 236 754 l 236 0 l 67 0 l 67 628 b 368 956 67 842 168 956 b 651 711 540 956 651 856 b 549 538 651 639 611 575 b 722 290 657 497 722 413 b 393 -8 722 93 607 -8 b 310 -3 372 -8 324 -6 "},"`":{"ha":454,"x_min":0,"x_max":0,"o":"m 263 949 l 385 742 l 297 742 l 69 932 l 69 949 "},">":{"ha":658,"x_min":0,"x_max":0,"o":"m 67 214 l 411 374 l 67 533 l 67 683 l 601 415 l 601 332 l 67 64 "},"≥":{"ha":658,"x_min":0,"x_max":0,"o":"m 65 290 l 411 410 l 65 531 l 65 678 l 601 451 l 601 369 l 65 143 m 51 122 l 614 122 l 614 0 l 51 0 "},"«":{"ha":636,"x_min":0,"x_max":0,"o":"m 282 579 l 282 439 l 163 372 l 282 303 l 282 164 l 31 331 l 31 411 m 586 603 l 586 449 l 457 372 l 586 294 l 586 140 l 321 331 l 321 411 "},"»":{"ha":636,"x_min":0,"x_max":0,"o":"m 179 372 l 50 449 l 50 603 l 315 411 l 315 331 l 50 140 l 50 294 m 475 372 l 356 439 l 356 579 l 606 411 l 606 331 l 356 164 l 356 303 "},"‹":{"ha":361,"x_min":0,"x_max":0,"o":"m 311 603 l 311 449 l 167 372 l 311 294 l 311 140 l 31 331 l 31 411 "},"›":{"ha":361,"x_min":0,"x_max":0,"o":"m 50 449 l 50 603 l 329 411 l 329 331 l 50 140 l 50 294 l 193 372 "},"h":{"ha":706,"x_min":0,"x_max":0,"o":"m 232 539 b 424 668 265 621 328 668 b 651 393 567 668 651 574 l 651 0 l 479 0 l 479 383 b 364 522 479 475 444 522 b 232 333 283 522 232 456 l 232 0 l 64 0 l 64 935 l 232 935 "},"ħ":{"ha":708,"x_min":0,"x_max":0,"o":"m 378 726 l 233 726 l 233 544 b 417 657 268 617 329 657 b 656 382 564 657 656 553 l 656 0 l 483 0 l 483 374 b 364 511 483 461 443 511 b 236 324 274 511 236 436 l 236 0 l 64 0 l 64 726 l -15 726 l -15 842 l 64 842 l 64 935 l 233 935 l 233 842 l 378 842 "},"ĥ":{"ha":706,"x_min":0,"x_max":0,"o":"m 232 539 b 424 668 265 621 328 668 b 651 393 567 668 651 574 l 651 0 l 479 0 l 479 383 b 364 522 479 475 444 522 b 232 333 283 522 232 456 l 232 0 l 64 0 l 64 935 l 232 935 m 374 992 l 254 992 l 151 1099 l 46 992 l -71 992 l 78 1193 l 224 1193 "},"˝":{"ha":681,"x_min":0,"x_max":0,"o":"m 339 932 l 146 742 l 69 742 l 174 947 l 339 947 m 611 932 l 403 742 l 324 742 l 443 947 l 611 947 "},"-":{"ha":417,"x_min":0,"x_max":0,"o":"m 364 304 l 53 304 l 53 443 l 364 443 "},"i":{"ha":304,"x_min":0,"x_max":0,"o":"m 239 0 l 65 0 l 65 656 l 239 656 m 242 751 l 63 751 l 63 919 l 242 919 "},"í":{"ha":304,"x_min":0,"x_max":0,"o":"m 239 0 l 65 0 l 65 656 l 239 656 m 310 932 l 157 742 l 75 742 l 135 949 l 310 949 "},"ĭ":{"ha":304,"x_min":0,"x_max":0,"o":"m 151 844 b 217 949 203 844 222 881 l 321 942 b 150 746 336 821 271 746 b -21 942 26 746 -35 825 l 83 949 b 151 844 79 878 100 844 m 239 0 l 65 0 l 65 656 l 239 656 "},"î":{"ha":304,"x_min":0,"x_max":0,"o":"m 239 0 l 65 0 l 65 656 l 239 656 m 78 946 l 219 946 l 324 742 l 222 742 l 149 856 l 76 742 l -26 742 "},"ï":{"ha":304,"x_min":0,"x_max":0,"o":"m 239 0 l 65 0 l 65 656 l 239 656 m 124 751 l -21 751 l -21 919 l 124 919 m 322 751 l 178 751 l 178 919 l 322 919 "},"ì":{"ha":304,"x_min":0,"x_max":0,"o":"m 239 0 l 65 0 l 65 656 l 239 656 m 167 949 l 228 742 l 146 742 l -7 932 l -7 949 "},"ĳ":{"ha":607,"x_min":0,"x_max":0,"o":"m 239 0 l 65 0 l 65 656 l 239 656 m 242 751 l 63 751 l 63 919 l 242 919 m 300 -117 b 369 -37 356 -117 369 -101 l 369 656 l 543 656 l 543 -42 b 303 -264 543 -212 475 -264 l 258 -264 l 258 -117 m 546 751 l 367 751 l 367 919 l 546 919 "},"ī":{"ha":304,"x_min":0,"x_max":0,"o":"m 239 0 l 65 0 l 65 656 l 239 656 m 318 771 l -18 771 l -18 893 l 318 893 "},"į":{"ha":304,"x_min":0,"x_max":0,"o":"m 158 -286 b -15 -154 51 -286 -15 -229 b 99 0 -15 -89 31 -36 l 65 0 l 65 656 l 239 656 l 239 0 l 235 0 b 121 -112 157 -33 121 -69 b 185 -164 121 -146 142 -164 b 240 -157 214 -164 231 -161 l 240 -274 b 158 -286 219 -281 193 -286 m 242 751 l 63 751 l 63 919 l 242 919 "},"ĩ":{"ha":304,"x_min":0,"x_max":0,"o":"m 239 0 l 65 0 l 65 656 l 239 656 m -26 763 b -25 803 -26 771 -25 794 b 72 939 -21 914 29 939 b 213 854 157 939 176 854 b 242 892 226 854 236 869 l 249 929 l 326 919 b 325 879 326 911 325 886 b 225 742 321 772 271 742 b 90 828 147 742 126 828 b 58 789 74 828 64 811 b 51 753 54 775 53 764 l -26 763 "},"j":{"ha":304,"x_min":0,"x_max":0,"o":"m -4 -117 b 65 -37 51 -117 65 -101 l 65 656 l 239 656 l 239 -42 b -1 -264 239 -212 171 -264 l -46 -264 l -46 -117 m 242 751 l 63 751 l 63 919 l 242 919 "},"ĵ":{"ha":304,"x_min":0,"x_max":0,"o":"m -4 -117 b 65 -37 51 -117 65 -101 l 65 656 l 239 656 l 239 -42 b -1 -264 239 -212 171 -264 l -46 -264 l -46 -117 m 78 946 l 219 946 l 324 742 l 222 742 l 149 856 l 76 742 l -26 742 "},"k":{"ha":668,"x_min":0,"x_max":0,"o":"m 232 368 l 467 656 l 661 656 l 435 410 l 676 0 l 490 0 l 324 289 l 232 182 l 232 0 l 64 0 l 64 935 l 232 935 "},"ķ":{"ha":668,"x_min":0,"x_max":0,"o":"m 232 368 l 467 656 l 661 656 l 435 410 l 676 0 l 490 0 l 324 289 l 232 182 l 232 0 l 64 0 l 64 935 l 232 935 m 254 -357 b 335 -239 306 -333 333 -292 l 265 -239 l 265 -89 l 446 -89 l 446 -228 b 260 -372 446 -303 383 -372 "},"ĸ":{"ha":668,"x_min":0,"x_max":0,"o":"m 233 369 l 467 656 l 661 656 l 435 410 l 676 0 l 490 0 l 324 289 l 233 183 l 233 0 l 64 0 l 64 656 l 233 656 "},"l":{"ha":304,"x_min":0,"x_max":0,"o":"m 239 0 l 65 0 l 65 935 l 239 935 "},"ĺ":{"ha":304,"x_min":0,"x_max":0,"o":"m 239 0 l 65 0 l 65 935 l 239 935 m 367 1181 l 183 992 l 100 992 l 186 1196 l 367 1196 "},"ľ":{"ha":438,"x_min":0,"x_max":0,"o":"m 239 0 l 65 0 l 65 935 l 239 935 m 308 935 l 447 935 l 447 911 l 408 706 l 294 706 "},"ļ":{"ha":304,"x_min":0,"x_max":0,"o":"m 239 0 l 65 0 l 65 935 l 239 935 m 51 -361 b 132 -243 103 -337 131 -296 l 63 -243 l 63 -93 l 243 -93 l 243 -232 b 57 -376 243 -307 181 -376 "},"ŀ":{"ha":464,"x_min":0,"x_max":0,"o":"m 239 0 l 65 0 l 65 935 l 239 935 m 471 371 l 300 371 l 300 538 l 471 538 "},"<":{"ha":658,"x_min":0,"x_max":0,"o":"m 58 332 l 58 415 l 593 683 l 593 533 l 236 374 l 593 214 l 593 64 "},"≤":{"ha":658,"x_min":0,"x_max":0,"o":"m 51 122 l 614 122 l 614 0 l 51 0 m 64 369 l 64 451 l 600 678 l 600 531 l 254 411 l 600 290 l 600 143 "},"¬":{"ha":660,"x_min":0,"x_max":0,"o":"m 594 86 l 449 86 l 449 304 l 51 304 l 51 443 l 594 443 "},"ł":{"ha":376,"x_min":0,"x_max":0,"o":"m 276 935 l 276 626 l 376 676 l 376 546 l 276 497 l 276 0 l 107 0 l 107 417 l 7 367 l 7 497 l 107 547 l 107 935 "},"m":{"ha":1081,"x_min":0,"x_max":0,"o":"m 236 550 b 426 669 269 626 333 669 b 607 532 500 669 574 635 b 821 669 636 613 707 669 b 1028 403 949 669 1028 571 l 1028 0 l 856 0 l 856 393 b 749 522 856 481 818 522 b 632 374 674 522 632 469 l 632 0 l 460 0 l 460 400 b 353 522 460 481 424 522 b 236 374 289 522 236 474 l 236 0 l 64 0 l 64 656 l 236 656 "},"¯":{"ha":550,"x_min":0,"x_max":0,"o":"m 481 771 l 69 771 l 69 893 l 481 893 "},"−":{"ha":668,"x_min":0,"x_max":0,"o":"m 614 304 l 53 304 l 53 443 l 614 443 "},"⁻":{"ha":494,"x_min":0,"x_max":0,"o":"m 50 790 l 446 790 l 446 672 l 50 672 "},"×":{"ha":664,"x_min":0,"x_max":0,"o":"m 43 185 l 233 375 l 46 565 l 140 660 l 329 471 l 522 663 l 621 564 l 429 371 l 618 181 l 524 86 l 333 276 l 142 85 "},"n":{"ha":708,"x_min":0,"x_max":0,"o":"m 236 549 b 428 669 271 625 335 669 b 656 393 571 669 656 574 l 656 0 l 483 0 l 483 383 b 368 522 483 475 449 522 b 236 333 286 522 236 456 l 236 0 l 64 0 l 64 656 l 236 656 "},"ⁿ":{"ha":585,"x_min":0,"x_max":0,"o":"m 58 943 l 207 943 l 207 865 b 354 954 233 921 282 954 b 529 750 463 954 528 883 b 531 457 529 749 531 457 l 382 457 l 381 740 b 299 835 381 801 356 835 b 208 704 242 835 208 786 l 210 457 l 61 457 "},"ń":{"ha":708,"x_min":0,"x_max":0,"o":"m 236 549 b 428 669 271 625 335 669 b 656 393 571 669 656 574 l 656 0 l 483 0 l 483 383 b 368 522 483 475 449 522 b 236 333 286 522 236 456 l 236 0 l 64 0 l 64 656 l 236 656 m 611 932 l 383 742 l 296 742 l 418 949 l 611 949 "},"ň":{"ha":708,"x_min":0,"x_max":0,"o":"m 236 549 b 428 669 271 625 335 669 b 656 393 571 669 656 574 l 656 0 l 483 0 l 483 383 b 368 522 483 475 449 522 b 236 333 286 522 236 456 l 236 0 l 64 0 l 64 656 l 236 656 m 393 835 l 497 946 l 613 946 l 464 743 l 322 743 l 174 946 l 289 946 "},"ņ":{"ha":708,"x_min":0,"x_max":0,"o":"m 236 549 b 428 669 271 625 335 669 b 656 393 571 669 656 574 l 656 0 l 483 0 l 483 383 b 368 522 483 475 449 522 b 236 333 286 522 236 456 l 236 0 l 64 0 l 64 656 l 236 656 m 267 -361 b 347 -243 318 -337 346 -296 l 278 -243 l 278 -93 l 458 -93 l 458 -232 b 272 -376 458 -307 396 -376 "},"⁹":{"ha":597,"x_min":0,"x_max":0,"o":"m 282 447 b 47 622 126 447 54 515 l 179 622 b 282 560 186 582 213 560 b 397 686 361 560 397 599 l 397 719 b 254 658 367 679 318 658 b 38 839 121 658 38 726 b 272 1035 38 954 132 1035 b 543 732 451 1035 543 935 b 282 447 543 540 453 447 m 286 753 b 388 842 346 753 388 792 l 388 843 b 281 926 388 892 342 926 b 182 840 219 926 182 889 l 182 838 b 286 753 182 788 224 753 "},"≠":{"ha":665,"x_min":0,"x_max":0,"o":"m 179 160 l 53 160 l 53 292 l 244 292 l 325 456 l 53 456 l 53 588 l 390 588 l 443 696 l 547 696 l 494 588 l 611 588 l 611 456 l 428 456 l 349 292 l 611 292 l 611 160 l 283 160 l 221 36 l 117 36 "},"ñ":{"ha":708,"x_min":0,"x_max":0,"o":"m 236 549 b 428 669 271 625 335 669 b 656 393 571 669 656 574 l 656 0 l 483 0 l 483 383 b 368 522 483 475 449 522 b 236 333 286 522 236 456 l 236 0 l 64 0 l 64 656 l 236 656 m 158 763 b 158 803 157 771 158 794 b 279 939 158 913 228 939 b 442 858 368 939 400 858 b 483 899 465 858 475 875 b 490 929 486 903 490 919 l 575 919 b 575 881 576 911 575 886 b 454 742 575 772 501 742 b 293 822 367 742 336 822 b 250 781 269 822 256 808 b 243 753 247 774 243 760 l 158 763 "},"#":{"ha":806,"x_min":0,"x_max":0,"o":"m 701 708 l 794 708 l 794 563 l 649 563 l 576 360 l 708 360 l 708 214 l 525 214 l 449 0 l 344 0 l 422 218 l 210 218 l 132 0 l 28 0 l 104 214 l 11 214 l 11 360 l 156 360 l 229 563 l 97 563 l 97 708 l 281 708 l 358 922 l 460 922 l 382 704 l 596 704 l 674 922 l 778 922 m 258 357 l 471 357 l 546 565 l 333 565 "},"o":{"ha":738,"x_min":0,"x_max":0,"o":"m 367 128 b 531 322 468 128 531 200 l 531 328 b 369 528 531 453 469 528 b 207 328 268 528 207 453 l 207 322 b 367 128 207 200 267 128 m 365 -12 b 32 326 168 -12 32 126 b 369 668 32 526 171 668 b 706 326 567 668 706 526 b 365 -12 706 129 564 -12 "},"ó":{"ha":738,"x_min":0,"x_max":0,"o":"m 367 128 b 531 322 468 128 531 200 l 531 328 b 369 528 531 453 469 528 b 207 328 268 528 207 453 l 207 322 b 367 128 207 200 267 128 m 365 -12 b 32 326 168 -12 32 126 b 369 668 32 526 171 668 b 706 326 567 668 706 526 b 365 -12 706 129 564 -12 m 624 932 l 396 742 l 308 742 l 431 949 l 624 949 "},"ŏ":{"ha":738,"x_min":0,"x_max":0,"o":"m 367 128 b 531 322 468 128 531 200 l 531 328 b 369 528 531 453 469 528 b 207 328 268 528 207 453 l 207 322 b 367 128 207 200 267 128 m 365 -12 b 32 326 168 -12 32 126 b 369 668 32 526 171 668 b 706 326 567 668 706 526 b 365 -12 706 129 564 -12 m 371 746 b 163 942 231 746 157 821 l 282 949 b 371 847 285 881 308 847 b 456 949 433 847 456 883 l 576 942 b 371 746 583 822 508 746 "},"ô":{"ha":738,"x_min":0,"x_max":0,"o":"m 367 128 b 531 322 468 128 531 200 l 531 328 b 369 528 531 453 469 528 b 207 328 268 528 207 453 l 207 322 b 367 128 207 200 267 128 m 365 -12 b 32 326 168 -12 32 126 b 369 668 32 526 171 668 b 706 326 567 668 706 526 b 365 -12 706 129 564 -12 m 589 742 l 474 742 l 369 854 l 265 742 l 150 742 l 299 946 l 440 946 "},"ö":{"ha":738,"x_min":0,"x_max":0,"o":"m 367 128 b 531 322 468 128 531 200 l 531 328 b 369 528 531 453 469 528 b 207 328 268 528 207 453 l 207 322 b 367 128 207 200 267 128 m 365 -12 b 32 326 168 -12 32 126 b 369 668 32 526 171 668 b 706 326 567 668 706 526 b 365 -12 706 129 564 -12 m 317 751 l 165 751 l 165 919 l 317 919 m 575 751 l 424 751 l 424 919 l 575 919 "},"œ":{"ha":1201,"x_min":0,"x_max":0,"o":"m 364 -12 b 32 326 167 -12 32 126 b 367 668 32 526 171 668 b 614 553 474 668 560 625 b 857 668 668 625 753 668 b 1172 329 1054 668 1172 536 l 1172 271 l 697 271 b 863 124 708 176 769 124 b 1024 225 960 124 1001 169 l 1172 172 b 860 -12 1126 67 1029 -12 b 610 99 749 -12 664 28 b 364 -12 554 29 469 -12 m 365 128 b 532 322 467 128 532 201 l 532 328 b 368 528 532 453 468 528 b 204 328 268 528 204 453 l 204 322 b 365 128 204 200 265 128 m 851 535 b 694 390 769 535 707 482 l 1000 390 b 851 535 993 486 942 535 "},"˛":{"ha":33,"x_min":0,"x_max":0,"o":"m 71 -286 b -101 -154 -35 -286 -101 -229 b 128 42 -101 -57 1 11 l 149 0 b 35 -112 71 -33 35 -69 b 100 -164 35 -146 56 -164 b 153 -157 128 -164 143 -161 l 153 -274 b 71 -286 131 -281 106 -286 "},"ò":{"ha":738,"x_min":0,"x_max":0,"o":"m 367 128 b 531 322 468 128 531 200 l 531 328 b 369 528 531 453 469 528 b 207 328 268 528 207 453 l 207 322 b 367 128 207 200 267 128 m 365 -12 b 32 326 168 -12 32 126 b 369 668 32 526 171 668 b 706 326 567 668 706 526 b 365 -12 706 129 564 -12 m 292 949 l 414 742 l 326 742 l 99 932 l 99 949 "},"ơ":{"ha":824,"x_min":0,"x_max":0,"o":"m 711 890 b 829 706 803 847 829 774 b 667 494 829 592 751 524 b 706 326 692 446 706 389 b 365 -12 706 129 564 -12 b 32 326 168 -12 32 126 b 369 668 32 526 171 668 b 611 572 467 668 551 632 b 696 688 658 589 696 624 b 628 796 696 744 668 772 m 367 128 b 531 322 468 128 531 200 l 531 328 b 369 528 531 457 469 528 b 207 328 268 528 207 453 l 207 322 b 367 128 207 200 267 128 "},"ő":{"ha":738,"x_min":0,"x_max":0,"o":"m 367 128 b 531 322 468 128 531 200 l 531 328 b 369 528 531 453 469 528 b 207 328 268 528 207 453 l 207 322 b 367 128 207 200 267 128 m 365 -12 b 32 326 168 -12 32 126 b 369 668 32 526 171 668 b 706 326 567 668 706 526 b 365 -12 706 129 564 -12 m 474 932 l 279 742 l 204 742 l 308 947 l 474 947 m 746 932 l 536 742 l 457 742 l 576 947 l 746 947 "},"ō":{"ha":738,"x_min":0,"x_max":0,"o":"m 367 128 b 531 322 468 128 531 200 l 531 328 b 369 528 531 453 469 528 b 207 328 268 528 207 453 l 207 322 b 367 128 207 200 267 128 m 365 -12 b 32 326 168 -12 32 126 b 369 668 32 526 171 668 b 706 326 567 668 706 526 b 365 -12 706 129 564 -12 m 564 771 l 175 771 l 175 893 l 564 893 "},"¹":{"ha":449,"x_min":0,"x_max":0,"o":"m 217 842 b 40 721 169 788 113 742 l 38 844 b 226 1022 135 876 207 939 l 357 1022 l 357 457 l 217 457 "},"½":{"ha":1238,"x_min":0,"x_max":0,"o":"m 356 0 l 254 0 l 815 922 l 918 922 m 731 25 b 1046 392 731 281 1046 290 b 961 456 1046 428 1018 456 b 828 367 904 456 864 426 l 718 435 b 968 576 772 526 851 576 b 1192 396 1103 576 1192 508 b 888 113 1192 218 928 219 l 985 114 l 1193 114 l 1194 0 l 731 0 m 217 742 b 40 621 169 688 113 642 l 38 744 b 226 922 135 775 207 839 l 357 922 l 357 357 l 217 357 "},"¼":{"ha":1225,"x_min":0,"x_max":0,"o":"m 833 922 l 936 922 l 374 0 l 272 0 m 217 742 b 40 621 169 688 113 642 l 38 744 b 226 922 135 775 207 839 l 357 922 l 357 357 l 217 357 m 967 129 l 678 129 l 678 238 b 925 576 747 329 894 531 l 1104 576 l 799 232 l 968 232 l 968 313 l 1097 386 l 1097 232 l 1188 232 l 1188 129 l 1097 129 l 1097 0 l 967 0 "},"ª":{"ha":575,"x_min":0,"x_max":0,"o":"m 214 444 b 40 586 107 444 40 500 b 233 739 40 693 125 718 b 376 788 325 757 375 761 l 376 792 b 289 844 376 821 350 844 b 194 775 228 844 197 815 l 194 767 l 50 767 b 290 953 53 881 143 953 b 518 757 433 953 518 893 l 518 457 l 376 457 l 376 524 b 214 444 346 474 290 444 m 188 596 b 256 543 188 565 214 543 b 376 653 314 543 375 572 l 376 696 b 271 664 351 681 308 674 b 188 596 224 653 188 638 "},"º":{"ha":607,"x_min":0,"x_max":0,"o":"m 303 447 b 38 700 143 447 38 549 b 301 953 38 850 143 953 b 567 697 461 953 567 849 b 303 447 567 549 461 447 m 301 558 b 417 694 374 558 417 607 l 417 701 b 301 843 417 790 372 843 b 189 703 231 843 189 792 l 189 694 b 301 558 189 606 231 558 "},"ø":{"ha":744,"x_min":0,"x_max":0,"o":"m 369 -12 b 167 46 290 -12 222 8 l 124 0 l 11 0 l 106 103 b 32 326 58 161 32 238 b 372 668 32 526 171 668 b 567 614 447 668 513 649 l 619 671 l 732 671 l 629 558 b 711 326 681 499 711 418 b 369 -12 711 129 571 -12 m 369 121 b 544 322 478 121 544 197 l 544 328 b 521 443 544 372 536 411 l 264 154 b 369 121 292 132 326 121 m 200 322 b 218 219 200 283 206 249 l 471 504 b 372 535 444 524 411 535 b 200 328 265 535 200 456 l 200 322 "},"ǿ":{"ha":744,"x_min":0,"x_max":0,"o":"m 369 -12 b 167 46 290 -12 222 8 l 124 0 l 11 0 l 106 103 b 32 326 58 161 32 238 b 372 668 32 526 171 668 b 567 614 447 668 513 649 l 619 671 l 732 671 l 629 558 b 711 326 681 499 711 418 b 369 -12 711 129 571 -12 m 369 121 b 544 322 478 121 544 197 l 544 328 b 521 443 544 372 536 411 l 264 154 b 369 121 292 132 326 121 m 200 322 b 218 219 200 283 206 249 l 471 504 b 372 535 444 524 411 535 b 200 328 265 535 200 456 l 200 322 m 626 932 l 399 742 l 311 742 l 433 949 l 626 949 "},"õ":{"ha":738,"x_min":0,"x_max":0,"o":"m 367 128 b 531 322 468 128 531 200 l 531 328 b 369 528 531 453 469 528 b 207 328 268 528 207 453 l 207 322 b 367 128 207 200 267 128 m 365 -12 b 32 326 168 -12 32 126 b 369 668 32 526 171 668 b 706 326 567 668 706 526 b 365 -12 706 129 564 -12 m 161 763 b 161 803 160 771 161 794 b 282 939 161 913 231 939 b 444 858 371 939 403 858 b 486 899 468 858 478 875 b 493 929 489 903 493 919 l 578 919 b 578 881 579 911 578 886 b 457 742 578 772 504 742 b 296 822 369 742 339 822 b 253 781 272 822 258 808 b 246 753 250 774 246 760 l 161 763 "},"p":{"ha":758,"x_min":0,"x_max":0,"o":"m 433 -14 b 235 83 350 -14 281 22 l 235 -258 l 64 -258 l 64 656 l 235 656 l 235 572 b 435 669 279 633 349 669 b 726 333 600 669 726 542 l 726 332 b 433 -14 726 119 601 -14 m 388 126 b 546 326 481 126 546 197 l 546 336 b 388 529 546 465 483 529 b 226 331 288 529 226 447 l 226 318 b 388 126 226 203 285 126 "},"¶":{"ha":847,"x_min":0,"x_max":0,"o":"m 425 381 l 414 381 b 40 644 164 381 40 467 b 419 922 40 832 167 922 l 768 922 l 768 0 l 664 0 l 664 808 l 529 808 l 529 0 l 425 0 "},"(":{"ha":472,"x_min":0,"x_max":0,"o":"m 463 -251 b 24 329 153 -214 24 68 l 24 344 b 463 924 24 608 153 885 l 463 776 b 183 347 290 743 183 599 l 183 329 b 463 -104 183 76 290 -71 "},"⁽":{"ha":381,"x_min":0,"x_max":0,"o":"m 356 363 b 29 725 122 371 29 560 l 29 733 b 339 1093 29 897 107 1085 l 342 975 b 168 740 232 968 168 900 l 168 715 b 353 483 169 557 242 489 "},")":{"ha":472,"x_min":0,"x_max":0,"o":"m 10 -104 b 289 329 182 -71 289 76 l 289 347 b 10 776 289 599 182 743 l 10 924 b 449 344 319 885 449 608 l 449 329 b 10 -251 449 68 319 -214 "},"⁾":{"ha":378,"x_min":0,"x_max":0,"o":"m 31 482 b 204 715 140 488 204 556 l 204 740 b 18 974 204 899 131 967 l 17 1093 b 342 731 249 1085 342 896 l 342 722 b 33 363 342 558 265 371 "},"%":{"ha":950,"x_min":0,"x_max":0,"o":"m 240 603 b 350 722 310 603 350 647 l 350 725 b 243 840 350 797 310 840 b 135 725 178 840 135 796 l 135 722 b 240 603 135 647 174 603 m 706 79 b 815 199 775 79 815 124 l 815 201 b 708 317 815 274 775 317 b 599 201 642 317 599 272 l 599 199 b 706 79 599 124 638 79 m 240 504 b 22 724 110 504 22 590 b 246 942 22 854 111 942 b 463 724 375 942 463 854 b 240 504 463 593 372 504 m 203 0 l 68 0 l 742 922 l 876 922 m 706 -19 b 488 200 574 -19 488 67 b 711 418 488 331 575 418 b 926 200 840 418 926 331 b 706 -19 926 69 838 -19 "},".":{"ha":313,"x_min":0,"x_max":0,"o":"m 256 0 l 58 0 l 58 201 l 256 201 "},"·":{"ha":325,"x_min":0,"x_max":0,"o":"m 257 278 l 68 278 l 68 469 l 257 469 "},"‰":{"ha":1426,"x_min":0,"x_max":0,"o":"m 240 603 b 350 722 310 603 350 647 l 350 725 b 243 840 350 797 310 840 b 135 725 178 840 135 796 l 135 722 b 240 603 135 647 174 603 m 706 79 b 815 199 775 79 815 124 l 815 201 b 708 317 815 274 775 317 b 599 201 642 317 599 272 l 599 199 b 706 79 599 124 638 79 m 1182 79 b 1292 199 1251 79 1292 124 l 1292 201 b 1185 317 1292 274 1251 317 b 1075 201 1118 317 1075 272 l 1075 199 b 1182 79 1075 124 1114 79 m 240 504 b 22 724 110 504 22 590 b 246 942 22 854 111 942 b 463 724 375 942 463 854 b 240 504 463 593 372 504 m 203 0 l 68 0 l 742 922 l 876 922 m 706 -19 b 488 200 574 -19 488 67 b 711 418 488 331 575 418 b 926 200 840 418 926 331 b 706 -19 926 69 838 -19 m 1182 -19 b 964 200 1050 -19 964 67 b 1188 418 964 331 1051 418 b 1403 200 1317 418 1403 331 b 1182 -19 1403 69 1314 -19 "},"π":{"ha":835,"x_min":0,"x_max":0,"o":"m 643 -12 b 507 144 549 -12 510 46 l 497 514 l 307 514 l 297 0 l 129 0 l 142 514 l 18 514 l 18 656 l 808 656 l 808 511 l 660 511 l 675 188 b 724 122 678 139 689 122 l 772 122 l 772 7 b 643 -12 753 -1 707 -12 "},"+":{"ha":665,"x_min":0,"x_max":0,"o":"m 403 307 l 403 93 l 263 93 l 263 307 l 51 307 l 51 440 l 263 440 l 263 656 l 403 656 l 403 440 l 614 440 l 614 307 "},"⁺":{"ha":496,"x_min":0,"x_max":0,"o":"m 50 786 l 188 786 l 188 915 l 307 915 l 307 786 l 446 786 l 446 675 l 307 675 l 307 546 l 188 546 l 188 675 l 50 675 "},"±":{"ha":667,"x_min":0,"x_max":0,"o":"m 614 333 l 403 333 l 403 189 l 263 189 l 263 333 l 53 333 l 53 464 l 263 464 l 263 681 l 403 681 l 403 464 l 614 464 m 614 0 l 53 0 l 53 136 l 614 136 "},"q":{"ha":758,"x_min":0,"x_max":0,"o":"m 324 -14 b 32 322 160 -14 32 113 l 32 324 b 325 669 32 536 158 669 b 525 568 410 669 479 631 l 525 656 l 694 656 l 694 -251 l 525 -251 l 525 85 b 324 -14 479 24 408 -14 m 372 126 b 532 325 471 126 532 208 l 532 338 b 372 526 532 453 474 526 b 213 329 278 526 213 458 l 213 319 b 372 126 213 190 275 126 "},"?":{"ha":722,"x_min":0,"x_max":0,"o":"m 258 329 b 486 711 281 579 486 582 b 372 817 486 769 443 817 b 190 660 276 817 225 740 l 44 740 b 385 982 113 875 214 982 b 679 722 557 982 679 875 b 407 299 678 499 414 490 l 258 299 m 238 197 l 433 197 l 433 0 l 238 0 "},"¿":{"ha":728,"x_min":0,"x_max":0,"o":"m 464 326 b 236 -56 442 76 236 74 b 350 -161 236 -114 279 -161 b 532 -4 446 -161 497 -85 l 678 -85 b 338 -326 610 -219 508 -326 b 43 -67 164 -326 43 -219 b 315 357 43 157 308 165 l 464 357 m 289 656 l 485 656 l 485 458 l 289 458 "},"\"":{"ha":494,"x_min":0,"x_max":0,"o":"m 107 456 b 47 717 104 478 47 696 l 47 922 l 207 922 l 207 717 b 147 456 207 696 151 478 l 107 456 m 347 456 b 289 717 346 478 289 696 l 289 922 l 447 922 l 447 717 b 389 456 447 696 392 478 l 347 456 "},"„":{"ha":550,"x_min":0,"x_max":0,"o":"m 21 -171 b 139 14 108 -144 138 -82 l 64 14 l 64 201 l 251 201 l 251 31 b 44 -231 251 -96 197 -200 m 268 -171 b 386 14 356 -144 385 -82 l 311 14 l 311 201 l 499 201 l 499 31 b 292 -231 499 -96 444 -200 "},"“":{"ha":551,"x_min":0,"x_max":0,"o":"m 282 886 b 164 701 194 860 165 797 l 239 701 l 239 514 l 51 514 l 51 685 b 258 946 51 811 106 915 m 531 886 b 413 701 443 860 414 797 l 488 701 l 488 514 l 300 514 l 300 685 b 507 946 300 811 354 915 "},"”":{"ha":550,"x_min":0,"x_max":0,"o":"m 21 550 b 139 735 108 576 138 639 l 64 735 l 64 922 l 251 922 l 251 751 b 44 490 251 625 197 521 m 268 550 b 386 735 356 576 385 639 l 311 735 l 311 922 l 499 922 l 499 751 b 292 490 499 625 444 521 "},"‘":{"ha":303,"x_min":0,"x_max":0,"o":"m 282 886 b 164 701 194 860 165 797 l 239 701 l 239 514 l 51 514 l 51 685 b 258 946 51 811 106 915 "},"‛":{"ha":303,"x_min":0,"x_max":0,"o":"m 258 490 b 51 751 106 521 51 625 l 51 922 l 239 922 l 239 735 l 164 735 b 282 550 165 639 194 576 "},"’":{"ha":303,"x_min":0,"x_max":0,"o":"m 21 550 b 139 735 108 576 138 639 l 64 735 l 64 922 l 251 922 l 251 751 b 44 490 251 625 197 521 "},"‚":{"ha":303,"x_min":0,"x_max":0,"o":"m 21 -171 b 139 14 108 -144 138 -82 l 64 14 l 64 201 l 251 201 l 251 31 b 44 -231 251 -96 197 -200 "},"'":{"ha":254,"x_min":0,"x_max":0,"o":"m 107 456 b 47 717 104 478 47 696 l 47 922 l 207 922 l 207 717 b 147 456 207 696 151 478 l 107 456 "},"r":{"ha":471,"x_min":0,"x_max":0,"o":"m 236 535 b 424 663 254 610 303 663 l 438 663 l 438 497 l 369 497 b 236 336 265 497 236 450 l 236 0 l 64 0 l 64 656 l 236 656 "},"ŕ":{"ha":471,"x_min":0,"x_max":0,"o":"m 236 535 b 424 663 254 610 303 663 l 438 663 l 438 497 l 369 497 b 236 336 265 497 236 450 l 236 0 l 64 0 l 64 656 l 236 656 m 496 932 l 297 742 l 210 742 l 308 949 l 496 949 "},"ř":{"ha":471,"x_min":0,"x_max":0,"o":"m 236 535 b 424 663 254 610 303 663 l 438 663 l 438 497 l 369 497 b 236 336 265 497 236 450 l 236 0 l 64 0 l 64 656 l 236 656 m 285 833 l 379 946 l 490 946 l 364 743 l 204 743 l 76 946 l 189 946 "},"ŗ":{"ha":471,"x_min":0,"x_max":0,"o":"m 236 535 b 424 663 254 610 303 663 l 438 663 l 438 497 l 369 497 b 236 336 265 497 236 450 l 236 0 l 64 0 l 64 656 l 236 656 m 46 -361 b 126 -243 97 -337 125 -296 l 57 -243 l 57 -93 l 238 -93 l 238 -232 b 51 -376 238 -307 175 -376 "},"®":{"ha":857,"x_min":0,"x_max":0,"o":"m 426 172 b 33 554 192 172 33 325 b 426 943 33 789 190 943 b 824 554 664 943 824 788 b 426 172 824 325 665 172 m 426 254 b 732 554 607 254 732 376 b 426 860 732 736 606 860 b 125 554 249 860 125 738 b 426 254 125 376 250 254 m 568 353 b 488 431 518 353 488 375 b 385 519 488 510 461 519 l 371 519 l 371 360 l 265 360 l 265 760 l 443 760 b 600 656 556 760 600 722 b 517 549 600 603 576 564 b 606 435 575 533 606 497 b 610 415 606 418 606 418 l 638 401 l 638 400 b 568 353 629 375 613 353 m 371 588 l 424 588 b 499 640 485 588 499 607 b 425 682 499 667 479 682 l 371 682 "},"˚":{"ha":443,"x_min":0,"x_max":0,"o":"m 221 819 b 283 883 257 819 283 846 b 221 947 283 919 257 947 b 160 883 185 947 160 919 b 221 819 160 846 185 819 m 221 743 b 69 883 128 743 69 800 b 221 1022 69 965 128 1022 b 374 883 314 1022 374 965 b 221 743 374 800 314 743 "},"s":{"ha":619,"x_min":0,"x_max":0,"o":"m 324 -19 b 26 119 189 -19 88 38 l 163 197 b 328 115 199 146 260 115 b 426 185 389 115 426 142 b 258 260 426 231 354 239 b 31 458 144 283 31 328 b 292 671 31 578 144 671 b 586 526 422 671 522 613 l 450 454 b 293 536 414 508 358 536 b 193 471 232 536 193 510 b 344 397 193 426 231 419 b 592 197 463 375 592 331 b 324 -19 592 74 478 -19 "},"ś":{"ha":619,"x_min":0,"x_max":0,"o":"m 324 -19 b 26 119 189 -19 88 38 l 163 197 b 328 115 199 146 260 115 b 426 185 389 115 426 142 b 258 260 426 231 354 239 b 31 458 144 283 31 328 b 292 671 31 578 144 671 b 586 526 422 671 522 613 l 450 454 b 293 536 414 508 358 536 b 193 471 232 536 193 510 b 344 397 193 426 231 419 b 592 197 463 375 592 331 b 324 -19 592 74 478 -19 m 575 932 l 347 742 l 260 742 l 382 949 l 575 949 "},"š":{"ha":619,"x_min":0,"x_max":0,"o":"m 324 -19 b 26 119 189 -19 88 38 l 163 197 b 328 115 199 146 260 115 b 426 185 389 115 426 142 b 258 260 426 231 354 239 b 31 458 144 283 31 328 b 292 671 31 578 144 671 b 586 526 422 671 522 613 l 450 454 b 293 536 414 508 358 536 b 193 471 232 536 193 510 b 344 397 193 426 231 419 b 592 197 463 375 592 331 b 324 -19 592 74 478 -19 m 321 835 l 425 946 l 540 946 l 392 743 l 250 743 l 101 946 l 217 946 "},"ş":{"ha":619,"x_min":0,"x_max":0,"o":"m 294 -286 b 197 -271 254 -286 218 -278 l 197 -153 b 258 -162 211 -157 231 -162 b 325 -111 304 -162 325 -146 b 246 -12 325 -71 300 -39 b 26 119 149 4 75 54 l 163 197 b 328 115 199 146 261 115 b 426 186 389 115 426 142 b 258 260 426 231 354 239 b 31 458 144 283 31 328 b 292 671 31 578 144 671 b 586 526 422 671 522 613 l 450 454 b 292 536 414 508 357 536 b 193 469 232 536 193 510 b 344 397 193 426 231 419 b 592 197 463 375 592 331 b 381 -14 592 89 506 6 b 460 -153 435 -50 460 -96 b 294 -286 460 -228 410 -286 "},"ŝ":{"ha":619,"x_min":0,"x_max":0,"o":"m 324 -19 b 26 119 189 -19 88 38 l 163 197 b 328 115 199 146 260 115 b 426 185 389 115 426 142 b 258 260 426 231 354 239 b 31 458 144 283 31 328 b 292 671 31 578 144 671 b 586 526 422 671 522 613 l 450 454 b 293 536 414 508 358 536 b 193 471 232 536 193 510 b 344 397 193 426 231 419 b 592 197 463 375 592 331 b 324 -19 592 74 478 -19 m 540 742 l 425 742 l 321 854 l 217 742 l 101 742 l 250 946 l 392 946 "},"ș":{"ha":619,"x_min":0,"x_max":0,"o":"m 324 -19 b 26 119 189 -19 88 38 l 163 197 b 328 115 199 146 260 115 b 426 185 389 115 426 142 b 258 260 426 231 354 239 b 31 458 144 283 31 328 b 292 671 31 578 144 671 b 586 526 422 671 522 613 l 450 454 b 293 536 414 508 358 536 b 193 471 232 536 193 510 b 344 397 193 426 231 419 b 592 197 463 375 592 331 b 324 -19 592 74 478 -19 m 192 -361 b 272 -243 243 -337 271 -296 l 203 -243 l 203 -93 l 383 -93 l 383 -232 b 197 -376 383 -307 321 -376 "},"§":{"ha":842,"x_min":0,"x_max":0,"o":"m 431 -226 b 136 -135 318 -226 217 -193 l 214 -10 b 422 -85 290 -62 363 -85 b 536 -8 506 -83 536 -44 b 339 97 536 47 447 65 b 21 356 204 135 21 186 b 224 568 21 472 100 539 b 125 726 168 596 125 642 b 406 940 125 850 222 940 b 700 849 519 940 621 907 l 624 722 b 414 799 546 776 475 799 b 301 722 332 797 301 758 b 497 617 301 667 389 649 b 815 357 632 578 815 526 b 617 143 815 239 742 172 b 713 -12 671 115 713 69 b 431 -226 713 -136 615 -226 m 397 244 b 496 214 436 233 465 225 b 643 331 592 217 643 260 b 440 469 643 415 557 438 b 338 501 397 481 369 489 b 193 389 243 496 193 451 b 397 244 193 297 279 276 "},";":{"ha":319,"x_min":0,"x_max":0,"o":"m 31 -171 b 149 14 117 -147 149 -82 l 57 14 l 57 201 l 261 201 l 261 31 b 53 -231 261 -96 207 -200 m 256 650 l 256 449 l 58 449 l 58 650 "},"⁷":{"ha":529,"x_min":0,"x_max":0,"o":"m 333 901 l 36 901 l 33 1022 l 490 1022 l 490 963 l 251 457 l 82 457 "},"⁶":{"ha":594,"x_min":0,"x_max":0,"o":"m 317 446 b 43 747 138 446 43 543 b 304 1033 43 935 133 1033 b 540 851 461 1033 532 961 l 406 851 b 304 919 397 893 376 919 b 189 788 226 919 189 871 l 189 758 b 333 815 221 794 274 815 b 551 636 467 815 551 749 b 317 446 551 522 458 446 m 307 554 b 404 638 367 554 404 589 l 404 640 b 303 722 404 690 363 722 b 201 642 242 722 201 689 l 201 638 b 307 554 201 590 244 554 "},"/":{"ha":571,"x_min":0,"x_max":0,"o":"m 181 0 l 14 0 l 390 922 l 557 922 "}," ":{"ha":271,"x_min":0,"x_max":0,"o":""},"£":{"ha":844,"x_min":0,"x_max":0,"o":"m 578 342 l 426 342 b 438 265 433 318 438 293 b 429 190 438 239 435 214 b 581 146 479 167 528 146 b 660 224 635 146 660 171 l 660 271 l 808 271 l 808 165 b 629 -18 808 38 751 -18 b 381 86 529 -18 451 35 b 193 -18 336 22 267 -18 b 29 118 94 -18 29 36 b 196 265 29 203 97 265 b 304 247 235 265 271 258 b 272 342 300 281 288 313 l 69 342 l 69 447 l 200 447 b 114 650 156 508 114 571 b 435 940 114 824 243 940 b 799 718 610 940 725 846 l 656 618 b 438 774 614 697 554 774 b 290 635 349 774 290 718 b 375 447 290 564 335 510 l 578 447 m 196 65 b 296 146 246 65 279 96 b 190 182 261 167 226 182 b 132 121 157 182 132 157 b 196 65 132 89 163 65 "},"t":{"ha":444,"x_min":0,"x_max":0,"o":"m 269 0 b 113 174 143 7 115 65 l 113 517 l 19 517 l 19 656 l 113 656 l 113 779 l 281 874 l 281 656 l 410 656 l 410 517 l 279 517 l 279 190 b 326 143 279 158 294 144 l 403 143 l 403 0 "},"ŧ":{"ha":446,"x_min":0,"x_max":0,"o":"m 269 0 b 113 174 143 7 115 65 l 113 274 l 8 274 l 8 406 l 113 406 l 113 519 l 19 519 l 19 656 l 113 656 l 113 779 l 281 874 l 281 656 l 410 656 l 410 519 l 279 519 l 279 406 l 417 406 l 417 274 l 279 274 l 279 190 b 326 143 279 158 294 144 l 403 143 l 403 0 "},"ť":{"ha":489,"x_min":0,"x_max":0,"o":"m 269 0 b 113 174 143 7 115 65 l 113 517 l 19 517 l 19 656 l 113 656 l 113 779 l 281 874 l 281 656 l 410 656 l 410 517 l 279 517 l 279 190 b 326 143 279 158 294 144 l 403 143 l 403 0 m 360 935 l 497 935 l 497 911 l 460 706 l 346 706 "},"ţ":{"ha":444,"x_min":0,"x_max":0,"o":"m 319 0 b 400 -153 372 -47 400 -96 b 235 -286 400 -228 350 -286 b 138 -271 194 -286 158 -278 l 138 -153 b 199 -162 151 -157 171 -162 b 265 -111 244 -162 265 -146 b 183 18 265 -68 242 -29 b 113 174 129 44 114 96 l 113 517 l 19 517 l 19 656 l 113 656 l 113 779 l 281 874 l 281 656 l 410 656 l 410 517 l 279 517 l 279 190 b 326 143 279 158 294 144 l 403 143 l 403 0 "},"þ":{"ha":761,"x_min":0,"x_max":0,"o":"m 435 -14 b 236 85 351 -14 282 22 l 236 -258 l 64 -258 l 64 935 l 236 935 l 236 571 b 436 669 281 633 351 669 b 728 332 601 669 728 542 b 435 -14 728 119 603 -14 m 389 126 b 549 326 482 126 549 197 l 549 336 b 389 529 549 465 485 529 b 229 331 289 529 229 449 l 229 319 b 389 126 229 201 288 126 "},"³":{"ha":590,"x_min":0,"x_max":0,"o":"m 294 446 b 39 639 150 446 49 494 l 178 639 b 290 557 182 582 217 557 b 393 625 360 557 393 581 l 393 628 b 292 694 393 674 364 694 l 246 694 l 246 796 l 292 796 b 379 856 353 796 379 815 l 379 858 b 282 924 379 900 344 924 b 178 839 213 924 183 892 l 40 839 b 283 1033 51 965 136 1033 b 525 868 440 1033 525 974 b 425 754 525 811 493 772 b 543 617 501 733 543 688 b 294 446 543 510 456 446 "},"¾":{"ha":1335,"x_min":0,"x_max":0,"o":"m 314 336 b 67 525 171 336 74 393 l 194 525 b 313 443 200 461 247 443 b 419 525 382 443 419 471 l 419 529 b 300 593 419 582 367 592 l 269 593 l 269 690 l 301 690 b 411 756 368 690 411 710 b 310 826 411 807 379 826 b 200 739 253 826 206 806 l 75 739 b 313 932 88 861 167 932 b 540 768 460 932 540 871 b 426 649 540 708 503 667 b 553 513 510 631 553 585 b 314 336 553 404 458 336 m 1075 129 l 788 129 l 788 238 b 1035 576 857 329 1003 531 l 1214 576 l 908 232 l 1078 232 l 1078 313 l 1207 386 l 1207 232 l 1297 232 l 1297 129 l 1207 129 l 1207 0 l 1075 0 m 943 922 l 1046 922 l 483 0 l 382 0 "},"˜":{"ha":557,"x_min":0,"x_max":0,"o":"m 69 763 b 71 803 69 771 71 794 b 192 939 71 913 140 939 b 354 858 281 939 313 858 b 396 899 378 858 388 875 b 401 929 397 903 401 919 l 488 919 b 486 881 488 911 486 886 b 367 742 486 772 414 742 b 206 822 279 742 249 822 b 161 781 181 822 167 808 b 156 753 160 774 156 760 "},"™":{"ha":1003,"x_min":0,"x_max":0,"o":"m 642 682 l 717 922 l 874 922 l 874 539 l 778 539 l 778 863 l 674 539 l 599 539 l 497 860 l 497 539 l 406 539 l 406 922 l 567 922 m 351 850 l 239 850 l 239 539 l 138 539 l 138 850 l 26 850 l 26 922 l 351 922 "},"²":{"ha":547,"x_min":0,"x_max":0,"o":"m 42 482 b 356 849 42 738 356 747 b 272 913 356 885 328 913 b 139 824 215 913 175 883 l 29 892 b 279 1033 82 983 163 1033 b 503 853 413 1033 503 965 b 197 569 503 675 239 676 l 324 571 l 503 571 l 506 457 l 42 457 "},"u":{"ha":708,"x_min":0,"x_max":0,"o":"m 293 -12 b 53 263 144 -12 53 93 l 53 656 l 225 656 l 225 272 b 344 133 225 185 267 133 b 472 322 435 133 472 210 l 472 656 l 644 656 l 644 0 l 472 0 l 472 93 b 293 -12 438 25 378 -12 "},"ú":{"ha":708,"x_min":0,"x_max":0,"o":"m 293 -12 b 53 263 144 -12 53 93 l 53 656 l 225 656 l 225 272 b 344 133 225 185 267 133 b 472 322 435 133 472 210 l 472 656 l 644 656 l 644 0 l 472 0 l 472 93 b 293 -12 438 25 378 -12 m 604 932 l 376 742 l 289 742 l 411 949 l 604 949 "},"ŭ":{"ha":708,"x_min":0,"x_max":0,"o":"m 293 -12 b 53 263 144 -12 53 93 l 53 656 l 225 656 l 225 272 b 344 133 225 185 267 133 b 472 322 435 133 472 210 l 472 656 l 644 656 l 644 0 l 472 0 l 472 93 b 293 -12 438 25 378 -12 m 353 746 b 144 942 213 746 139 821 l 264 949 b 353 847 267 881 290 847 b 438 949 415 847 438 883 l 558 942 b 353 746 565 822 490 746 "},"û":{"ha":708,"x_min":0,"x_max":0,"o":"m 293 -12 b 53 263 144 -12 53 93 l 53 656 l 225 656 l 225 272 b 344 133 225 185 267 133 b 472 322 435 133 472 210 l 472 656 l 644 656 l 644 0 l 472 0 l 472 93 b 293 -12 438 25 378 -12 m 569 742 l 454 742 l 350 854 l 246 742 l 131 742 l 279 946 l 421 946 "},"ü":{"ha":708,"x_min":0,"x_max":0,"o":"m 293 -12 b 53 263 144 -12 53 93 l 53 656 l 225 656 l 225 272 b 344 133 225 185 267 133 b 472 322 435 133 472 210 l 472 656 l 644 656 l 644 0 l 472 0 l 472 93 b 293 -12 438 25 378 -12 m 297 751 l 146 751 l 146 919 l 297 919 m 556 751 l 404 751 l 404 919 l 556 919 "},"ù":{"ha":708,"x_min":0,"x_max":0,"o":"m 293 -12 b 53 263 144 -12 53 93 l 53 656 l 225 656 l 225 272 b 344 133 225 185 267 133 b 472 322 435 133 472 210 l 472 656 l 644 656 l 644 0 l 472 0 l 472 93 b 293 -12 438 25 378 -12 m 271 947 l 393 740 l 306 740 l 78 931 l 78 947 "},"ư":{"ha":874,"x_min":0,"x_max":0,"o":"m 760 890 b 878 706 851 847 878 774 b 644 474 878 560 751 485 l 644 0 l 472 0 l 472 93 b 293 -12 438 25 378 -12 b 53 263 144 -12 53 93 l 53 656 l 225 656 l 225 272 b 344 133 225 185 267 133 b 472 322 435 133 472 210 l 472 656 l 644 656 l 644 568 b 744 688 699 582 744 617 b 678 796 744 744 717 772 "},"ű":{"ha":708,"x_min":0,"x_max":0,"o":"m 293 -12 b 53 263 144 -12 53 93 l 53 656 l 225 656 l 225 272 b 344 133 225 185 267 133 b 472 322 435 133 472 210 l 472 656 l 644 656 l 644 0 l 472 0 l 472 93 b 293 -12 438 25 378 -12 m 454 932 l 260 742 l 185 742 l 289 947 l 454 947 m 726 932 l 517 742 l 438 742 l 557 947 l 726 947 "},"ū":{"ha":708,"x_min":0,"x_max":0,"o":"m 293 -12 b 53 263 144 -12 53 93 l 53 656 l 225 656 l 225 272 b 344 133 225 185 267 133 b 472 322 435 133 472 210 l 472 656 l 644 656 l 644 0 l 472 0 l 472 93 b 293 -12 438 25 378 -12 m 544 771 l 156 771 l 156 893 l 544 893 "},"_":{"ha":889,"x_min":0,"x_max":0,"o":"m 903 -311 l -14 -311 l -14 -214 l 903 -214 "}," ":{"ha":271,"x_min":0,"x_max":0,"o":""},"­":{"ha":417,"x_min":0,"x_max":0,"o":"m 364 304 l 53 304 l 53 443 l 364 443 "},"µ":{"ha":729,"x_min":0,"x_max":0,"o":"m 358 -12 b 219 83 299 -12 242 13 l 228 -258 l 64 -258 l 64 656 l 238 656 l 238 288 b 365 133 238 196 279 133 b 490 288 451 133 490 196 l 490 656 l 664 656 l 664 0 l 525 0 l 507 104 b 358 -12 481 25 421 -12 "},"Ţ":{"ha":797,"x_min":0,"x_max":0,"o":"m 768 771 l 488 771 l 488 0 l 469 0 b 572 -151 539 -37 572 -90 b 413 -292 572 -228 521 -292 b 315 -281 364 -292 336 -285 l 315 -151 b 372 -161 329 -156 343 -161 b 431 -110 410 -161 431 -143 b 321 0 431 -64 392 -22 l 311 0 l 311 771 l 31 771 l 31 922 l 768 922 "},"Ə":{"ha":926,"x_min":0,"x_max":0,"o":"m 40 501 l 703 501 b 456 786 697 713 601 786 b 222 606 313 786 239 714 l 47 633 b 460 939 75 804 214 939 b 885 468 719 939 885 786 b 456 -18 885 165 735 -18 b 40 381 221 -18 40 113 m 461 136 b 696 363 594 136 672 207 l 225 363 l 225 349 b 461 136 225 208 326 136 "},"Ț":{"ha":797,"x_min":0,"x_max":0,"o":"m 768 771 l 488 771 l 488 0 l 311 0 l 311 771 l 31 771 l 31 922 l 768 922 m 299 -361 b 379 -243 350 -337 378 -296 l 310 -243 l 310 -93 l 490 -93 l 490 -232 b 304 -376 490 -307 428 -376 "},"ȷ":{"ha":304,"x_min":0,"x_max":0,"o":"m -4 -117 b 65 -37 51 -117 65 -101 l 65 656 l 239 656 l 239 -42 b -1 -264 239 -212 171 -264 l -46 -264 l -46 -117 "},"ə":{"ha":707,"x_min":0,"x_max":0,"o":"m 344 668 b 676 332 549 668 676 536 b 350 -11 676 129 540 -11 b 32 328 151 -11 32 119 l 32 385 l 507 385 b 342 532 496 479 433 532 b 182 431 244 532 203 486 l 33 483 b 344 668 78 590 175 668 m 353 122 b 510 265 435 122 497 175 l 204 265 b 353 122 211 168 263 122 "},"ʻ":{"ha":364,"x_min":0,"x_max":0,"o":"m 92 860 b 276 1011 92 938 153 1011 l 282 996 b 201 879 233 971 204 938 l 271 879 l 271 738 l 92 738 "},"ʼ":{"ha":364,"x_min":0,"x_max":0,"o":"m 94 754 b 176 871 143 778 174 813 l 106 871 l 106 1011 l 285 1011 l 285 889 b 100 738 285 811 224 738 "},"ˊ":{"ha":454,"x_min":0,"x_max":0,"o":"m 385 932 l 158 742 l 69 742 l 192 949 l 385 949 "},"ˋ":{"ha":454,"x_min":0,"x_max":0,"o":"m 263 949 l 385 742 l 297 742 l 69 932 l 69 949 "},"̀":{"ha":0,"x_min":0,"x_max":0,"o":"m -78 949 l 44 742 l -43 742 l -271 932 l -271 949 "},"́":{"ha":0,"x_min":0,"x_max":0,"o":"m 254 932 l 26 742 l -61 742 l 61 949 l 254 949 "},"̂":{"ha":0,"x_min":0,"x_max":0,"o":"m 219 742 l 104 742 l 0 854 l -104 742 l -219 742 l -71 946 l 71 946 "},"̃":{"ha":0,"x_min":0,"x_max":0,"o":"m -208 763 b -208 803 -210 771 -208 794 b -87 939 -208 913 -139 939 b 75 858 1 939 33 858 b 117 899 99 858 108 875 b 124 929 119 903 124 919 l 208 919 b 208 881 210 911 208 886 b 88 742 208 772 135 742 b -74 822 0 742 -31 822 b -117 781 -97 822 -111 808 b -124 753 -119 774 -124 760 l -208 763 "},"̄":{"ha":0,"x_min":0,"x_max":0,"o":"m 194 771 l -194 771 l -194 893 l 194 893 "},"̆":{"ha":0,"x_min":0,"x_max":0,"o":"m 1 746 b -207 942 -139 746 -212 821 l -87 949 b 1 847 -85 881 -61 847 b 86 949 64 847 86 883 l 207 942 b 1 746 214 822 139 746 "},"̇":{"ha":0,"x_min":0,"x_max":0,"o":"m 90 751 l -89 751 l -89 919 l 90 919 "},"̈":{"ha":0,"x_min":0,"x_max":0,"o":"m -53 751 l -204 751 l -204 919 l -53 919 m 206 751 l 54 751 l 54 919 l 206 919 "},"̉":{"ha":0,"x_min":0,"x_max":0,"o":"m -50 760 b -17 833 -50 793 -40 814 b 42 893 8 851 42 867 b -12 924 42 904 33 924 b -122 889 -61 924 -99 904 l -171 968 b -1 1019 -135 994 -71 1019 b 178 911 96 1019 178 979 b 76 796 178 850 111 822 b 49 749 58 782 49 771 l 49 743 l -50 743 "},"̊":{"ha":0,"x_min":0,"x_max":0,"o":"m 0 819 b 63 883 36 819 63 846 b 0 947 63 919 36 947 b -61 883 -36 947 -61 919 b 0 819 -61 846 -36 819 m 0 743 b -151 883 -93 743 -151 800 b 0 1022 -151 965 -93 1022 b 153 883 93 1022 153 965 b 0 743 153 800 93 743 "},"̋":{"ha":0,"x_min":0,"x_max":0,"o":"m 104 932 l -90 742 l -165 742 l -61 947 l 104 947 m 376 932 l 167 742 l 88 742 l 207 947 l 376 947 "},"̌":{"ha":0,"x_min":0,"x_max":0,"o":"m 0 835 l 104 946 l 219 946 l 71 743 l -71 743 l -219 946 l -104 946 "},"̒":{"ha":0,"x_min":0,"x_max":0,"o":"m -89 892 b 96 1036 -89 965 -28 1036 l 101 1021 b 21 917 53 999 24 968 l 90 917 l 90 751 l -89 751 "},"̕":{"ha":0,"x_min":0,"x_max":0,"o":"m -12 935 l 126 935 l 126 911 l 88 706 l -26 706 "},"̛":{"ha":0,"x_min":0,"x_max":0,"o":"m 18 901 b 140 714 114 857 140 782 b -124 489 140 553 -12 485 l -160 568 b 8 696 -79 572 8 597 b -62 803 8 754 -22 781 "},"̣":{"ha":0,"x_min":0,"x_max":0,"o":"m 90 -260 l -89 -260 l -89 -93 l 90 -93 "},"̦":{"ha":0,"x_min":0,"x_max":0,"o":"m -100 -361 b -19 -243 -49 -337 -21 -296 l -89 -243 l -89 -93 l 92 -93 l 92 -232 b -94 -376 92 -307 29 -376 "},"̧":{"ha":0,"x_min":0,"x_max":0,"o":"m -17 -286 b -114 -271 -57 -286 -92 -278 l -114 -153 b -53 -162 -100 -157 -81 -162 b 15 -111 -6 -162 15 -146 b -103 0 15 -64 -25 -28 l -57 36 b 150 -153 82 -1 150 -64 b -17 -286 150 -228 99 -286 "},"̨":{"ha":0,"x_min":0,"x_max":0,"o":"m 51 -286 b -121 -154 -54 -286 -121 -229 b 108 42 -121 -57 -18 11 l 129 0 b 15 -112 51 -33 15 -69 b 81 -164 15 -146 36 -164 b 133 -157 108 -164 124 -161 l 133 -274 b 51 -286 111 -281 86 -286 "},"ẞ":{"ha":892,"x_min":0,"x_max":0,"o":"m 451 -15 b 329 -4 386 -15 367 -11 l 329 138 b 451 126 360 131 411 126 b 650 276 576 126 650 163 b 453 417 650 365 607 417 b 418 414 442 417 426 415 l 418 538 l 606 776 l 483 776 b 246 542 324 776 246 707 l 246 0 l 69 0 l 69 511 b 476 922 69 825 242 922 l 793 922 l 793 764 l 594 529 b 839 272 740 519 839 426 b 451 -15 839 124 751 -15 "},"Ạ":{"ha":922,"x_min":0,"x_max":0,"o":"m 365 922 l 567 922 l 903 0 l 715 0 l 628 246 l 282 246 l 193 0 l 18 0 m 333 392 l 579 392 l 458 733 m 553 -260 l 374 -260 l 374 -93 l 553 -93 "},"ạ":{"ha":697,"x_min":0,"x_max":0,"o":"m 263 -17 b 35 174 122 -17 35 60 b 292 386 35 321 144 354 b 478 451 413 410 474 415 l 478 458 b 354 533 478 497 443 533 b 219 431 265 533 224 489 l 219 421 l 49 421 b 356 668 54 569 171 668 b 642 413 533 668 642 590 l 642 0 l 476 0 l 476 89 b 263 -17 435 21 360 -17 m 303 107 b 478 271 385 107 474 149 l 478 326 b 325 279 440 304 379 293 b 208 182 258 263 208 240 b 303 107 208 138 243 107 m 442 -260 l 263 -260 l 263 -93 l 442 -93 "},"Ả":{"ha":922,"x_min":0,"x_max":0,"o":"m 365 922 l 567 922 l 903 0 l 715 0 l 628 246 l 282 246 l 193 0 l 18 0 m 333 392 l 579 392 l 458 733 m 411 1017 b 449 1093 411 1051 424 1074 b 514 1154 476 1114 514 1128 b 449 1185 514 1165 504 1185 b 329 1151 396 1185 356 1167 l 279 1232 b 460 1285 317 1258 385 1285 b 653 1174 565 1285 653 1244 b 542 1054 653 1110 579 1082 b 514 1006 522 1040 514 1029 l 514 1000 l 411 1000 "},"ả":{"ha":697,"x_min":0,"x_max":0,"o":"m 263 -17 b 35 174 122 -17 35 60 b 292 386 35 321 144 354 b 478 451 413 410 474 415 l 478 458 b 354 533 478 497 443 533 b 219 431 265 533 224 489 l 219 421 l 49 421 b 356 668 54 569 171 668 b 642 413 533 668 642 590 l 642 0 l 476 0 l 476 89 b 263 -17 435 21 360 -17 m 303 107 b 478 271 385 107 474 149 l 478 326 b 325 279 440 304 379 293 b 208 182 258 263 208 240 b 303 107 208 138 243 107 m 318 760 b 351 833 318 793 328 814 b 410 893 376 851 410 867 b 356 924 410 904 401 924 b 246 889 307 924 269 904 l 197 968 b 367 1019 233 994 297 1019 b 546 911 464 1019 546 979 b 444 796 546 850 479 822 b 417 749 426 782 417 771 l 417 743 l 318 743 "},"Ấ":{"ha":922,"x_min":0,"x_max":0,"o":"m 365 922 l 567 922 l 903 0 l 715 0 l 628 246 l 282 246 l 193 0 l 18 0 m 333 392 l 579 392 l 458 733 m 531 1189 l 676 990 l 564 990 l 461 1100 l 361 992 l 251 990 l 397 1189 m 903 1311 l 904 1296 l 713 1124 l 632 1122 l 751 1311 "},"ấ":{"ha":697,"x_min":0,"x_max":0,"o":"m 263 -17 b 35 174 122 -17 35 60 b 292 386 35 321 144 354 b 478 451 413 410 474 415 l 478 458 b 354 533 478 497 443 533 b 219 431 265 533 224 489 l 219 421 l 49 421 b 356 668 54 569 171 668 b 642 413 533 668 642 590 l 642 0 l 476 0 l 476 89 b 263 -17 435 21 360 -17 m 303 107 b 478 271 385 107 474 149 l 478 326 b 325 279 440 304 379 293 b 208 182 258 263 208 240 b 303 107 208 138 243 107 m 156 742 l 296 943 l 428 943 l 567 742 l 458 742 l 361 853 l 264 742 m 778 1053 l 593 876 l 515 876 l 628 1068 l 778 1068 "},"Ầ":{"ha":922,"x_min":0,"x_max":0,"o":"m 365 922 l 567 922 l 903 0 l 715 0 l 628 246 l 282 246 l 193 0 l 18 0 m 333 392 l 579 392 l 458 733 m 531 1189 l 676 990 l 564 990 l 461 1100 l 361 992 l 251 990 l 397 1189 m 510 1310 l 665 1310 l 785 1122 l 704 1122 l 510 1293 "},"ầ":{"ha":697,"x_min":0,"x_max":0,"o":"m 263 -17 b 35 174 122 -17 35 60 b 292 386 35 321 144 354 b 478 451 413 410 474 415 l 478 458 b 354 533 478 497 443 533 b 219 431 265 533 224 489 l 219 421 l 49 421 b 356 668 54 569 171 668 b 642 413 533 668 642 590 l 642 0 l 476 0 l 476 89 b 263 -17 435 21 360 -17 m 303 107 b 478 271 385 107 474 149 l 478 326 b 325 279 440 304 379 293 b 208 182 258 263 208 240 b 303 107 208 138 243 107 m 428 943 l 567 742 l 458 742 l 361 853 l 264 742 l 156 742 l 296 943 m 596 876 l 408 1053 l 408 1068 l 560 1068 l 674 876 "},"Ẩ":{"ha":922,"x_min":0,"x_max":0,"o":"m 365 922 l 567 922 l 903 0 l 715 0 l 628 246 l 282 246 l 193 0 l 18 0 m 333 392 l 579 392 l 458 733 m 650 1139 b 689 1207 650 1169 661 1188 b 742 1260 713 1224 742 1236 b 683 1292 742 1275 729 1292 b 567 1247 643 1292 600 1278 l 515 1308 b 701 1379 536 1336 607 1379 b 861 1276 789 1379 861 1340 b 768 1174 861 1219 799 1197 b 743 1129 750 1160 743 1150 l 743 1125 l 650 1125 m 531 1189 l 676 990 l 564 990 l 461 1100 l 361 992 l 251 990 l 397 1189 "},"ẩ":{"ha":697,"x_min":0,"x_max":0,"o":"m 263 -17 b 35 174 122 -17 35 60 b 292 386 35 321 144 354 b 478 451 413 410 474 415 l 478 458 b 354 533 478 497 443 533 b 219 431 265 533 224 489 l 219 421 l 49 421 b 356 668 54 569 171 668 b 642 413 533 668 642 590 l 642 0 l 476 0 l 476 89 b 263 -17 435 21 360 -17 m 303 107 b 478 271 385 107 474 149 l 478 326 b 325 279 440 304 379 293 b 208 182 258 263 208 240 b 303 107 208 138 243 107 m 536 889 b 574 960 536 922 549 939 b 619 1015 596 979 619 992 b 568 1049 619 1032 608 1049 b 461 1006 532 1049 492 1035 l 408 1067 b 585 1139 428 1094 496 1139 b 738 1033 668 1139 738 1099 b 651 926 738 974 682 951 b 628 881 635 913 628 903 l 628 875 l 536 875 m 428 943 l 567 742 l 458 742 l 361 853 l 264 742 l 156 742 l 296 943 "},"Ẫ":{"ha":922,"x_min":0,"x_max":0,"o":"m 365 922 l 567 922 l 903 0 l 715 0 l 628 246 l 282 246 l 193 0 l 18 0 m 333 392 l 579 392 l 458 733 m 544 1229 b 392 1296 465 1229 443 1296 b 347 1267 372 1296 357 1289 b 339 1232 344 1260 339 1240 l 260 1242 b 260 1282 260 1254 258 1271 b 385 1403 272 1374 333 1403 b 540 1333 467 1403 488 1333 b 585 1368 560 1333 575 1346 b 592 1399 586 1372 592 1394 l 676 1390 l 671 1349 b 544 1229 657 1260 600 1229 m 531 1189 l 676 990 l 564 990 l 461 1100 l 361 992 l 251 990 l 397 1189 "},"ẫ":{"ha":697,"x_min":0,"x_max":0,"o":"m 263 -17 b 35 174 122 -17 35 60 b 292 386 35 321 144 354 b 478 451 413 410 474 415 l 478 458 b 354 533 478 497 443 533 b 219 431 265 533 224 489 l 219 421 l 49 421 b 356 668 54 569 171 668 b 642 413 533 668 642 590 l 642 0 l 476 0 l 476 89 b 263 -17 435 21 360 -17 m 303 107 b 478 271 385 107 474 149 l 478 326 b 325 279 440 304 379 293 b 208 182 258 263 208 240 b 303 107 208 138 243 107 m 426 943 l 565 742 l 457 742 l 360 853 l 263 742 l 154 742 l 294 943 m 440 986 b 294 1057 363 986 343 1057 b 253 1025 278 1057 260 1049 b 246 990 251 1019 246 999 l 167 999 b 168 1038 167 1011 167 1028 b 289 1161 181 1132 238 1161 b 435 1089 365 1161 385 1089 b 476 1125 453 1089 468 1101 b 483 1157 478 1129 483 1150 l 564 1149 b 560 1104 564 1140 561 1114 b 440 986 546 1017 492 986 "},"Ậ":{"ha":922,"x_min":0,"x_max":0,"o":"m 365 922 l 567 922 l 903 0 l 715 0 l 628 246 l 282 246 l 193 0 l 18 0 m 333 392 l 579 392 l 458 733 m 553 -260 l 374 -260 l 374 -93 l 553 -93 m 686 992 l 567 992 l 464 1099 l 358 992 l 242 992 l 390 1193 l 536 1193 "},"ậ":{"ha":697,"x_min":0,"x_max":0,"o":"m 263 -17 b 35 174 122 -17 35 60 b 292 386 35 321 144 354 b 478 451 413 410 474 415 l 478 458 b 354 533 478 497 443 533 b 219 431 265 533 224 489 l 219 421 l 49 421 b 356 668 54 569 171 668 b 642 413 533 668 642 590 l 642 0 l 476 0 l 476 89 b 263 -17 435 21 360 -17 m 303 107 b 478 271 385 107 474 149 l 478 326 b 325 279 440 304 379 293 b 208 182 258 263 208 240 b 303 107 208 138 243 107 m 581 742 l 465 742 l 361 854 l 257 742 l 142 742 l 290 946 l 432 946 m 442 -260 l 263 -260 l 263 -93 l 442 -93 "},"Ắ":{"ha":922,"x_min":0,"x_max":0,"o":"m 365 922 l 567 922 l 903 0 l 715 0 l 628 246 l 282 246 l 193 0 l 18 0 m 333 392 l 579 392 l 458 733 m 461 994 b 250 1179 321 994 250 1067 l 365 1185 b 461 1093 367 1124 394 1093 b 557 1185 529 1093 556 1124 l 674 1179 b 461 994 674 1067 601 994 m 690 1383 l 693 1371 l 497 1197 l 415 1197 l 539 1383 "},"ắ":{"ha":697,"x_min":0,"x_max":0,"o":"m 263 -17 b 35 174 122 -17 35 60 b 292 386 35 321 144 354 b 478 451 413 410 474 415 l 478 458 b 354 533 478 497 443 533 b 219 431 265 533 224 489 l 219 421 l 49 421 b 356 668 54 569 171 668 b 642 413 533 668 642 590 l 642 0 l 476 0 l 476 89 b 263 -17 435 21 360 -17 m 303 107 b 478 271 385 107 474 149 l 478 326 b 325 279 440 304 379 293 b 208 182 258 263 208 240 b 303 107 208 138 243 107 m 582 1126 l 397 951 l 319 951 l 432 1143 l 582 1143 m 361 742 b 150 932 221 742 150 815 l 265 938 b 361 839 267 874 293 839 b 457 938 429 839 456 874 l 572 932 b 361 742 572 815 501 742 "},"Ằ":{"ha":922,"x_min":0,"x_max":0,"o":"m 365 922 l 567 922 l 903 0 l 715 0 l 628 246 l 282 246 l 193 0 l 18 0 m 333 392 l 579 392 l 458 733 m 465 994 b 253 1179 325 994 253 1067 l 369 1185 b 465 1093 371 1124 396 1093 b 560 1185 532 1093 558 1124 l 675 1179 b 465 994 675 1067 603 994 m 431 1197 l 233 1371 l 235 1385 l 390 1383 l 511 1197 "},"ằ":{"ha":697,"x_min":0,"x_max":0,"o":"m 263 -17 b 35 174 122 -17 35 60 b 292 386 35 321 144 354 b 478 451 413 410 474 415 l 478 458 b 354 533 478 497 443 533 b 219 431 265 533 224 489 l 219 421 l 49 421 b 356 668 54 569 171 668 b 642 413 533 668 642 590 l 642 0 l 476 0 l 476 89 b 263 -17 435 21 360 -17 m 303 107 b 478 271 385 107 474 149 l 478 326 b 325 279 440 304 379 293 b 208 182 258 263 208 240 b 303 107 208 138 243 107 m 361 742 b 150 931 221 742 150 814 l 265 936 b 361 838 267 872 293 838 b 457 936 429 838 456 872 l 572 931 b 361 742 572 814 501 742 m 143 1143 l 294 1143 l 407 951 l 329 951 l 143 1126 "},"Ẳ":{"ha":922,"x_min":0,"x_max":0,"o":"m 365 922 l 567 922 l 903 0 l 715 0 l 628 246 l 282 246 l 193 0 l 18 0 m 333 392 l 579 392 l 458 733 m 411 1208 b 449 1278 411 1242 422 1258 b 492 1331 471 1296 492 1308 b 444 1361 492 1344 485 1361 b 338 1319 408 1361 368 1347 l 283 1381 b 460 1451 303 1408 372 1451 b 614 1349 543 1451 614 1413 b 529 1244 614 1290 563 1267 b 506 1200 508 1231 506 1222 l 506 1196 l 411 1196 m 461 994 b 250 1179 321 994 250 1067 l 365 1185 b 461 1093 367 1124 394 1093 b 557 1185 529 1093 556 1124 l 674 1179 b 461 994 674 1067 601 994 "},"ẳ":{"ha":697,"x_min":0,"x_max":0,"o":"m 263 -17 b 35 174 122 -17 35 60 b 292 386 35 321 144 354 b 478 451 413 410 474 415 l 478 458 b 354 533 478 497 443 533 b 219 431 265 533 224 489 l 219 421 l 49 421 b 356 668 54 569 171 668 b 642 413 533 668 642 590 l 642 0 l 476 0 l 476 89 b 263 -17 435 21 360 -17 m 303 107 b 478 271 385 107 474 149 l 478 326 b 325 279 440 304 379 293 b 208 182 258 263 208 240 b 303 107 208 138 243 107 m 311 961 b 349 1032 311 994 324 1011 b 394 1088 371 1050 394 1063 b 344 1121 394 1104 385 1121 b 236 1078 307 1121 268 1107 l 183 1138 b 360 1210 203 1167 272 1210 b 514 1106 443 1210 514 1171 b 426 999 514 1046 457 1024 b 404 953 410 985 404 975 l 404 947 l 311 947 m 361 742 b 150 932 221 742 150 815 l 265 938 b 361 839 267 874 293 839 b 457 938 429 839 456 874 l 572 932 b 361 742 572 815 501 742 "},"Ẵ":{"ha":922,"x_min":0,"x_max":0,"o":"m 365 922 l 567 922 l 903 0 l 715 0 l 628 246 l 282 246 l 193 0 l 18 0 m 333 392 l 579 392 l 458 733 m 461 994 b 250 1179 321 994 250 1067 l 365 1185 b 461 1093 367 1124 394 1093 b 557 1185 529 1093 556 1124 l 674 1179 b 461 994 674 1067 601 994 m 539 1229 b 393 1297 463 1229 443 1297 b 353 1265 378 1297 360 1289 b 347 1233 351 1261 347 1239 l 267 1240 b 267 1279 267 1251 265 1269 b 389 1401 279 1372 338 1401 b 533 1332 467 1401 485 1332 b 575 1367 550 1332 567 1343 b 582 1397 578 1371 582 1392 l 664 1389 b 661 1346 664 1382 663 1354 b 539 1229 646 1260 593 1229 "},"ẵ":{"ha":697,"x_min":0,"x_max":0,"o":"m 263 -17 b 35 174 122 -17 35 60 b 292 386 35 321 144 354 b 478 451 413 410 474 415 l 478 458 b 354 533 478 497 443 533 b 219 431 265 533 224 489 l 219 421 l 49 421 b 356 668 54 569 171 668 b 642 413 533 668 642 590 l 642 0 l 476 0 l 476 89 b 263 -17 435 21 360 -17 m 303 107 b 478 271 385 107 474 149 l 478 326 b 325 279 440 304 379 293 b 208 182 258 263 208 240 b 303 107 208 138 243 107 m 361 742 b 156 932 225 742 156 815 l 271 938 b 361 839 272 874 297 839 b 454 938 426 839 453 874 l 567 932 b 361 742 567 815 497 742 m 439 985 b 294 1056 363 985 343 1056 b 253 1024 276 1056 258 1047 b 246 989 251 1018 246 996 l 167 997 b 168 1035 167 1010 167 1025 b 289 1158 182 1131 238 1158 b 433 1088 365 1158 385 1088 b 476 1124 451 1088 468 1100 b 482 1156 478 1128 482 1149 l 563 1147 b 560 1104 563 1140 561 1114 b 439 985 546 1015 492 985 "},"Ặ":{"ha":922,"x_min":0,"x_max":0,"o":"m 365 922 l 567 922 l 903 0 l 715 0 l 628 246 l 282 246 l 193 0 l 18 0 m 333 392 l 579 392 l 458 733 m 463 992 b 250 1197 325 992 243 1071 l 374 1204 b 463 1096 374 1133 400 1096 b 547 1204 522 1096 549 1133 l 672 1197 b 463 992 679 1071 597 992 m 553 -260 l 374 -260 l 374 -93 l 553 -93 "},"ặ":{"ha":697,"x_min":0,"x_max":0,"o":"m 263 -17 b 35 174 122 -17 35 60 b 292 386 35 321 144 354 b 478 451 413 410 474 415 l 478 458 b 354 533 478 497 443 533 b 219 431 265 533 224 489 l 219 421 l 49 421 b 356 668 54 569 171 668 b 642 413 533 668 642 590 l 642 0 l 476 0 l 476 89 b 263 -17 435 21 360 -17 m 303 107 b 478 271 385 107 474 149 l 478 326 b 325 279 440 304 379 293 b 208 182 258 263 208 240 b 303 107 208 138 243 107 m 363 746 b 154 942 222 746 149 821 l 274 949 b 363 847 276 881 300 847 b 447 949 425 847 447 883 l 568 942 b 363 746 575 822 500 746 m 442 -260 l 263 -260 l 263 -93 l 442 -93 "},"Ẹ":{"ha":793,"x_min":0,"x_max":0,"o":"m 572 399 l 243 399 l 243 151 l 753 151 l 753 0 l 69 0 l 69 922 l 738 922 l 738 771 l 243 771 l 243 550 l 572 550 m 519 -260 l 340 -260 l 340 -93 l 519 -93 "},"ẹ":{"ha":707,"x_min":0,"x_max":0,"o":"m 364 -11 b 32 324 160 -11 32 119 b 360 668 32 526 168 668 b 676 329 558 668 676 536 l 676 271 l 201 271 b 367 124 213 176 274 124 b 526 225 464 124 506 169 l 676 172 b 364 -11 631 67 535 -11 m 356 535 b 199 390 272 535 211 482 l 503 390 b 356 535 496 486 444 535 m 454 -260 l 275 -260 l 275 -93 l 454 -93 "},"Ẻ":{"ha":793,"x_min":0,"x_max":0,"o":"m 572 399 l 243 399 l 243 151 l 753 151 l 753 0 l 69 0 l 69 922 l 738 922 l 738 771 l 243 771 l 243 550 l 572 550 m 375 1017 b 413 1093 375 1051 388 1074 b 478 1154 440 1114 478 1128 b 413 1185 478 1165 468 1185 b 293 1151 360 1185 319 1167 l 243 1232 b 424 1285 281 1258 349 1285 b 617 1174 529 1285 617 1244 b 506 1054 617 1110 543 1082 b 478 1006 486 1040 478 1029 l 478 1000 l 375 1000 "},"ẻ":{"ha":707,"x_min":0,"x_max":0,"o":"m 364 -11 b 32 324 160 -11 32 119 b 360 668 32 526 168 668 b 676 329 558 668 676 536 l 676 271 l 201 271 b 367 124 213 176 274 124 b 526 225 464 124 506 169 l 676 172 b 364 -11 631 67 535 -11 m 356 535 b 199 390 272 535 211 482 l 503 390 b 356 535 496 486 444 535 m 319 760 b 353 833 319 793 329 814 b 411 893 378 851 411 867 b 357 924 411 904 403 924 b 247 889 308 924 271 904 l 199 968 b 368 1019 235 994 299 1019 b 547 911 465 1019 547 979 b 446 796 547 850 481 822 b 418 749 428 782 418 771 l 418 743 l 319 743 "},"Ẽ":{"ha":793,"x_min":0,"x_max":0,"o":"m 572 399 l 243 399 l 243 151 l 753 151 l 753 0 l 69 0 l 69 922 l 738 922 l 738 771 l 243 771 l 243 550 l 572 550 m 211 1014 b 211 1053 210 1022 211 1044 b 332 1186 217 1154 279 1186 b 503 1111 438 1186 443 1111 b 546 1150 526 1111 536 1128 b 553 1178 547 1153 553 1169 l 638 1167 b 636 1128 639 1160 638 1135 b 517 994 631 1026 569 994 b 347 1069 415 994 408 1069 b 303 1029 324 1069 313 1056 b 297 1006 300 1024 297 1010 "},"ẽ":{"ha":707,"x_min":0,"x_max":0,"o":"m 364 -11 b 32 324 160 -11 32 119 b 360 668 32 526 168 668 b 676 329 558 668 676 536 l 676 271 l 201 271 b 367 124 213 176 274 124 b 526 225 464 124 506 169 l 676 172 b 364 -11 631 67 535 -11 m 356 535 b 199 390 272 535 211 482 l 503 390 b 356 535 496 486 444 535 m 154 763 b 154 803 153 771 154 794 b 275 939 154 913 224 939 b 438 858 364 939 396 858 b 479 899 461 858 471 875 b 486 929 482 903 486 919 l 571 919 b 571 881 572 911 571 886 b 450 742 571 772 497 742 b 289 822 363 742 332 822 b 246 781 265 822 251 808 b 239 753 243 774 239 760 l 154 763 "},"Ế":{"ha":793,"x_min":0,"x_max":0,"o":"m 572 399 l 243 399 l 243 151 l 753 151 l 753 0 l 69 0 l 69 922 l 738 922 l 738 771 l 243 771 l 243 550 l 572 550 m 494 1189 l 640 990 l 528 990 l 425 1100 l 325 992 l 215 990 l 361 1189 m 867 1311 l 868 1296 l 676 1124 l 596 1122 l 715 1311 "},"ế":{"ha":707,"x_min":0,"x_max":0,"o":"m 364 -11 b 32 324 160 -11 32 119 b 360 668 32 526 168 668 b 676 329 558 668 676 536 l 676 271 l 201 271 b 367 124 213 176 274 124 b 526 225 464 124 506 169 l 676 172 b 364 -11 631 67 535 -11 m 356 535 b 199 390 272 535 211 482 l 503 390 b 356 535 496 486 444 535 m 158 742 l 299 943 l 431 943 l 569 742 l 461 742 l 364 853 l 267 742 m 781 1053 l 596 876 l 518 876 l 631 1068 l 781 1068 "},"Ề":{"ha":793,"x_min":0,"x_max":0,"o":"m 572 399 l 243 399 l 243 151 l 753 151 l 753 0 l 69 0 l 69 922 l 738 922 l 738 771 l 243 771 l 243 550 l 572 550 m 494 1189 l 640 990 l 528 990 l 425 1100 l 325 992 l 215 990 l 361 1189 m 474 1310 l 629 1310 l 749 1122 l 668 1122 l 474 1293 "},"ề":{"ha":707,"x_min":0,"x_max":0,"o":"m 364 -11 b 32 324 160 -11 32 119 b 360 668 32 526 168 668 b 676 329 558 668 676 536 l 676 271 l 201 271 b 367 124 213 176 274 124 b 526 225 464 124 506 169 l 676 172 b 364 -11 631 67 535 -11 m 356 535 b 199 390 272 535 211 482 l 503 390 b 356 535 496 486 444 535 m 429 943 l 568 742 l 460 742 l 363 853 l 265 742 l 157 742 l 297 943 m 597 876 l 410 1053 l 410 1068 l 561 1068 l 675 876 "},"Ể":{"ha":793,"x_min":0,"x_max":0,"o":"m 572 399 l 243 399 l 243 151 l 753 151 l 753 0 l 69 0 l 69 922 l 738 922 l 738 771 l 243 771 l 243 550 l 572 550 m 614 1139 b 653 1207 614 1169 625 1188 b 706 1260 676 1224 706 1236 b 647 1292 706 1275 693 1292 b 531 1247 607 1292 564 1278 l 479 1308 b 665 1379 500 1336 571 1379 b 825 1276 753 1379 825 1340 b 732 1174 825 1219 763 1197 b 707 1129 714 1160 707 1150 l 707 1125 l 614 1125 m 494 1189 l 640 990 l 528 990 l 425 1100 l 325 992 l 215 990 l 361 1189 "},"ể":{"ha":707,"x_min":0,"x_max":0,"o":"m 364 -11 b 32 324 160 -11 32 119 b 360 668 32 526 168 668 b 676 329 558 668 676 536 l 676 271 l 201 271 b 367 124 213 176 274 124 b 526 225 464 124 506 169 l 676 172 b 364 -11 631 67 535 -11 m 356 535 b 199 390 272 535 211 482 l 503 390 b 356 535 496 486 444 535 m 538 889 b 575 960 538 922 550 939 b 621 1015 597 979 621 992 b 569 1049 621 1032 610 1049 b 463 1006 533 1049 493 1035 l 410 1067 b 586 1139 429 1094 497 1139 b 739 1033 669 1139 739 1099 b 653 926 739 974 683 951 b 629 881 636 913 629 903 l 629 875 l 538 875 m 429 943 l 568 742 l 460 742 l 363 853 l 265 742 l 157 742 l 297 943 "},"Ễ":{"ha":793,"x_min":0,"x_max":0,"o":"m 572 399 l 243 399 l 243 151 l 753 151 l 753 0 l 69 0 l 69 922 l 738 922 l 738 771 l 243 771 l 243 550 l 572 550 m 508 1229 b 356 1296 429 1229 407 1296 b 311 1267 336 1296 321 1289 b 303 1232 308 1260 303 1240 l 224 1242 b 224 1282 224 1254 222 1271 b 349 1403 236 1374 297 1403 b 504 1333 431 1403 451 1333 b 549 1368 524 1333 539 1346 b 556 1399 550 1372 556 1394 l 640 1390 l 635 1349 b 508 1229 621 1260 564 1229 m 494 1189 l 640 990 l 528 990 l 425 1100 l 325 992 l 215 990 l 361 1189 "},"ễ":{"ha":707,"x_min":0,"x_max":0,"o":"m 364 -11 b 32 324 160 -11 32 119 b 360 668 32 526 168 668 b 676 329 558 668 676 536 l 676 271 l 201 271 b 367 124 213 176 274 124 b 526 225 464 124 506 169 l 676 172 b 364 -11 631 67 535 -11 m 356 535 b 199 390 272 535 211 482 l 503 390 b 356 535 496 486 444 535 m 428 943 l 567 742 l 458 742 l 361 853 l 264 742 l 156 742 l 296 943 m 442 986 b 296 1057 364 986 344 1057 b 254 1025 279 1057 261 1049 b 247 990 253 1019 247 999 l 168 999 b 169 1038 168 1011 168 1028 b 290 1161 182 1132 239 1161 b 436 1089 367 1161 386 1089 b 478 1125 454 1089 469 1101 b 485 1157 479 1129 485 1150 l 565 1149 b 561 1104 565 1140 563 1114 b 442 986 547 1017 493 986 "},"Ệ":{"ha":793,"x_min":0,"x_max":0,"o":"m 572 399 l 243 399 l 243 151 l 753 151 l 753 0 l 69 0 l 69 922 l 738 922 l 738 771 l 243 771 l 243 550 l 572 550 m 519 -260 l 340 -260 l 340 -93 l 519 -93 m 650 992 l 531 992 l 428 1099 l 322 992 l 206 992 l 354 1193 l 500 1193 "},"ệ":{"ha":707,"x_min":0,"x_max":0,"o":"m 364 -11 b 32 324 160 -11 32 119 b 360 668 32 526 168 668 b 676 329 558 668 676 536 l 676 271 l 201 271 b 367 124 213 176 274 124 b 526 225 464 124 506 169 l 676 172 b 364 -11 631 67 535 -11 m 356 535 b 199 390 272 535 211 482 l 503 390 b 356 535 496 486 444 535 m 582 742 l 467 742 l 363 854 l 258 742 l 143 742 l 292 946 l 433 946 m 453 -260 l 274 -260 l 274 -93 l 453 -93 "},"Ỉ":{"ha":329,"x_min":0,"x_max":0,"o":"m 253 0 l 76 0 l 76 922 l 253 922 m 114 1017 b 151 1093 114 1051 126 1074 b 217 1154 179 1114 217 1128 b 151 1185 217 1165 207 1185 b 32 1151 99 1185 58 1167 l -18 1232 b 163 1285 19 1258 88 1285 b 356 1174 268 1285 356 1244 b 244 1054 356 1110 282 1082 b 217 1006 225 1040 217 1029 l 217 1000 l 114 1000 "},"ỉ":{"ha":304,"x_min":0,"x_max":0,"o":"m 239 0 l 65 0 l 65 656 l 239 656 m 106 760 b 140 833 106 793 115 814 b 199 893 164 851 199 867 b 147 924 199 904 186 924 b 71 900 121 924 92 913 l 32 983 b 168 1019 69 1004 118 1019 b 335 911 254 1019 335 979 b 233 796 335 850 268 822 b 206 749 215 782 206 771 l 206 743 l 106 743 "},"Ị":{"ha":329,"x_min":0,"x_max":0,"o":"m 253 0 l 76 0 l 76 922 l 253 922 m 256 -260 l 76 -260 l 76 -93 l 256 -93 "},"ị":{"ha":304,"x_min":0,"x_max":0,"o":"m 239 0 l 65 0 l 65 656 l 239 656 m 240 751 l 61 751 l 61 919 l 240 919 m 240 -260 l 61 -260 l 61 -93 l 240 -93 "},"Ọ":{"ha":992,"x_min":0,"x_max":0,"o":"m 494 136 b 767 458 663 136 767 254 l 767 465 b 497 786 767 667 665 786 b 225 465 329 786 225 669 l 225 458 b 494 136 225 257 326 136 m 492 -18 b 40 461 222 -18 40 176 b 500 940 40 744 224 940 b 951 461 769 940 951 746 b 492 -18 951 178 768 -18 m 586 -260 l 407 -260 l 407 -93 l 586 -93 "},"ọ":{"ha":738,"x_min":0,"x_max":0,"o":"m 367 128 b 531 322 468 128 531 200 l 531 328 b 369 528 531 453 469 528 b 207 328 268 528 207 453 l 207 322 b 367 128 207 200 267 128 m 365 -12 b 32 326 168 -12 32 126 b 369 668 32 526 171 668 b 706 326 567 668 706 526 b 365 -12 706 129 564 -12 m 460 -260 l 281 -260 l 281 -93 l 460 -93 "},"Ỏ":{"ha":992,"x_min":0,"x_max":0,"o":"m 494 136 b 767 458 663 136 767 254 l 767 465 b 497 786 767 667 665 786 b 225 465 329 786 225 669 l 225 458 b 494 136 225 257 326 136 m 492 -18 b 40 461 222 -18 40 176 b 500 940 40 744 224 940 b 951 461 769 940 951 746 b 492 -18 951 178 768 -18 m 446 1017 b 483 1093 446 1051 458 1074 b 549 1154 511 1114 549 1128 b 483 1185 549 1165 539 1185 b 364 1151 431 1185 390 1167 l 314 1232 b 494 1285 351 1258 419 1285 b 688 1174 600 1285 688 1244 b 576 1054 688 1110 614 1082 b 549 1006 557 1040 549 1029 l 549 1000 l 446 1000 "},"ỏ":{"ha":738,"x_min":0,"x_max":0,"o":"m 367 128 b 531 322 468 128 531 200 l 531 328 b 369 528 531 453 469 528 b 207 328 268 528 207 453 l 207 322 b 367 128 207 200 267 128 m 365 -12 b 32 326 168 -12 32 126 b 369 668 32 526 171 668 b 706 326 567 668 706 526 b 365 -12 706 129 564 -12 m 325 760 b 358 833 325 793 335 814 b 417 893 383 851 417 867 b 363 924 417 904 408 924 b 253 889 314 924 276 904 l 204 968 b 374 1019 240 994 304 1019 b 553 911 471 1019 553 979 b 451 796 553 850 486 822 b 424 749 433 782 424 771 l 424 743 l 325 743 "},"Ố":{"ha":992,"x_min":0,"x_max":0,"o":"m 494 136 b 767 458 663 136 767 254 l 767 465 b 497 786 767 667 665 786 b 225 465 329 786 225 669 l 225 458 b 494 136 225 257 326 136 m 492 -18 b 40 461 222 -18 40 176 b 500 940 40 744 224 940 b 951 461 769 940 951 746 b 492 -18 951 178 768 -18 m 565 1189 l 711 990 l 599 990 l 496 1100 l 396 992 l 286 990 l 432 1189 m 938 1311 l 939 1296 l 747 1124 l 667 1122 l 786 1311 "},"ố":{"ha":738,"x_min":0,"x_max":0,"o":"m 367 128 b 531 322 468 128 531 200 l 531 328 b 369 528 531 453 469 528 b 207 328 268 528 207 453 l 207 322 b 367 128 207 200 267 128 m 365 -12 b 32 326 168 -12 32 126 b 369 668 32 526 171 668 b 706 326 567 668 706 526 b 365 -12 706 129 564 -12 m 164 742 l 304 943 l 436 943 l 575 742 l 467 742 l 369 853 l 272 742 m 786 1053 l 601 876 l 524 876 l 636 1068 l 786 1068 "},"Ồ":{"ha":992,"x_min":0,"x_max":0,"o":"m 494 136 b 767 458 663 136 767 254 l 767 465 b 497 786 767 667 665 786 b 225 465 329 786 225 669 l 225 458 b 494 136 225 257 326 136 m 492 -18 b 40 461 222 -18 40 176 b 500 940 40 744 224 940 b 951 461 769 940 951 746 b 492 -18 951 178 768 -18 m 565 1189 l 711 990 l 599 990 l 496 1100 l 396 992 l 286 990 l 432 1189 m 544 1310 l 700 1310 l 819 1122 l 739 1122 l 544 1293 "},"ồ":{"ha":738,"x_min":0,"x_max":0,"o":"m 367 128 b 531 322 468 128 531 200 l 531 328 b 369 528 531 453 469 528 b 207 328 268 528 207 453 l 207 322 b 367 128 207 200 267 128 m 365 -12 b 32 326 168 -12 32 126 b 369 668 32 526 171 668 b 706 326 567 668 706 526 b 365 -12 706 129 564 -12 m 436 943 l 575 742 l 467 742 l 369 853 l 272 742 l 164 742 l 304 943 m 604 876 l 417 1053 l 417 1068 l 568 1068 l 682 876 "},"Ổ":{"ha":992,"x_min":0,"x_max":0,"o":"m 494 136 b 767 458 663 136 767 254 l 767 465 b 497 786 767 667 665 786 b 225 465 329 786 225 669 l 225 458 b 494 136 225 257 326 136 m 492 -18 b 40 461 222 -18 40 176 b 500 940 40 744 224 940 b 951 461 769 940 951 746 b 492 -18 951 178 768 -18 m 685 1139 b 724 1207 685 1169 696 1188 b 776 1260 747 1224 776 1236 b 718 1292 776 1275 764 1292 b 601 1247 678 1292 635 1278 l 550 1308 b 736 1379 571 1336 642 1379 b 896 1276 824 1379 896 1340 b 803 1174 896 1219 833 1197 b 778 1129 785 1160 778 1150 l 778 1125 l 685 1125 m 565 1189 l 711 990 l 599 990 l 496 1100 l 396 992 l 286 990 l 432 1189 "},"ổ":{"ha":738,"x_min":0,"x_max":0,"o":"m 367 128 b 531 322 468 128 531 200 l 531 328 b 369 528 531 453 469 528 b 207 328 268 528 207 453 l 207 322 b 367 128 207 200 267 128 m 365 -12 b 32 326 168 -12 32 126 b 369 668 32 526 171 668 b 706 326 567 668 706 526 b 365 -12 706 129 564 -12 m 544 889 b 582 960 544 922 557 939 b 628 1015 604 979 628 992 b 576 1049 628 1032 617 1049 b 469 1006 540 1049 500 1035 l 417 1067 b 593 1139 436 1094 504 1139 b 746 1033 676 1139 746 1099 b 660 926 746 974 690 951 b 636 881 643 913 636 903 l 636 875 l 544 875 m 436 943 l 575 742 l 467 742 l 369 853 l 272 742 l 164 742 l 304 943 "},"Ỗ":{"ha":992,"x_min":0,"x_max":0,"o":"m 494 136 b 767 458 663 136 767 254 l 767 465 b 497 786 767 667 665 786 b 225 465 329 786 225 669 l 225 458 b 494 136 225 257 326 136 m 492 -18 b 40 461 222 -18 40 176 b 500 940 40 744 224 940 b 951 461 769 940 951 746 b 492 -18 951 178 768 -18 m 579 1229 b 426 1296 500 1229 478 1296 b 382 1267 407 1296 392 1289 b 374 1232 379 1260 374 1240 l 294 1242 b 294 1282 294 1254 293 1271 b 419 1403 307 1374 368 1403 b 575 1333 501 1403 522 1333 b 619 1368 594 1333 610 1346 b 626 1399 621 1372 626 1394 l 711 1390 l 706 1349 b 579 1229 692 1260 635 1229 m 565 1189 l 711 990 l 599 990 l 496 1100 l 396 992 l 286 990 l 432 1189 "},"ỗ":{"ha":738,"x_min":0,"x_max":0,"o":"m 367 128 b 531 322 468 128 531 200 l 531 328 b 369 528 531 453 469 528 b 207 328 268 528 207 453 l 207 322 b 367 128 207 200 267 128 m 365 -12 b 32 326 168 -12 32 126 b 369 668 32 526 171 668 b 706 326 567 668 706 526 b 365 -12 706 129 564 -12 m 435 943 l 574 742 l 465 742 l 368 853 l 271 742 l 163 742 l 303 943 m 449 986 b 303 1057 371 986 351 1057 b 261 1025 286 1057 268 1049 b 254 990 260 1019 254 999 l 175 999 b 176 1038 175 1011 175 1028 b 297 1161 189 1132 246 1161 b 443 1089 374 1161 393 1089 b 485 1125 461 1089 476 1101 b 492 1157 486 1129 492 1150 l 572 1149 b 568 1104 572 1140 569 1114 b 449 986 554 1017 500 986 "},"Ộ":{"ha":992,"x_min":0,"x_max":0,"o":"m 494 136 b 767 458 663 136 767 254 l 767 465 b 497 786 767 667 665 786 b 225 465 329 786 225 669 l 225 458 b 494 136 225 257 326 136 m 492 -18 b 40 461 222 -18 40 176 b 500 940 40 744 224 940 b 951 461 769 940 951 746 b 492 -18 951 178 768 -18 m 721 992 l 601 992 l 499 1099 l 393 992 l 276 992 l 425 1193 l 571 1193 m 586 -260 l 407 -260 l 407 -93 l 586 -93 "},"ộ":{"ha":738,"x_min":0,"x_max":0,"o":"m 367 128 b 531 322 468 128 531 200 l 531 328 b 369 528 531 453 469 528 b 207 328 268 528 207 453 l 207 322 b 367 128 207 200 267 128 m 365 -12 b 32 326 168 -12 32 126 b 369 668 32 526 171 668 b 706 326 567 668 706 526 b 365 -12 706 129 564 -12 m 589 742 l 474 742 l 369 854 l 265 742 l 150 742 l 299 946 l 440 946 m 460 -260 l 281 -260 l 281 -93 l 460 -93 "},"Ớ":{"ha":1086,"x_min":0,"x_max":0,"o":"m 492 -18 b 40 461 222 -18 40 176 b 500 940 40 744 224 940 b 858 768 654 940 779 876 b 957 889 913 782 957 817 b 890 996 957 946 929 974 l 972 1093 b 1089 906 1063 1049 1089 974 b 908 681 1089 782 1000 708 b 951 461 936 617 951 543 b 492 -18 951 178 768 -18 m 494 136 b 767 458 663 136 767 254 l 767 465 b 497 786 767 667 665 786 b 225 465 329 786 225 669 l 225 458 b 494 136 225 257 326 136 m 758 1181 l 532 992 l 442 992 l 565 1196 l 758 1196 "},"ớ":{"ha":824,"x_min":0,"x_max":0,"o":"m 711 890 b 829 706 803 847 829 774 b 667 494 829 592 751 524 b 706 326 692 446 706 389 b 365 -12 706 129 564 -12 b 32 326 168 -12 32 126 b 369 668 32 526 171 668 b 611 572 467 668 551 632 b 696 688 658 589 696 624 b 628 796 696 744 668 772 m 367 128 b 531 322 468 128 531 200 l 531 328 b 369 528 531 457 469 528 b 207 328 268 528 207 453 l 207 322 b 367 128 207 200 267 128 m 624 932 l 396 742 l 308 742 l 431 949 l 624 949 "},"Ờ":{"ha":1086,"x_min":0,"x_max":0,"o":"m 492 -18 b 40 461 222 -18 40 176 b 500 940 40 744 224 940 b 858 768 654 940 779 876 b 957 889 913 782 957 817 b 890 996 957 946 929 974 l 972 1093 b 1089 906 1063 1049 1089 974 b 908 681 1089 782 1000 708 b 951 461 936 617 951 543 b 492 -18 951 178 768 -18 m 494 136 b 767 458 663 136 767 254 l 767 465 b 497 786 767 667 665 786 b 225 465 329 786 225 669 l 225 458 b 494 136 225 257 326 136 m 425 1196 l 550 992 l 458 992 l 232 1181 l 232 1196 "},"ờ":{"ha":824,"x_min":0,"x_max":0,"o":"m 711 890 b 829 706 803 847 829 774 b 667 494 829 592 751 524 b 706 326 692 446 706 389 b 365 -12 706 129 564 -12 b 32 326 168 -12 32 126 b 369 668 32 526 171 668 b 611 572 467 668 551 632 b 696 688 658 589 696 624 b 628 796 696 744 668 772 m 367 128 b 531 322 468 128 531 200 l 531 328 b 369 528 531 457 469 528 b 207 328 268 528 207 453 l 207 322 b 367 128 207 200 267 128 m 292 949 l 414 742 l 326 742 l 99 932 l 99 949 "},"Ở":{"ha":1086,"x_min":0,"x_max":0,"o":"m 492 -18 b 40 461 222 -18 40 176 b 500 940 40 744 224 940 b 858 768 654 940 779 876 b 957 889 913 782 957 817 b 890 996 957 946 929 974 l 972 1093 b 1089 906 1063 1049 1089 974 b 908 681 1089 782 1000 708 b 951 461 936 617 951 543 b 492 -18 951 178 768 -18 m 494 136 b 767 458 663 136 767 254 l 767 465 b 497 786 767 667 665 786 b 225 465 329 786 225 669 l 225 458 b 494 136 225 257 326 136 m 446 1017 b 483 1093 446 1051 458 1074 b 549 1154 511 1114 549 1128 b 483 1185 549 1165 539 1185 b 364 1151 431 1185 390 1167 l 314 1232 b 494 1285 351 1258 419 1285 b 688 1174 600 1285 688 1244 b 576 1054 688 1110 614 1082 b 549 1006 557 1040 549 1029 l 549 1000 l 446 1000 "},"ở":{"ha":824,"x_min":0,"x_max":0,"o":"m 711 890 b 829 706 803 847 829 774 b 667 494 829 592 751 524 b 706 326 692 446 706 389 b 365 -12 706 129 564 -12 b 32 326 168 -12 32 126 b 369 668 32 526 171 668 b 611 572 467 668 551 632 b 696 688 658 589 696 624 b 628 796 696 744 668 772 m 367 128 b 531 322 468 128 531 200 l 531 328 b 369 528 531 457 469 528 b 207 328 268 528 207 453 l 207 322 b 367 128 207 200 267 128 m 325 760 b 358 833 325 793 335 814 b 417 893 383 851 417 867 b 363 924 417 904 408 924 b 253 889 314 924 276 904 l 204 968 b 374 1019 240 994 304 1019 b 553 911 471 1019 553 979 b 451 796 553 850 486 822 b 424 749 433 782 424 771 l 424 743 l 325 743 "},"Ỡ":{"ha":1086,"x_min":0,"x_max":0,"o":"m 492 -18 b 40 461 222 -18 40 176 b 500 940 40 744 224 940 b 858 768 654 940 779 876 b 957 889 913 782 957 817 b 890 996 957 946 929 974 l 972 1093 b 1089 906 1063 1049 1089 974 b 908 681 1089 782 1000 708 b 951 461 936 617 951 543 b 492 -18 951 178 768 -18 m 494 136 b 767 458 663 136 767 254 l 767 465 b 497 786 767 667 665 786 b 225 465 329 786 225 669 l 225 458 b 494 136 225 257 326 136 m 282 1014 b 282 1053 281 1022 282 1044 b 403 1186 288 1154 350 1186 b 574 1111 508 1186 514 1111 b 617 1150 597 1111 607 1128 b 624 1178 618 1153 624 1169 l 708 1167 b 707 1128 710 1160 708 1135 b 588 994 701 1026 640 994 b 418 1069 486 994 479 1069 b 374 1029 394 1069 383 1056 b 368 1006 371 1024 368 1010 "},"ỡ":{"ha":824,"x_min":0,"x_max":0,"o":"m 711 890 b 829 706 803 847 829 774 b 667 494 829 592 751 524 b 706 326 692 446 706 389 b 365 -12 706 129 564 -12 b 32 326 168 -12 32 126 b 369 668 32 526 171 668 b 611 572 467 668 551 632 b 696 688 658 589 696 624 b 628 796 696 744 668 772 m 367 128 b 531 322 468 128 531 200 l 531 328 b 369 528 531 457 469 528 b 207 328 268 528 207 453 l 207 322 b 367 128 207 200 267 128 m 161 763 b 161 803 160 771 161 794 b 282 939 161 913 231 939 b 444 858 371 939 403 858 b 486 899 468 858 478 875 b 493 929 489 903 493 919 l 578 919 b 578 881 579 911 578 886 b 457 742 578 772 504 742 b 296 822 369 742 339 822 b 253 781 272 822 258 808 b 246 753 250 774 246 760 l 161 763 "},"Ợ":{"ha":1075,"x_min":0,"x_max":0,"o":"m 492 -18 b 40 461 222 -18 40 176 b 500 940 40 744 224 940 b 858 768 654 940 779 876 b 957 889 913 782 957 817 b 890 996 957 946 929 974 l 972 1093 b 1089 906 1063 1049 1089 974 b 908 681 1089 782 1000 708 b 951 461 936 617 951 543 b 492 -18 951 178 768 -18 m 494 136 b 767 458 663 136 767 254 l 767 465 b 497 786 767 667 665 786 b 225 465 329 786 225 669 l 225 458 b 494 136 225 257 326 136 m 586 -260 l 407 -260 l 407 -93 l 586 -93 "},"ợ":{"ha":824,"x_min":0,"x_max":0,"o":"m 711 890 b 829 706 803 847 829 774 b 667 494 829 592 751 524 b 706 326 692 446 706 389 b 365 -12 706 129 564 -12 b 32 326 168 -12 32 126 b 369 668 32 526 171 668 b 611 572 467 668 551 632 b 696 688 658 589 696 624 b 628 796 696 744 668 772 m 367 128 b 531 322 468 128 531 200 l 531 328 b 369 528 531 457 469 528 b 207 328 268 528 207 453 l 207 322 b 367 128 207 200 267 128 m 460 -260 l 281 -260 l 281 -93 l 460 -93 "},"Ụ":{"ha":892,"x_min":0,"x_max":0,"o":"m 450 -18 b 68 372 200 -18 68 119 l 68 922 l 244 922 l 244 374 b 451 133 244 213 311 133 b 656 371 594 133 656 208 l 656 922 l 824 922 l 824 371 b 450 -18 824 110 679 -18 m 538 -260 l 358 -260 l 358 -93 l 538 -93 "},"ụ":{"ha":708,"x_min":0,"x_max":0,"o":"m 293 -12 b 53 263 144 -12 53 93 l 53 656 l 225 656 l 225 272 b 344 133 225 185 267 133 b 472 322 435 133 472 210 l 472 656 l 644 656 l 644 0 l 472 0 l 472 93 b 293 -12 438 25 378 -12 m 435 -260 l 256 -260 l 256 -93 l 435 -93 "},"Ủ":{"ha":892,"x_min":0,"x_max":0,"o":"m 450 -18 b 68 372 200 -18 68 119 l 68 922 l 244 922 l 244 374 b 451 133 244 213 311 133 b 656 371 594 133 656 208 l 656 922 l 824 922 l 824 371 b 450 -18 824 110 679 -18 m 397 1017 b 435 1093 397 1051 410 1074 b 500 1154 463 1114 500 1128 b 435 1185 500 1165 490 1185 b 315 1151 382 1185 342 1167 l 265 1232 b 446 1285 303 1258 371 1285 b 639 1174 551 1285 639 1244 b 528 1054 639 1110 565 1082 b 500 1006 508 1040 500 1029 l 500 1000 l 397 1000 "},"ủ":{"ha":708,"x_min":0,"x_max":0,"o":"m 293 -12 b 53 263 144 -12 53 93 l 53 656 l 225 656 l 225 272 b 344 133 225 185 267 133 b 472 322 435 133 472 210 l 472 656 l 644 656 l 644 0 l 472 0 l 472 93 b 293 -12 438 25 378 -12 m 301 760 b 335 833 301 793 311 814 b 393 893 360 851 393 867 b 339 924 393 904 385 924 b 229 889 290 924 253 904 l 181 968 b 350 1019 217 994 281 1019 b 529 911 447 1019 529 979 b 428 796 529 850 463 822 b 400 749 410 782 400 771 l 400 743 l 301 743 "},"Ứ":{"ha":1072,"x_min":0,"x_max":0,"o":"m 450 -18 b 67 372 200 -18 67 119 l 67 922 l 243 922 l 243 374 b 451 133 243 213 311 133 b 654 371 594 133 654 208 l 654 922 l 824 922 l 824 779 b 944 904 888 789 944 822 b 876 1011 944 961 917 989 l 960 1108 b 1076 921 1050 1064 1076 989 b 824 685 1076 765 935 688 l 824 371 b 450 -18 824 110 679 -18 m 711 1181 l 485 992 l 394 992 l 518 1196 l 711 1196 "},"ứ":{"ha":874,"x_min":0,"x_max":0,"o":"m 760 890 b 878 706 851 847 878 774 b 644 474 878 560 751 485 l 644 0 l 472 0 l 472 93 b 293 -12 438 25 378 -12 b 53 263 144 -12 53 93 l 53 656 l 225 656 l 225 272 b 344 133 225 185 267 133 b 472 322 435 133 472 210 l 472 656 l 644 656 l 644 568 b 744 688 699 582 744 617 b 678 796 744 744 717 772 m 601 932 l 374 742 l 286 742 l 408 949 l 601 949 "},"Ừ":{"ha":1072,"x_min":0,"x_max":0,"o":"m 450 -18 b 67 372 200 -18 67 119 l 67 922 l 243 922 l 243 374 b 451 133 243 213 311 133 b 654 371 594 133 654 208 l 654 922 l 824 922 l 824 779 b 944 904 888 789 944 822 b 876 1011 944 961 917 989 l 960 1108 b 1076 921 1050 1064 1076 989 b 824 685 1076 765 935 688 l 824 371 b 450 -18 824 110 679 -18 m 378 1196 l 503 992 l 411 992 l 185 1181 l 185 1196 "},"ừ":{"ha":874,"x_min":0,"x_max":0,"o":"m 760 890 b 878 706 851 847 878 774 b 644 474 878 560 751 485 l 644 0 l 472 0 l 472 93 b 293 -12 438 25 378 -12 b 53 263 144 -12 53 93 l 53 656 l 225 656 l 225 272 b 344 133 225 185 267 133 b 472 322 435 133 472 210 l 472 656 l 644 656 l 644 568 b 744 688 699 582 744 617 b 678 796 744 744 717 772 m 268 947 l 390 740 l 303 740 l 75 931 l 75 947 "},"Ử":{"ha":1072,"x_min":0,"x_max":0,"o":"m 450 -18 b 67 372 200 -18 67 119 l 67 922 l 243 922 l 243 374 b 451 133 243 213 311 133 b 654 371 594 133 654 208 l 654 922 l 824 922 l 824 779 b 944 904 888 789 944 822 b 876 1011 944 961 917 989 l 960 1108 b 1076 921 1050 1064 1076 989 b 824 685 1076 765 935 688 l 824 371 b 450 -18 824 110 679 -18 m 399 1017 b 436 1093 399 1051 411 1074 b 501 1154 464 1114 501 1128 b 436 1185 501 1165 492 1185 b 317 1151 383 1185 343 1167 l 267 1232 b 447 1285 304 1258 372 1285 b 640 1174 553 1285 640 1244 b 529 1054 640 1110 567 1082 b 501 1006 510 1040 501 1029 l 501 1000 l 399 1000 "},"ử":{"ha":874,"x_min":0,"x_max":0,"o":"m 760 890 b 878 706 851 847 878 774 b 644 474 878 560 751 485 l 644 0 l 472 0 l 472 93 b 293 -12 438 25 378 -12 b 53 263 144 -12 53 93 l 53 656 l 225 656 l 225 272 b 344 133 225 185 267 133 b 472 322 435 133 472 210 l 472 656 l 644 656 l 644 568 b 744 688 699 582 744 617 b 678 796 744 744 717 772 m 299 760 b 332 833 299 793 308 814 b 390 893 357 851 390 867 b 336 924 390 904 382 924 b 226 889 288 924 250 904 l 178 968 b 347 1019 214 994 278 1019 b 526 911 444 1019 526 979 b 425 796 526 850 460 822 b 397 749 407 782 397 771 l 397 743 l 299 743 "},"Ữ":{"ha":1072,"x_min":0,"x_max":0,"o":"m 450 -18 b 67 372 200 -18 67 119 l 67 922 l 243 922 l 243 374 b 451 133 243 213 311 133 b 654 371 594 133 654 208 l 654 922 l 824 922 l 824 779 b 944 904 888 789 944 822 b 876 1011 944 961 917 989 l 960 1108 b 1076 921 1050 1064 1076 989 b 824 685 1076 765 935 688 l 824 371 b 450 -18 824 110 679 -18 m 235 1014 b 235 1053 233 1022 235 1044 b 356 1186 240 1154 303 1186 b 526 1111 461 1186 467 1111 b 569 1150 550 1111 560 1128 b 576 1178 571 1153 576 1169 l 661 1167 b 660 1128 663 1160 661 1135 b 540 994 654 1026 593 994 b 371 1069 439 994 432 1069 b 326 1029 347 1069 336 1056 b 321 1006 324 1024 321 1010 "},"ữ":{"ha":874,"x_min":0,"x_max":0,"o":"m 760 890 b 878 706 851 847 878 774 b 644 474 878 560 751 485 l 644 0 l 472 0 l 472 93 b 293 -12 438 25 378 -12 b 53 263 144 -12 53 93 l 53 656 l 225 656 l 225 272 b 344 133 225 185 267 133 b 472 322 435 133 472 210 l 472 656 l 644 656 l 644 568 b 744 688 699 582 744 617 b 678 796 744 744 717 772 m 139 768 b 139 808 138 776 139 800 b 260 944 139 918 208 944 b 422 864 349 944 381 864 b 464 904 446 864 456 881 b 471 935 467 908 471 925 l 556 925 b 556 886 557 917 556 892 b 435 747 556 778 482 747 b 274 828 347 747 317 828 b 231 786 250 828 236 814 b 224 758 228 779 224 765 l 139 768 "},"Ự":{"ha":1072,"x_min":0,"x_max":0,"o":"m 450 -18 b 67 372 200 -18 67 119 l 67 922 l 243 922 l 243 374 b 451 133 243 213 311 133 b 654 371 594 133 654 208 l 654 922 l 824 922 l 824 779 b 944 904 888 789 944 822 b 876 1011 944 961 917 989 l 960 1108 b 1076 921 1050 1064 1076 989 b 824 685 1076 765 935 688 l 824 371 b 450 -18 824 110 679 -18 m 538 -260 l 358 -260 l 358 -93 l 538 -93 "},"ự":{"ha":874,"x_min":0,"x_max":0,"o":"m 760 890 b 878 706 851 847 878 774 b 644 474 878 560 751 485 l 644 0 l 472 0 l 472 93 b 293 -12 438 25 378 -12 b 53 263 144 -12 53 93 l 53 656 l 225 656 l 225 272 b 344 133 225 185 267 133 b 472 322 435 133 472 210 l 472 656 l 644 656 l 644 568 b 744 688 699 582 744 617 b 678 796 744 744 717 772 m 431 -260 l 251 -260 l 251 -93 l 431 -93 "},"Ỵ":{"ha":860,"x_min":0,"x_max":0,"o":"m 853 922 l 518 415 l 518 0 l 342 0 l 342 417 l 10 922 l 210 922 l 436 567 l 661 922 m 521 -260 l 342 -260 l 342 -93 l 521 -93 "},"ỵ":{"ha":646,"x_min":0,"x_max":0,"o":"m 104 -117 b 246 6 183 -117 204 -103 l -1 656 l 179 656 l 332 199 l 475 656 l 647 656 l 397 -61 b 117 -265 342 -206 275 -265 l 36 -265 l 36 -117 m 658 -260 l 479 -260 l 479 -93 l 658 -93 "},"Ỷ":{"ha":860,"x_min":0,"x_max":0,"o":"m 853 922 l 518 415 l 518 0 l 342 0 l 342 417 l 10 922 l 210 922 l 436 567 l 661 922 m 381 1017 b 418 1093 381 1051 393 1074 b 483 1154 446 1114 483 1128 b 418 1185 483 1165 474 1185 b 299 1151 365 1185 325 1167 l 249 1232 b 429 1285 286 1258 354 1285 b 622 1174 535 1285 622 1244 b 511 1054 622 1110 549 1082 b 483 1006 492 1040 483 1029 l 483 1000 l 381 1000 "},"ỷ":{"ha":646,"x_min":0,"x_max":0,"o":"m 104 -117 b 246 6 183 -117 204 -103 l -1 656 l 179 656 l 332 199 l 475 656 l 647 656 l 397 -61 b 117 -265 342 -206 275 -265 l 36 -265 l 36 -117 m 288 760 b 321 833 288 793 297 814 b 379 893 346 851 379 867 b 325 924 379 904 371 924 b 215 889 276 924 239 904 l 167 968 b 336 1019 203 994 267 1019 b 515 911 433 1019 515 979 b 414 796 515 850 449 822 b 386 749 396 782 386 771 l 386 743 l 288 743 "},"Ỹ":{"ha":860,"x_min":0,"x_max":0,"o":"m 853 922 l 518 415 l 518 0 l 342 0 l 342 417 l 10 922 l 210 922 l 436 567 l 661 922 m 218 1014 b 218 1053 217 1022 218 1044 b 339 1186 224 1154 286 1186 b 510 1111 444 1186 450 1111 b 553 1150 533 1111 543 1128 b 560 1178 554 1153 560 1169 l 644 1167 b 643 1128 646 1160 644 1135 b 524 994 638 1026 576 994 b 354 1069 422 994 415 1069 b 310 1029 331 1069 319 1056 b 304 1006 307 1024 304 1010 "},"ỹ":{"ha":646,"x_min":0,"x_max":0,"o":"m 104 -117 b 246 6 183 -117 204 -103 l -1 656 l 179 656 l 332 199 l 475 656 l 647 656 l 397 -61 b 117 -265 342 -206 275 -265 l 36 -265 l 36 -117 m 122 763 b 122 803 121 771 122 794 b 243 939 122 913 192 939 b 406 858 332 939 364 858 b 447 899 429 858 439 875 b 454 929 450 903 454 919 l 539 919 b 539 881 540 911 539 886 b 418 742 539 772 465 742 b 257 822 331 742 300 822 b 214 781 233 822 219 808 b 207 753 211 774 207 760 l 122 763 "}," ":{"ha":603,"x_min":0,"x_max":0,"o":""}," ":{"ha":100,"x_min":0,"x_max":0,"o":""},"​":{"ha":394,"x_min":0,"x_max":0,"o":""},"℗":{"ha":857,"x_min":0,"x_max":0,"o":"m 426 172 b 33 554 192 172 33 325 b 426 943 33 789 190 943 b 824 554 664 943 824 788 b 426 172 824 325 665 172 m 426 254 b 732 554 607 254 732 376 b 426 860 732 736 606 860 b 125 554 249 860 125 738 b 426 254 125 376 250 254 m 440 761 b 625 624 567 761 625 718 b 446 475 625 524 567 476 l 381 475 l 381 357 l 278 357 l 278 761 m 381 553 l 426 553 b 525 618 506 553 525 576 b 431 676 525 657 506 676 l 381 676 "},"◌":{"ha":1201,"x_min":0,"x_max":0,"o":"m 885 564 b 799 650 824 564 799 599 b 885 733 799 701 824 733 b 971 650 946 733 971 701 b 885 564 971 599 946 564 m 600 76 b 686 -10 661 76 686 42 b 600 -94 686 -61 661 -94 b 514 -10 539 -94 514 -61 b 600 76 514 42 539 76 m 211 472 b 297 386 272 472 297 438 b 211 303 297 335 272 303 b 125 386 150 303 125 335 b 211 472 125 438 150 472 m 317 564 b 231 650 256 564 231 599 b 317 733 231 701 256 733 b 403 650 378 733 403 701 b 317 564 403 599 378 564 m 885 210 b 971 124 946 210 971 175 b 885 40 971 72 946 40 b 799 124 824 40 799 72 b 885 210 799 175 824 210 m 600 697 b 514 783 539 697 514 732 b 600 868 514 835 539 868 b 686 783 661 868 686 835 b 600 697 686 732 661 697 m 990 472 b 1076 386 1051 472 1076 438 b 990 303 1076 335 1051 303 b 904 386 929 303 904 335 b 990 472 904 438 929 472 m 317 210 b 403 124 378 210 403 175 b 317 40 403 72 378 40 b 231 124 256 40 231 72 b 317 210 231 175 256 210 "},"♥":{"ha":997,"x_min":0,"x_max":0,"o":"m 499 61 b 21 582 367 240 21 321 l 21 592 b 253 836 21 735 114 836 l 257 836 b 463 710 375 836 438 761 b 494 553 485 664 490 617 l 503 553 b 536 710 510 617 513 664 b 740 836 563 761 625 836 l 744 836 b 976 592 883 836 976 735 l 976 582 b 499 61 976 321 631 240 "},"✓":{"ha":869,"x_min":0,"x_max":0,"o":"m 315 386 l 390 165 l 393 165 l 469 386 l 736 1174 l 913 1174 l 475 0 l 310 0 l 36 656 l 226 656 "},"✗":{"ha":839,"x_min":0,"x_max":0,"o":"m 186 719 l 439 447 l 679 722 l 781 638 l 517 360 l 783 99 l 676 -12 l 426 260 l 188 -12 l 83 76 l 343 349 l 79 611 "},"ﬁ":{"ha":751,"x_min":0,"x_max":0,"o":"m 129 515 l 26 515 l 26 656 l 129 656 l 129 704 b 317 936 129 867 178 928 l 440 936 l 440 786 l 392 786 b 297 690 308 786 297 782 l 297 656 l 426 656 l 426 515 l 299 515 l 299 0 l 129 0 m 685 0 l 513 0 l 513 656 l 685 656 m 689 751 l 508 751 l 508 919 l 689 919 "},"ﬂ":{"ha":751,"x_min":0,"x_max":0,"o":"m 129 515 l 26 515 l 26 656 l 129 656 l 129 704 b 317 936 129 867 178 928 l 440 936 l 440 786 l 392 786 b 297 690 308 786 297 782 l 297 656 l 426 656 l 426 515 l 299 515 l 299 0 l 129 0 m 685 0 l 513 0 l 513 935 l 685 935 "},"ų":{"ha":708,"x_min":0,"x_max":0,"o":"m 564 -286 b 390 -154 457 -286 390 -229 b 504 0 390 -89 436 -36 l 472 0 l 472 92 b 293 -12 436 25 376 -12 b 53 263 144 -12 53 93 l 53 656 l 226 656 l 226 272 b 344 133 226 185 267 133 b 472 322 435 133 472 210 l 472 656 l 644 656 l 644 0 l 642 0 b 526 -112 563 -33 526 -69 b 592 -164 526 -146 547 -164 b 647 -157 621 -164 636 -161 l 647 -274 b 564 -286 625 -281 599 -286 "},"ů":{"ha":708,"x_min":0,"x_max":0,"o":"m 293 -12 b 53 263 144 -12 53 93 l 53 656 l 225 656 l 225 272 b 344 133 225 185 267 133 b 472 322 435 133 472 210 l 472 656 l 644 656 l 644 0 l 472 0 l 472 93 b 293 -12 438 25 378 -12 m 350 819 b 413 883 386 819 413 846 b 350 947 413 919 386 947 b 289 883 314 947 289 919 b 350 819 289 846 314 819 m 350 743 b 199 883 257 743 199 800 b 350 1022 199 965 257 1022 b 503 883 443 1022 503 965 b 350 743 503 800 443 743 "},"ũ":{"ha":708,"x_min":0,"x_max":0,"o":"m 293 -12 b 53 263 144 -12 53 93 l 53 656 l 225 656 l 225 272 b 344 133 225 185 267 133 b 472 322 435 133 472 210 l 472 656 l 644 656 l 644 0 l 472 0 l 472 93 b 293 -12 438 25 378 -12 m 142 768 b 142 808 140 776 142 800 b 263 944 142 918 211 944 b 425 864 351 944 383 864 b 467 904 449 864 458 881 b 474 935 469 908 474 925 l 558 925 b 558 886 560 917 558 892 b 438 747 558 778 485 747 b 276 828 350 747 319 828 b 233 786 253 828 239 814 b 226 758 231 779 226 765 l 142 768 "},"v":{"ha":658,"x_min":0,"x_max":0,"o":"m 338 199 l 482 656 l 654 656 l 415 0 l 256 0 l 4 656 l 182 656 "},"w":{"ha":990,"x_min":0,"x_max":0,"o":"m 300 239 l 419 656 l 579 656 l 699 235 l 810 656 l 979 656 l 775 0 l 621 0 l 496 449 l 372 0 l 217 0 l 10 656 l 188 656 "},"ẃ":{"ha":990,"x_min":0,"x_max":0,"o":"m 300 239 l 419 656 l 579 656 l 699 235 l 810 656 l 979 656 l 775 0 l 621 0 l 496 449 l 372 0 l 217 0 l 10 656 l 188 656 m 751 932 l 524 742 l 436 742 l 558 949 l 751 949 "},"ŵ":{"ha":990,"x_min":0,"x_max":0,"o":"m 300 239 l 419 656 l 579 656 l 699 235 l 810 656 l 979 656 l 775 0 l 621 0 l 496 449 l 372 0 l 217 0 l 10 656 l 188 656 m 717 742 l 601 742 l 497 854 l 393 742 l 278 742 l 426 946 l 568 946 "},"ẅ":{"ha":990,"x_min":0,"x_max":0,"o":"m 300 239 l 419 656 l 579 656 l 699 235 l 810 656 l 979 656 l 775 0 l 621 0 l 496 449 l 372 0 l 217 0 l 10 656 l 188 656 m 444 751 l 293 751 l 293 919 l 444 919 m 703 751 l 551 751 l 551 919 l 703 919 "},"ẁ":{"ha":990,"x_min":0,"x_max":0,"o":"m 300 239 l 419 656 l 579 656 l 699 235 l 810 656 l 979 656 l 775 0 l 621 0 l 496 449 l 372 0 l 217 0 l 10 656 l 188 656 m 419 949 l 542 742 l 454 742 l 226 932 l 226 949 "},"x":{"ha":664,"x_min":0,"x_max":0,"o":"m 235 336 l 25 656 l 217 656 l 342 454 l 468 656 l 647 656 l 433 342 l 658 0 l 465 0 l 328 224 l 186 0 l 6 0 "},"y":{"ha":646,"x_min":0,"x_max":0,"o":"m 104 -117 b 246 6 183 -117 204 -103 l -1 656 l 179 656 l 332 199 l 475 656 l 647 656 l 397 -61 b 117 -265 342 -206 275 -265 l 36 -265 l 36 -117 "},"ý":{"ha":646,"x_min":0,"x_max":0,"o":"m 104 -117 b 246 6 183 -117 204 -103 l -1 656 l 179 656 l 332 199 l 475 656 l 647 656 l 397 -61 b 117 -265 342 -206 275 -265 l 36 -265 l 36 -117 m 585 932 l 357 742 l 269 742 l 392 949 l 585 949 "},"ŷ":{"ha":646,"x_min":0,"x_max":0,"o":"m 104 -117 b 246 6 183 -117 204 -103 l -1 656 l 179 656 l 332 199 l 475 656 l 647 656 l 397 -61 b 117 -265 342 -206 275 -265 l 36 -265 l 36 -117 m 550 742 l 435 742 l 331 854 l 226 742 l 111 742 l 260 946 l 401 946 "},"ÿ":{"ha":646,"x_min":0,"x_max":0,"o":"m 104 -117 b 246 6 183 -117 204 -103 l -1 656 l 179 656 l 332 199 l 475 656 l 647 656 l 397 -61 b 117 -265 342 -206 275 -265 l 36 -265 l 36 -117 m 278 751 l 126 751 l 126 919 l 278 919 m 536 751 l 385 751 l 385 919 l 536 919 "},"¥":{"ha":826,"x_min":0,"x_max":0,"o":"m 69 308 l 322 308 l 322 413 l 69 413 l 69 511 l 318 511 l 54 922 l 236 922 l 421 629 l 601 922 l 776 922 l 508 511 l 751 511 l 751 413 l 500 413 l 500 308 l 751 308 l 751 210 l 500 210 l 500 0 l 322 0 l 322 210 l 69 210 "},"ỳ":{"ha":646,"x_min":0,"x_max":0,"o":"m 104 -117 b 246 6 183 -117 204 -103 l -1 656 l 179 656 l 332 199 l 475 656 l 647 656 l 397 -61 b 117 -265 342 -206 275 -265 l 36 -265 l 36 -117 m 253 949 l 375 742 l 288 742 l 60 932 l 60 949 "},"z":{"ha":606,"x_min":0,"x_max":0,"o":"m 35 515 l 35 656 l 571 656 l 571 532 l 240 140 l 571 140 l 571 0 l 33 0 l 33 124 l 369 515 "},"ź":{"ha":606,"x_min":0,"x_max":0,"o":"m 35 515 l 35 656 l 571 656 l 571 532 l 240 140 l 571 140 l 571 0 l 33 0 l 33 124 l 369 515 m 557 932 l 329 742 l 242 742 l 364 949 l 557 949 "},"ž":{"ha":606,"x_min":0,"x_max":0,"o":"m 35 515 l 35 656 l 571 656 l 571 532 l 240 140 l 571 140 l 571 0 l 33 0 l 33 124 l 369 515 m 303 835 l 407 946 l 522 946 l 374 743 l 232 743 l 83 946 l 199 946 "},"ż":{"ha":606,"x_min":0,"x_max":0,"o":"m 35 515 l 35 656 l 571 656 l 571 532 l 240 140 l 571 140 l 571 0 l 33 0 l 33 124 l 369 515 m 393 751 l 214 751 l 214 919 l 393 919 "},"⁰":{"ha":626,"x_min":0,"x_max":0,"o":"m 313 446 b 35 746 136 446 35 550 b 304 1033 35 928 133 1033 b 579 735 479 1033 579 926 b 313 446 579 551 483 446 m 313 561 b 419 704 386 561 422 606 l 418 776 b 304 918 415 874 378 918 b 196 776 231 918 194 875 l 197 704 b 313 561 200 606 238 561 "},"★":{"ha":1010,"x_min":0,"x_max":0,"o":"m 508 242 l 204 38 l 317 383 l 21 608 l 386 608 l 508 954 l 621 608 l 989 608 l 703 383 l 804 38 "}}}
